<?xml version="1.0" encoding="utf-8"?>
<!-- Generator: Adobe Illustrator 25.2.0, SVG Export Plug-In . SVG Version: 6.00 Build 0)  -->
<svg version="1.1" id="Layer_1" xmlns="http://www.w3.org/2000/svg" xmlns:xlink="http://www.w3.org/1999/xlink" x="0px" y="0px"
	 viewBox="0 0 342.6 143.6" style="enable-background:new 0 0 342.6 143.6;" xml:space="preserve">
<style type="text/css">
	.st0{fill:none;}
	.st1{fill:#E71D4F;}
	.st2{fill:#FFFFFF;}
	.st3{fill:none;stroke:#E71D4F;stroke-width:4.2971;stroke-miterlimit:10;}
	.st4{fill:none;stroke:#FFFFFF;stroke-width:5.7295;stroke-miterlimit:10;}
</style>
<g id="Logo">
	<g>
		<rect x="56.9" y="48.8" class="st0" width="285.7" height="73.6"/>
		<path class="st1" d="M113.1,48.9l-29.9,72.9L53.5,48.9h23.6l6.3,21.5l6.9-21.5H113.1z"/>
		<path class="st2" d="M143.6,66.9v20.2c-1.3-0.7-2.5-1.1-3.6-1.1c-3.4,0-5.1,2.6-5.1,7.9v23.9h-18.8V90.3c0-7.3,2-13.1,5.9-17.4
			c4-4.3,9.2-6.5,15.8-6.5C139.3,66.4,141.3,66.6,143.6,66.9z"/>
		<path class="st2" d="M149.1,68.2h18.8v28.4c0,2.9,1.2,4.3,3.6,4.3c2.3,0,3.5-1.4,3.5-4.3V68.2h18.8v28.1c0,6.5-2.2,12-6.5,16.5
			s-9.6,6.7-15.9,6.7c-7.1,0-12.9-2.6-17.2-7.8c-3.4-4.1-5.1-9.7-5.1-17L149.1,68.2L149.1,68.2z"/>
		<path class="st2" d="M204.7,68.2h18.8v28.4c0,2.9,1.2,4.3,3.6,4.3c2.3,0,3.5-1.4,3.5-4.3V68.2h18.8v28.1c0,6.5-2.2,12-6.5,16.5
			s-9.6,6.7-15.9,6.7c-7.1,0-12.9-2.6-17.2-7.8c-3.4-4.1-5.1-9.7-5.1-17L204.7,68.2L204.7,68.2z"/>
		<path class="st2" d="M329,117.8h-18.8V90.6c0-2.1-0.2-3.5-0.7-4.3c-0.4-0.8-1.2-1.2-2.4-1.2c-2.1,0-3.2,1.9-3.2,5.6v27.1h-18.8
			V90.6c0-2.1-0.2-3.5-0.7-4.3s-1.2-1.2-2.4-1.2c-2.1,0-3.1,1.9-3.1,5.6v27.1h-18.8v-31c0-5.7,1.9-10.5,5.7-14.4
			c3.8-4,8.4-5.9,13.8-5.9c5.6,0,10.5,2.4,15,7.1c4.9-4.7,9.8-7.1,14.8-7.1c6.3,0,11.3,2.3,15.1,6.9c3,3.6,4.5,8.8,4.5,15.6V117.8z"
			/>
	</g>
	<g id="Lines">
		<path class="st3" d="M32.6,1c-10,18-20,35.2-30,52.4c20,23,44.3,44.5,64.8,67.2"/>
		<polyline class="st4" points="47.6,15.4 17.6,68.5 83.3,136 257.6,136 		"/>
	</g>
</g>
</svg>
