<?xml version="1.0" encoding="utf-8"?>
<!-- Generator: Adobe Illustrator 25.2.0, SVG Export Plug-In . SVG Version: 6.00 Build 0)  -->
<svg version="1.1" id="Icon" xmlns="http://www.w3.org/2000/svg" xmlns:xlink="http://www.w3.org/1999/xlink" x="0px" y="0px"
	 viewBox="0 0 14 9.7" style="enable-background:new 0 0 14 9.7;" xml:space="preserve">
<style type="text/css">
	.st0{fill-rule:evenodd;clip-rule:evenodd;fill:#222222;}
</style>
<path id="Icon_1_" class="st0" d="M2.5,8.9c0-0.3,0.2-0.5,0.5-0.5h10c0.3,0,0.5,0.2,0.5,0.5S13.3,9.4,13,9.4H3
	C2.7,9.4,2.5,9.1,2.5,8.9z M1.5,4.9c0-0.3,0.2-0.5,0.5-0.5h10c0.3,0,0.5,0.2,0.5,0.5S12.3,5.4,12,5.4H2C1.7,5.4,1.5,5.1,1.5,4.9z
	 M0.5,0.9c0-0.3,0.2-0.5,0.5-0.5h10c0.3,0,0.5,0.2,0.5,0.5S11.3,1.4,11,1.4H1C0.7,1.4,0.5,1.1,0.5,0.9z"/>
</svg>
