<?xml version="1.0" encoding="UTF-8" standalone="no"?>
<svg
   height="48"
   viewBox="0 -960 960 960"
   width="48"
   version="1.1"
   id="svg20"
   sodipodi:docname="technologies.svg"
   inkscape:version="1.2.2 (732a01da63, 2022-12-09, custom)"
   xmlns:inkscape="http://www.inkscape.org/namespaces/inkscape"
   xmlns:sodipodi="http://sodipodi.sourceforge.net/DTD/sodipodi-0.dtd"
   xmlns="http://www.w3.org/2000/svg"
   xmlns:svg="http://www.w3.org/2000/svg">
  <defs
     id="defs24" />
  <sodipodi:namedview
     id="namedview22"
     pagecolor="#ffffff"
     bordercolor="#000000"
     borderopacity="0.25"
     inkscape:showpageshadow="2"
     inkscape:pageopacity="0.0"
     inkscape:pagecheckerboard="0"
     inkscape:deskcolor="#d1d1d1"
     showgrid="false"
     inkscape:zoom="16.416667"
     inkscape:cx="24.091371"
     inkscape:cy="24.030457"
     inkscape:window-width="1920"
     inkscape:window-height="930"
     inkscape:window-x="0"
     inkscape:window-y="0"
     inkscape:window-maximized="1"
     inkscape:current-layer="svg20" />
  <path
     d="M764-80q-6 0-11-2t-10-7L501-331q-5-5-7-10t-2-11q0-6 2-11t7-10l85-85q5-5 10-7t11-2q6 0 11 2t10 7l242 242q5 5 7 10t2 11q0 6-2 11t-7 10l-85 85q-5 5-10 7t-11 2Zm-569 0q-6 0-11.5-2T173-89l-84-84q-5-5-7-10.5T80-195q0-6 2-11t7-10l225-225h85l38-38-175-175h-57L80-779l99-99 125 125v57l175 175 130-130-67-67 56-56H485l-18-18 128-128 18 18v113l56-56 169 169q15 15 23.5 34.5T870-600q0 20-6.5 38.5T845-528l-85-85-56 56-52-52-211 211v84L216-89q-5 5-10 7t-11 2Z"
     id="path18"
     style="fill:#192bc2;fill-opacity:1" />
</svg>
