<?xml version="1.0" encoding="utf-8"?>
<!-- Generator: Adobe Illustrator 25.2.0, SVG Export Plug-In . SVG Version: 6.00 Build 0)  -->
<svg version="1.1" id="Layer_1" xmlns="http://www.w3.org/2000/svg" xmlns:xlink="http://www.w3.org/1999/xlink" x="0px" y="0px"
	 viewBox="0 0 36 36" style="enable-background:new 0 0 36 36;" xml:space="preserve">
<style type="text/css">
	.st0{fill:#FFFFFF;}
</style>
<g id="Layer_2_1_">
</g>
<g id="Layer_3">
</g>
<g id="Layer_4">
</g>
<g id="Layer_5">
</g>
<g id="Layer_6">
</g>
<g id="Layer_7">
</g>
<g id="Layer_8">
</g>
<g id="Layer_9">
</g>
<g id="Layer_10">
</g>
<g id="Layer_11">
</g>
<g id="Layer_12">
</g>
<g id="Layer_13">
</g>
<g id="Layer_14">
</g>
<g id="Layer_15">
</g>
<g id="Layer_16">
</g>
<g id="Layer_17">
</g>
<g id="Layer_18">
</g>
<g id="Layer_19">
	<g>
		<g>
			<path class="st0" d="M35.4,23.6c-2.6,7.1-9.3,11.9-16.9,11.9c-9.9,0-18-7.9-18-17.7c0-8.3,5.7-15.4,13.9-17.2
				c0.3-0.1,0.8,0,1.2,0.3c0.2,0.3,0.3,0.8,0.2,1.2c-0.6,1.6-0.9,3.4-0.9,5.1c0,8.5,7,15.4,15.6,15.4c1.2,0,2.4-0.1,3.6-0.5
				c0.3-0.1,0.8,0,1.2,0.3C35.5,22.8,35.6,23.3,35.4,23.6z"/>
		</g>
	</g>
</g>
<g id="Layer_20">
</g>
<g id="Layer_21">
</g>
<g id="Layer_22">
</g>
<g id="Layer_23">
</g>
<g id="Layer_24">
</g>
<g id="Layer_25">
</g>
<g id="Wearher">
</g>
</svg>
