<?xml version="1.0" encoding="utf-8"?>
<!-- Generator: Adobe Illustrator 25.2.0, SVG Export Plug-In . SVG Version: 6.00 Build 0)  -->
<svg version="1.1" id="Layer_1" xmlns="http://www.w3.org/2000/svg" xmlns:xlink="http://www.w3.org/1999/xlink" x="0px" y="0px"
	 viewBox="0 0 36 36" style="enable-background:new 0 0 36 36;" xml:space="preserve">
<style type="text/css">
	.st0{fill:#FFFFFF;}
</style>
<path class="st0" d="M4.6,29.3l2.2,2.3l2.9-2.9l-2.3-2.3 M16.4,35.5c0.5,0,3.2,0,3.2,0v-4.7h-3.2 M18,8.4c-5.3,0-9.5,4.3-9.5,9.6
	s4.3,9.6,9.5,9.6s9.5-4.3,9.5-9.6C27.5,12.7,23.3,8.4,18,8.4 M30.7,19.6h4.8v-3.2h-4.8 M26.3,28.6l2.9,2.9l2.2-2.3l-2.8-2.9
	 M31.4,6.7l-2.2-2.3l-2.9,2.9l2.3,2.3 M19.6,0.5h-3.2v4.7h3.2 M5.3,16.4H0.5v3.2h4.8 M9.7,7.4L6.8,4.5L4.6,6.7l2.8,2.9L9.7,7.4z"/>
</svg>
