<?xml version="1.0" encoding="utf-8"?>
<!-- Generator: Adobe Illustrator 25.2.0, SVG Export Plug-In . SVG Version: 6.00 Build 0)  -->
<svg version="1.1" id="Layer_1" focusable="false" xmlns="http://www.w3.org/2000/svg" xmlns:xlink="http://www.w3.org/1999/xlink"
	 x="0px" y="0px" viewBox="0 0 640 512" style="enable-background:new 0 0 640 512;" xml:space="preserve">
<style type="text/css">
	.st0{fill:#FFFFFF;}
</style>
<path class="st0" d="M598.6,41.4C570.1,13.8,534.8,0,498.6,0s-72.4,13.8-100,41.4l-43.4,43.4c15.1,8,29.5,17.6,41.9,30
	c3.1,3.1,5.9,6.5,8.7,9.8l38-38C458.5,72.1,477.1,64,498.6,64c20.7,0,40.1,8,54.7,22.7c14.6,14.6,22.7,34,22.7,54.7
	s-8,40.1-22.7,54.7L420,329.4c-14.5,13.7-34,22.6-54.6,22.6s-40.1-8-54.7-22.7c-14.7-14.6-23.6-34-23.6-54.7s8-40.1,22.7-54.7
	l4.4-3.5c-2.1-3.9-4.3-7.9-7.5-11.1c-8.6-8.6-19.9-13.3-32.1-13.3c-11.9,0-23.1,4.7-31.6,13c-30.7,54-23.6,123.6,22.4,169.6
	c27.6,27.6,63.8,41.4,100,41.4c36.2,0,72.4-13.8,100-41.4l133.2-133.3c28.5-28.4,42.2-66,41.4-103.3
	C639.1,102.1,625.4,68.2,598.6,41.4z M234,387.4l-37.9,37.9C181.5,439.1,162,448,141.4,448c-20.7,0-40.1-8-54.7-22.7
	c-14.6-14.6-22.7-34-22.7-54.7s8-40.1,22.7-54.7L220,182.6c14.5-14.6,33.1-22.6,54.6-22.6s40.1,8,54.7,22.7
	c14.6,14.6,22.7,34,22.7,54.7s-8,40.1-22.7,54.7l-3.5,3.5c2.1,3.9,4.2,7.9,7.5,11.1c8.6,8.5,20,13.2,32.1,13.2
	c11.9,0,23.1-4.7,31.6-13c30.7-54,23.6-123.6-22.4-169.6c-28.5-27.6-63.8-41.4-100-41.4s-72.3,13.8-99.9,41.4L41.4,270.7
	C13.8,298.3,0,334.5,0,370.7c0,36.2,13.8,72.4,41.4,100c27.6,27.6,63.8,41.4,100,41.4c36.2,0,72.4-13.8,100-41.4l43.4-43.4
	c-15.1-8-29.5-17.6-41.9-30C239.6,394.1,236.9,390.7,234,387.4z"/>
</svg>
