<?xml version="1.0" encoding="utf-8"?>
<!-- Generator: Adobe Illustrator 25.2.0, SVG Export Plug-In . SVG Version: 6.00 Build 0)  -->
<svg version="1.1" id="Image" xmlns="http://www.w3.org/2000/svg" xmlns:xlink="http://www.w3.org/1999/xlink" x="0px" y="0px"
	 viewBox="0 0 1440 320" style="enable-background:new 0 0 1440 320;" xml:space="preserve">
<style type="text/css">
	.st0{fill:#FFFFFF;}
	.st1{fill:#FF3E00;}
</style>
<rect id="Background" class="st0" width="1440" height="320"/>
<path id="Shape" class="st1" d="M0,320v-96h36.9v-32h36.9v32h37v32h36.9l0,0h36.9v32h36.9V64h37v256h36.9v-96h36.9v-96h36.9V96h37
	v64h36.9v128H480V160h36.9v128h36.9v-96h37V0h36.9v64h36.9v64h36.9v64h37v32h36.9V64h36.9v160h36.9V96h37v96h36.9v96H960V128h36.9
	v128h36.9V128h37v96h36.9V32h36.9v64h36.9v64h37V0h36.9v192h36.9V96h36.9V64h37v32h36.9V64h36.9v256h-36.9l0,0h-36.9l0,0h-37l0,0
	h-36.9l0,0h-36.9l0,0h-36.9l0,0h-37l0,0h-36.9l0,0h-36.9l0,0h-36.9l0,0h-37l0,0h-36.9l0,0H960l0,0h-36.9l0,0h-36.9l0,0h-37l0,0
	h-36.9l0,0h-36.9l0,0h-36.9l0,0h-37l0,0h-36.9l0,0h-36.9l0,0h-36.9l0,0h-37l0,0h-36.9l0,0H480l0,0h-36.9l0,0h-36.9l0,0h-37l0,0
	h-36.9l0,0h-36.9l0,0h-36.9l0,0h-37l0,0h-36.9l0,0h-36.9l0,0h-36.9l0,0h-37l0,0H36.9l0,0H0L0,320z"/>
</svg>
