<?xml version="1.0" encoding="utf-8"?>
<!-- Generator: Adobe Illustrator 25.2.0, SVG Export Plug-In . SVG Version: 6.00 Build 0)  -->
<svg version="1.1" id="Logo" xmlns="http://www.w3.org/2000/svg" xmlns:xlink="http://www.w3.org/1999/xlink" x="0px" y="0px"
	 viewBox="0 0 124 124" style="enable-background:new 0 0 124 124;" xml:space="preserve">
<style type="text/css">
	.st0{fill:#F2F2F2;stroke:#222222;stroke-width:4;stroke-miterlimit:10;}
	.st1{fill:#222222;}
</style>
<path class="st0" d="M62,122L62,122C28.9,122,2,95.1,2,62v0C2,28.9,28.9,2,62,2h0c33.1,0,60,26.9,60,60v0C122,95.1,95.1,122,62,122z
	"/>
<g>
	<path class="st1" d="M93.1,81.7C93,83.5,92.2,85,90.6,86c-1.4,1-3.1,1.4-5,1.4H71.6c-1.9,0-3.4-0.5-4.3-1.5
		c-0.6-0.6-1.5-2.1-2.5-4.3l-7.1-15.8c0.9-0.1,3-0.8,6.2-2.1c3.1-1.1,5.1-2,5.9-2.4c4.8-2.5,7.2-5.6,7.2-9.3c0-4.3-3.1-6.4-9.1-6.4
		H30.9l5.6-9.1H73c13.1,0,19.7,4.2,19.7,12.5c0,7.1-6.8,13.2-20.5,18.5l6.5,14.1L93.1,81.7L93.1,81.7z M62.8,50.3L49.6,87.4h-13
		l13.1-37.1H62.8z"/>
</g>
</svg>
