<?xml version="1.0" encoding="utf-8"?>
<!-- Generator: Adobe Illustrator 25.2.0, SVG Export Plug-In . SVG Version: 6.00 Build 0)  -->
<svg version="1.1" id="Logo" xmlns="http://www.w3.org/2000/svg" xmlns:xlink="http://www.w3.org/1999/xlink" x="0px" y="0px"
	 viewBox="0 0 156.7 128.3" style="enable-background:new 0 0 156.7 128.3;" xml:space="preserve">
<style type="text/css">
	.st0{fill:#FFFFFF;}
</style>
<g>
	<path class="st0" d="M141.3,104c-0.2,3.7-1.9,6.6-5.1,8.8c-2.9,2-6.3,2.9-10.2,2.9H97.8c-3.9,0-6.8-1-8.8-3.1c-1.3-1.3-3-4.2-5-8.6
		L69.6,72c1.8-0.3,6-1.7,12.5-4.2c6.3-2.3,10.3-4,11.9-4.8c9.7-5,14.6-11.3,14.6-18.9c0-8.7-6.2-13-18.5-13H15.4l11.4-18.5h73.8
		c26.5,0,39.8,8.4,39.8,25.3c0,14.3-13.8,26.8-41.4,37.5l13.2,28.5L141.3,104L141.3,104z M80,40.5l-26.7,75.1H26.9l26.5-75.1H80z"/>
</g>
</svg>
