<?xml version="1.0" encoding="utf-8"?>
<!-- Generator: Adobe Illustrator 25.2.0, SVG Export Plug-In . SVG Version: 6.00 Build 0)  -->
<svg version="1.1" id="Layer_1" xmlns="http://www.w3.org/2000/svg" xmlns:xlink="http://www.w3.org/1999/xlink" x="0px" y="0px"
	 viewBox="0 0 16.3 25" style="enable-background:new 0 0 16.3 25;" xml:space="preserve">
<style type="text/css">
	.st0{fill:#282828;}
	.st1{fill:#FFEC06;stroke:#282828;stroke-width:0.3273;stroke-miterlimit:10;}
</style>
<path class="st0" d="M13.5,19.8H2.8V5.2h10.7 M13.5,1H2.8C1.6,1,0.7,1.9,0.7,3.1v18.8c0,1.2,1,2.1,2.1,2.1h10.7
	c1.2,0,2.1-0.9,2.1-2.1V3.1C15.7,1.9,14.7,1,13.5,1z"/>
<g>
	<path class="st1" d="M7.9,15.3l-4-1.9l4-6.4l1.9,0.9l-2.9,4.7l2,1l1.5-3l2.2,0.3l-1.8,3.6l0.3,0.1l-0.9,1.8l-0.3-0.1L8.8,18L7,17.1
		L7.9,15.3z"/>
</g>
</svg>
