<?xml version="1.0" encoding="utf-8"?>
<!-- Generator: Adobe Illustrator 25.2.0, SVG Export Plug-In . SVG Version: 6.00 Build 0)  -->
<svg version="1.1" id="Layer" xmlns="http://www.w3.org/2000/svg" xmlns:xlink="http://www.w3.org/1999/xlink" x="0px" y="0px"
	 viewBox="0 0 300 300" style="enable-background:new 0 0 300 300;" xml:space="preserve">
<style type="text/css">
	.st0{display:none;}
	.st1{fill:#8979F2;}
	.st2{fill:none;}
	.st3{fill:#FFFFFF;}
</style>
<g id="Logo">
	<g>
		<g>
			<path class="st0" d="M225.6,86.9C217.8,75.5,209,65.7,198.1,58c11.6-8.9,23.2-17.3,36.2-23.4c3.8-1.8,7.9-3.1,12-4.2
				c4-1,6.1,0.8,5.6,5.2c-0.3,3.2-1.1,6.4-2.2,9.4c-4.1,10.9-10,20.6-16,30.4c-1.8,2.9-3.7,5.8-5.6,8.7
				C227.4,85,226.6,85.8,225.6,86.9z"/>
			<path class="st0" d="M60,217.3c-1.9-1.7-3.8-3.6-5.3-5.3c-8.6,12.6-16.5,25.6-22,40c-1.3,3.3-1.9,7-2.4,10.6
				c-0.4,2.8,1,4,3.7,4.1c0.7,0,1.4,0.1,2-0.1c4-1.3,8-2.4,11.8-4.1c8.7-4,16.5-9.6,24.3-15.1c3.6-2.6,7.2-5.2,11-8
				C74.8,233.1,60.3,217.6,60,217.3z"/>
			<path class="st1" d="M279.4,19.8c-4.5-8.8-11-15.2-20.2-18C252-0.5,244.6-0.4,237.3,1c-13.4,2.6-25.6,8.5-36.9,16.4
				c-10.3,7.1-23.9,17.8-33.9,25.3c-0.9,0,56,36.8,59.3,46.1c4.1,3.4-110,134.7-140.8,150.7c-3.8,2.7-7.4,5.4-11,8
				c-7.8,5.5-15.7,11.1-24.3,15.1c-3.8,1.7-7.9,2.8-11.8,4.1c-0.6,0.2-1.3,0.1-2,0.1c-2.7-0.1-4.1-1.3-3.7-4.1
				c0.5-3.6,1.1-7.3,2.4-10.6c5.5-14.4,13.4-27.4,22-40c7.6-10.9,1.7-21.7-5.2-9.9c-3.4,5.9-7.4,11.5-10.9,17.3
				c-6.2,10.2-11.9,20.6-15.4,32.1c-1.3,4.4-2.1,8.8-1.7,13.4c0.5,6,5.1,10.6,10.8,10.9c4.9,0.3,9.5-1.1,14.1-2.8
				c10.9-4,20.6-10.3,30.1-16.9c20-14.1,38.4-30.2,56.2-47.1c14.4-13.6,28.3-27.8,41.7-42.5c17.6-19.3,34.5-39.4,49.9-60.6
				c9.4-12.9,18.4-26.1,25.8-40.4c4-7.8,7.7-15.7,9.6-24.4c0.7-3.1,1-6.4,0.8-9.5c-0.6-6.7-5-10.6-11.7-10.9
				c-5.1-0.2-10,1.2-14.7,3.1c-9.4,3.8-17.9,9.4-26.3,15.1c-5.7,3.9-11.1,8.1-16.8,12.1c-0.6,0.4-1.8,0.7-2.4,0.4
				c-3.5-1.5-6.9-3.3-10.3-5c-1.5-0.7-0.8-1.6,0-2.2c2.9-2.4,5.8-4.7,8.8-7c8.7-6.7,17.7-13,27.3-18.2c8.6-4.6,17.5-8.2,27.2-9.4
				c14-1.7,25.7,5.9,30,20c1.9,6.3,1.4,12.6-0.1,18.9c-2.6,10.3-7.3,19.6-12.5,28.6c-10.4,18.1-22.4,35-35.1,51.4
				c-13.6,17.6-28.9,34.8-43.1,50.7c-14.6,16.3-30.4,33.2-48.1,48.1c-17.7,14.8-34.6,30.5-53.6,43.5c-9.9,6.8-20.1,13.1-31.5,16.8
				c-6.9,2.3-13.9,3.5-21,1.5c-11.3-3.3-18.7-14.4-18.6-26.7c0.1-8.7,2.6-16.8,5.8-24.7c5.3-12.9,12.9-24.4,20.3-36.1
				c3.3-5.2,5.4-8.7,8.8-13.7c4.6-5.5,6.1-27.1-3.4-12.4c-0.1,0.7-12.2,19.2-18.3,28.8C15.5,216,9,228.1,4.6,241.4
				c-3.1,9.4-5.2,19-3.3,29.1c2.4,12.8,9.4,21.7,20.8,26.8c8.6,3.8,17.3,3.2,26.1,0.8c11.2-3,21.3-8.5,31.1-14.7
				c12.1-7.5,23.3-16.3,34.5-25.1c0.4-0.5,37-33.2,67.9-65c26-26.7,47-53.3,48.6-55.3c0.3-0.3,12.6-16.2,13.2-17.2
				c5.3-7.9,10.8-15.6,16-23.6c8.3-12.7,15.8-26,20.8-40.6c2-5.7,3.3-11.6,3.5-17.6C284.1,32.3,282.5,25.8,279.4,19.8z M236,34.6
				c3.8-1.8,7.9-3.1,12-4.2c4-1,6.1,0.8,5.6,5.2c-0.3,3.2-1.1,6.4-2.2,9.4c-4.1,10.9-10,20.6-16,30.4c-1.8,2.9-3.7,5.8-5.6,8.7
				c-0.6,0.9-19-18.4-30-26C211.4,49.1,223,40.7,236,34.6z"/>
		</g>
	</g>
	<g>
		<path class="st1" d="M182.4,179.5c-15.6,16.7-31.7,32.8-48.6,48.1c2.5,0.3,5.1,0.4,7.7,0.4c41.3,0,74.9-36,74.9-80.4
			c0-2.2-0.1-4.5-0.3-6.7C205.2,154.2,194,167.1,182.4,179.5z"/>
	</g>
	<g>
		<path class="st1" d="M24.5,66.7c0.9-3.5-0.8-5.9-3.2-8.2c-2.5-2.4-4.9-5-7.2-7.6c-0.9-1-1.9-1.3-3.2-1.4c-2.6-0.1-5.1-0.2-7.7-0.6
			c-1.8-0.3-2.9-1.7-3.2-3.5c-0.4-1.8,0-3.5,1.5-4.6c0.7-0.6,1.7-1,2.6-1.1c2.3-0.2,4.7-0.2,7-0.4c0.9-0.1,2-0.5,2.7-1.1
			c3.3-3.3,6.5-6.8,9.7-10.3c0.5-0.5,0.8-1.4,0.8-2.2c0.1-2.2,0-4.5,0-6.7c0.1-3,2.1-5.4,4.6-5.4c2.4-0.1,4.6,2.1,4.9,5
			c0.2,2.6,0.2,5.2,0.4,7.8c0.1,0.7,0.4,1.6,0.9,2.2c3.2,3.4,6.4,6.7,9.7,10c0.5,0.5,1.4,0.8,2.1,0.8c2.1,0.1,4.1,0,6.2,0.1
			c2.8,0.1,5.3,2.5,5.3,5c0.1,2.5-2.5,5-5.4,5.1c-0.7,0-1.4,0.2-2.1,0.1c-3.8-0.7-6.6,0.7-9,3.9c-1.9,2.5-4.4,4.6-6.5,7.1
			c-0.8,0.9-1.3,2.2-1.4,3.4c-0.3,2.3-0.2,4.7-0.4,7.1c-0.2,2.2-2.2,4.1-4.4,4.2c-2.3,0.1-4.2-1.2-4.8-3.4c-0.2-0.8-0.2-1.7-0.3-2.6
			C24.5,68.4,24.5,67.6,24.5,66.7z M37.1,44.5c-0.2-0.3-0.3-0.6-0.6-0.9c-2-2.1-4-4.2-6-6.3c-0.8-0.9-1.6-0.7-2.3,0.1
			C26.1,39.6,24,41.7,22,44c-0.3,0.3-0.3,1.3-0.1,1.6c2,2.1,4.1,4.1,6.1,6.2c0.7,0.7,1.5,0.8,2.2,0c2.1-2.2,4.2-4.3,6.3-6.5
			C36.8,45.1,36.9,44.8,37.1,44.5z"/>
		<path class="st2" d="M37.1,44.5c-0.2,0.3-0.3,0.6-0.5,0.8c-2.1,2.2-4.2,4.3-6.3,6.5c-0.8,0.8-1.5,0.7-2.2,0
			c-2.1-2-4.1-4.1-6.1-6.2c-0.2-0.3-0.2-1.2,0.1-1.6c2-2.2,4.1-4.4,6.2-6.6c0.8-0.8,1.5-1,2.3-0.1c2,2.1,4,4.2,6,6.3
			C36.8,43.9,36.9,44.2,37.1,44.5z"/>
	</g>
	<g>
		<path class="st1" d="M275.9,223.4c0.1,1.9,1.2,2.6,2.6,3.1c6.1,2.1,12.2,4.4,18.3,6.6c0.5,0.2,1.2-0.2,1.8-0.4
			c-0.4-0.5-0.7-1.2-1.2-1.4c-2.5-1-5-1.9-7.5-2.9c-0.4-0.2-0.7-0.8-1.1-1.2c0.5,0,1.1-0.3,1.5-0.1c2.6,0.9,5.2,1.8,7.8,2.7
			c1.5,0.5,2.3,2.1,1.8,3.5c-0.5,1.3-1.8,1.8-3.5,1.2c-5.8-2.1-11.5-4.2-17.3-6.3c-0.6-0.2-1.3-0.4-1.5-0.5c-0.4,2.5-0.7,5-1.2,7.3
			c-0.3,1.2,0.3,1.6,1.1,2.1c4.7,3.2,9.3,6.4,14,9.6c1.1,0.8,2.1,1.7,1.5,3.3c-0.7,1.7-2.1,2.1-3.8,1c-4.1-2.7-8.1-5.6-12.1-8.3
			c-0.1-0.1-0.2-0.2-0.3-0.2c-1-0.7-2-1.8-3-1.9c-0.9,0-1.8,1.1-2.8,1.8c-2.6,1.7-5.5,2.5-9,2.5c1.4,1.7,2.6,3.1,3.8,4.5
			c3.7,4.3,7.4,8.5,11.1,12.8c0.2,0.2,0.3,0.4,0.5,0.5c0.6,0.2,1.2,0.3,1.8,0.5c-0.1-0.6-0.1-1.4-0.4-1.8c-3.7-4.4-7.5-8.7-11.1-13
			c-0.5-0.6-0.6-1.5-0.8-2.2c0.6,0.4,1.3,0.7,1.8,1.2c3.8,4.3,7.6,8.7,11.3,13.1c1.6,1.8,1.2,4-0.9,4.3c-0.8,0.1-1.9-0.4-2.5-1
			c-5.1-5.7-10.1-11.6-15.1-17.4c-0.7-0.9-1.3-1.4-2.6-1c-1.2,0.4-2-0.4-2.6-1.5c-0.4-0.7-0.9-1.5-1.5-2c-5.8-4.5-7.3-13-3.5-19.4
			c0.1-0.1,0.1-0.2,0.2-0.3c0.4-0.3,0.9-0.5,1.4-0.7c0,0.5,0,1-0.1,1.4c-0.6,2-1.7,3.9-1.9,6c-0.7,5.3,1.6,9.4,5.9,12.6
			c1.8-2.7,3.5-5.3,5.1-8c0.2-0.3,0.1-0.9,0-1.4c-0.3-2.2,0.6-3.5,2.5-4.2c0.8-0.3,1.6-0.8,2.1-1.5c1.6-2.2,3-4.6,4.5-6.9
			c-4.2-3.3-10.3-3.4-14.6-0.4c-0.3,0.2-0.5,0.5-0.8,0.6c-0.4,0.1-0.9,0.1-1.3,0.1c0.2-0.4,0.2-1,0.5-1.1c2-1.1,4-2.4,6.1-3
			c3.5-0.9,6.9-0.1,10,1.8c0.3,0.2,0.6,0.5,0.9,0.5c2.2,0,4,0.4,4,3.3c0,0.2,0.8,0.5,1.3,0.7c3.1,1.1,6.2,2.2,9.2,3.4
			c0.5,0.2,0.9,0.9,1.3,1.3c-0.6,0-1.2,0.2-1.7,0C282.2,225.8,279.1,224.6,275.9,223.4z M268.6,235.2c7.1,4.9,13.9,9.7,20.8,14.4
			c0.5,0.3,1.3,0.2,2,0.3c-0.3-0.7-0.5-1.5-1-1.9c-4.1-3-8.3-5.8-12.5-8.7c-2.7-1.9-5.5-3.8-8.3-5.7
			C269.2,234.2,269,234.6,268.6,235.2z M272,239.4c-1.2-0.9-2.3-1.9-3.5-2.4c-1-0.4-2.7-0.5-3.3,0.1c-1.6,1.7-2.7,3.9-4,6
			C264.7,244.1,269.6,242.5,272,239.4z M274.8,235.4c1.4-4.2,1.4-8-0.9-12c-1.2,1.9-2.4,3.7-3.5,5.4c-0.7,1-0.4,3.3,0.6,4
			C272.2,233.6,273.4,234.4,274.8,235.4z M264.8,229.2c-1.4,0.4-2.4,1.3-1.9,2.2c0.8,1.5,2.2,2.6,3.4,3.9c0.8-1.2,1.7-2.4,2.5-3.6
			C267.5,230.8,266.2,230,264.8,229.2z M266.7,228.3c0.1,0.2,0.1,0.5,0.2,0.7c0.6-0.1,1.6,0,1.9-0.4c1.6-2.3,3.1-4.7,4.6-7.1
			c0.2-0.4,0-1,0-1.5c-0.5,0.2-1.3,0.2-1.5,0.5C270,223,268.3,225.7,266.7,228.3z M262.7,234.4c-1.7,2.6-3.3,5-4.9,7.6
			c-0.3,0.5,0,1.3,0,1.9c0.5-0.3,1.3-0.4,1.6-0.9c1.4-2,2.6-4.2,4-6.1C264.3,235.7,264.1,235.1,262.7,234.4z"/>
		<path class="st1" d="M261.2,226c0,1.9-1.3,3.7-2.7,4.1c-0.3,0.1-0.7-0.1-1-0.2c0.1-0.3,0.2-0.7,0.4-1c0.6-1,1.3-1.9,2-2.9
			c0.2-0.3,0.5-0.6,0.8-1C260.8,225.4,261.1,225.8,261.2,226z"/>
		<path class="st1" d="M263,218.7c0.5,0.8,0.9,1.4,1.2,2.1c0,0.1-0.5,0.6-0.6,0.6c-0.6-0.4-1.1-0.9-1.6-1.3
			C262,220,262.4,219.5,263,218.7z"/>
		<path class="st1" d="M254.3,232.2c0.5,0.9,0.9,1.5,1.1,2.1c0,0.1-0.6,0.7-0.7,0.7c-0.6-0.3-1.1-0.8-1.5-1.2
			C253.2,233.7,253.6,233.2,254.3,232.2z"/>
		<path class="st3" d="M268.6,235.2c0.4-0.6,0.7-1,1.1-1.7c2.8,1.9,5.5,3.8,8.3,5.7c4.2,2.9,8.4,5.7,12.5,8.7c0.5,0.4,0.7,1.3,1,1.9
			c-0.7-0.1-1.5,0-2-0.3C282.5,244.9,275.6,240.1,268.6,235.2z"/>
		<path class="st2" d="M272,239.4c-2.4,3.1-7.3,4.7-10.8,3.7c1.3-2,2.4-4.2,4-6c0.5-0.6,2.3-0.4,3.3-0.1
			C269.7,237.5,270.8,238.5,272,239.4z"/>
		<path class="st2" d="M274.8,235.4c-1.4-0.9-2.6-1.7-3.8-2.6c-0.9-0.7-1.2-3-0.6-4c1.1-1.7,2.2-3.5,3.5-5.4
			C276.2,227.4,276.2,231.2,274.8,235.4z"/>
		<path class="st2" d="M264.8,229.2c1.3,0.8,2.7,1.7,4,2.5c-0.8,1.2-1.7,2.4-2.5,3.6c-1.2-1.3-2.6-2.4-3.4-3.9
			C262.4,230.4,263.4,229.6,264.8,229.2z"/>
		<path class="st2" d="M266.3,228.4c1.6-2.5,3.2-5,4.9-7.5c0.2-0.4,1-0.3,1.5-0.5c0,0.5,0.3,1.1,0,1.5c-1.4,2.3-2.8,4.6-4.4,6.8
			c-0.3,0.4-1.2,0.2-1.8,0.4C266.5,228.8,266.4,228.6,266.3,228.4z"/>
		<path class="st2" d="M262.5,234.3c1.3,0.6,1.5,1.3,0.7,2.4c-1.4,1.9-2.5,4-3.9,5.9c-0.3,0.4-1,0.6-1.5,0.8c0-0.6-0.2-1.4,0-1.9
			C259.3,239.2,260.9,236.8,262.5,234.3z"/>
	</g>
	<g>
		<path class="st1" d="M245.3,283.2c0,2.6-2.1,5-4.4,5c-2.4,0-4.8-2.6-4.7-5.2c0-2.5,2.3-4.8,4.6-4.8
			C243.2,278.3,245.3,280.7,245.3,283.2z"/>
		<path class="st1" d="M14.9,122.2c0-2.4,2.3-4.9,4.4-4.9c2.3,0,4.9,2.7,4.8,4.9c0,2.2-2.8,5.2-4.7,5.1
			C17,127.3,14.8,124.8,14.9,122.2z"/>
		<path class="st1" d="M261,179.5c0-2.6,2-4.9,4.4-4.9c2.4,0,4.5,2.2,4.6,4.8c0,2.5-2.1,4.8-4.5,4.9
			C263.1,184.3,261,182.2,261,179.5z"/>
		<path class="st1" d="M142.8,288.4c0-2.5,2.2-4.8,4.6-4.9c2.2,0,4.7,2.5,4.6,4.9c-0.1,2.6-2.2,4.8-4.6,4.8
			C144.8,293.2,142.8,291,142.8,288.4z"/>
	</g>
	<g>
		<g>
			<path class="st1" d="M143,47.4c11.1,0,22,2,32.4,6l5.6,2.1c0.6,0.3,1.2,0.6,1.8,0.9l4.6,2.6c14.8,8.2,27.1,20.2,36,35
				c-1.4,2-2.8,4.1-4.3,6.2c-13.4,19-28.9,38.5-47.5,59.6c-12.8,14.5-26.2,28.6-39.9,42c-11.7,11.5-24.4,22.8-37.8,33.6
				c-4.3-1.5-11.6-7.3-20.2-18c-9.2-11.5-16.3-23.9-18.2-29.8l-0.1-0.2l-0.1-0.2c-4.8-11.8-7.3-24.3-7.6-37.2
				c-0.6-26.8,8.9-52.2,26.5-71.6c17.6-19.3,41.3-30.3,66.7-30.9C141.6,47.4,142.3,47.4,143,47.4 M143,39.7c-0.7,0-1.5,0-2.2,0
				C84.1,41,39.1,90.3,40.4,149.9c0.3,14.2,3.2,27.7,8.2,40.1c4.9,14.8,31.4,53.3,47.4,53.4c14.2-11.4,27.8-23.4,40.8-36.1
				c13.9-13.6,27.3-27.7,40.2-42.4c17-19.2,33.2-39.1,48-60.2c2.4-3.5,4.8-6.9,7.2-10.4c-9.7-17.9-24.1-32.5-41.3-42.1
				c0.1-0.3-11.2-6.1-12.7-6.1c-0.1,0-0.1,0-0.2,0.1C167,42,155.2,39.7,143,39.7L143,39.7z"/>
		</g>
		<path class="st2" d="M45.8,186.2c1.9,4.4,3.9,8.7,5.6,13c0.3,0.7,0,1.9-0.4,2.5c-3.6,5.8-7.5,11.5-11.1,17.4
			c-6.2,10.1-11.8,20.4-15.3,31.9c-1.3,4.4-2.1,8.8-1.7,13.4c0.5,6.1,5.1,10.6,11,10.9c4.9,0.2,9.4-1.1,13.9-2.8
			c10.9-4,20.7-10.2,30.2-16.9c20.1-14,38.5-30.1,56.4-46.9c14.4-13.6,28.4-27.7,41.8-42.3c17.7-19.3,34.6-39.2,50.1-60.4
			c9.4-12.9,18.4-26,25.9-40.2c4-7.7,7.8-15.6,9.6-24.3c0.7-3.1,1.1-6.5,0.8-9.6c-0.6-6.7-5-10.4-11.7-10.7
			c-5.1-0.2-10,1.2-14.7,3.1c-8.5,3.4-16.3,8.3-23.9,13.4c-6.5,4.4-12.8,9.1-19.2,13.7c-1,0.7-1.7,0.8-2.8,0.3
			c-3.2-1.6-6.5-3.1-9.7-4.7c-1.5-0.7-1.7-1.3-0.4-2.4c2.9-2.4,5.8-4.7,8.8-7c8.7-6.7,17.7-13,27.4-18.1c8.9-4.8,18.1-8.4,28.1-9.5
			c15.6-1.7,27.6,9.1,30.1,23.4c1.2,6.9-0.1,13.6-2.3,20.1c-3.1,9.2-7.6,17.8-12.5,26c-11.8,19.9-25.4,38.5-39.8,56.4
			c-12,14.9-24.6,29.3-37.6,43.3c-16.7,20.4-36.7,38.6-57.3,55.9c-14.1,12.4-28.7,24.3-44.2,34.8c-10,6.7-20.2,13.1-31.7,16.9
			c-6.9,2.3-13.9,3.5-21.1,1.5c-11-3.1-18.5-13.7-18.7-25.6c-0.1-9.1,2.4-17.4,5.8-25.6c5.4-12.9,13-24.4,20.4-36.1
			C39,196.2,42.4,191.2,45.8,186.2z"/>
	</g>
	<g>
		<path class="st1" d="M144.9,118.8c-3.6-0.3-7.2-0.1-10.9-0.2c-1.5-0.1-1.9,0.6-1.9,2c0,2.9,0,5.8,0,8.7c0,0,0,0,0,0c0,3,0,6,0,9
			c0,1.3,0.5,1.7,1.7,1.7c3-0.1,6,0.2,9-0.1c2.5-0.2,5.1-0.7,7.4-1.7c4.7-2,6.7-8.7,4.5-13.4C152.7,120.3,149.1,119.1,144.9,118.8z"
			/>
		<path class="st1" d="M141.5,66.5c-41.3,0-74.9,36-74.9,80.4c0,35.5,21.5,65.6,51.2,76.2c5.6-5,11.2-10,16.6-15.2
			c14.4-13.6,28.4-27.7,41.8-42.3c12.7-13.8,25-28,36.6-42.8C203.4,90.2,175,66.5,141.5,66.5z M160,165.9c-0.1-0.1-0.2-0.2-0.4-0.2
			c0.2-0.8,0.4-1.5,0.5-2.3c0.8-5.8-2.6-11.3-8.1-12.8c-2.9-0.7-5.9-0.9-8.9-1.1c-3.1-0.2-6.2,0-9.4-0.1c-1.2,0-1.6,0.4-1.6,1.6
			c0,6.8,0,13.7,0,20.5c0,0.8,0,1.8,1.2,1.7c5.7-0.2,11.4-0.4,17.2-0.7c1,0,2.1-0.5,3.1-0.7c0.1,0.1,0.2,0.2,0.2,0.4
			c-2.4,2.5-4.8,4.9-7.2,7.4c-1.8,1.9-3.7,3.6-5.5,5.5c-1,1.1-2.2,1.5-3.6,1.5c-1.5-0.1-3.5-0.5-4.4,0.4c-0.8,0.8-0.4,2.9-0.4,4.5
			c0,1.3-0.4,2.3-1.3,3.2c-2.8,2.6-5.6,5.3-8.7,8.2c-0.1-0.8-0.2-1.2-0.2-1.6c0-4.2,0-8.5,0-12.7c0-1.4-0.3-2-1.8-2
			c-5.6,0.1-11.1,0-16.7,0c-1.3,0-1.8-0.3-1.8-1.8c0.1-3.4,0-6.7,0-10.1c0-1.3,0.7-1.5,1.8-1.5c2.1,0.1,4.2,0.1,6.3,0
			c2.5-0.1,3.7-1.4,3.9-4c0.1-1.6,0.3-3.3,0.3-4.9c0-12.8,0-25.6,0-38.4c0-1.8-0.2-3.7-0.8-5.4c-0.4-1-1.5-2.2-2.6-2.4
			c-2.3-0.6-4.8-0.7-7.2-0.8c-1.3-0.1-1.7-0.4-1.7-1.9c0.2-2.6,0.2-5.3,0.1-8c-0.1-1.6,0.4-1.9,1.8-1.8c5.8,0.1,11.6,0,17.4,0
			c0.3,0,0.6-0.1,1-0.1c0-1.2,0-2.5,0-3.7c0-4.2-0.1-8.4,0-12.6c0-0.4,0.7-1.1,1.1-1.2c2.3-0.1,4.6,0.2,7,0c1.7-0.1,2.2,0.6,2.2,2.2
			c0,4.1,0,8.3,0,12.4c0,0.9,0,1.8,0,2.9c2.6,0,4.9,0,7.5,0c0-5.2,0.1-10.2,0-15.3c0-2.1-0.1-2.2,2-2.2c2.3,0,4.7,0,7-0.1
			c1.3-0.1,1.5,0.4,1.5,1.7c-0.1,4.9,0,9.8-0.1,14.7c0,1.3,0.7,1.4,1.6,1.5c4.4,0.4,8.6,1.2,12.6,3.1c9.1,4.5,12.3,12.1,10.2,22.1
			c-0.9,4.2-2.4,7.6-7.7,10.9c3.5,1.2,6.9,2.3,9.1,5.9C170.9,154,165.4,160,160,165.9z"/>
		<g>
			<path class="st1" d="M237.2,126.1c0.6,5.5,1,11.1,1.1,17.3c0.4,26.7-9.5,52-27.8,71.2c-18.4,19.3-43.1,30.1-69.5,30.6
				c-3.2,0.1-6.2,0.2-9,0.4c-2.4,0.1-4.7,0.2-6.9,0.3c0.6-0.6,1.3-1.2,1.9-1.7c3.6-3.3,7.4-6.7,11.6-10.2
				c20.7-17.3,39.8-38.6,49.4-49.7c1.8-2.1,4.2-4.8,6.8-7.9C213.8,154.5,228.1,137.7,237.2,126.1 M241.3,107.1
				c-3.7,9.1-45,56-58.7,71.9c-13.3,15.4-31.1,34.2-48.5,48.8c-9.6,8.1-16.5,15.3-26.3,23.1c5.7,2,10.8,2.6,16.1,2.6
				c5.4,0,10.9-0.6,17.4-0.7c58.6-1,105.4-50,104.5-109.6C245.5,130.2,244.2,119.4,241.3,107.1L241.3,107.1z"/>
		</g>
		<path class="st1" d="M220.1,139.4c-0.9,0.9-1.8,1.6-2.7,2.4c-0.9,0.7-1.8,1.1-2.8,1.3c-2,2.6-4.2,5.1-6.6,7.3
			c-0.3,0.2-0.5,0.5-0.8,0.7c-0.3,1-0.9,2-1.9,2.8c-0.3,0.3-0.6,0.5-0.9,0.7c-0.2,0.1-0.4,0.2-0.5,0.3c0,0,0,0-0.1,0
			c0.6,2,0.1,4.3-2.1,5.7c-2.9,1.8-4.9,4.6-7.1,7.1c-0.1,0.1-0.2,0.2-0.4,0.4c-2.7,3.8-5.1,7.7-8.4,11.1c-3.5,3.6-7.4,6.8-11,10.2
			c-0.8,0.7-1.5,1.4-2.3,2.1c0.1,1.2-0.4,2.5-1.6,3.6c-2.3,2.2-4.1,4.8-6.3,7.1c-2,2.1-4.7,3.7-6.4,6.1c-1.1,1.5-2.7,2.5-4.4,2.5
			c-4.9,4.1-9.8,8.4-14.9,12.3c-1.5,2.9-5.4,8.5-7.7,10.6c1.2,0.1,4.4-3.4,5.6-3.2c45,4.2,87.9-35,83.5-83.9
			C220.2,144.1,220.3,141.8,220.1,139.4z"/>
	</g>
</g>
</svg>
