<?xml version="1.0" encoding="utf-8"?>
<!-- Generator: Adobe Illustrator 25.2.0, SVG Export Plug-In . SVG Version: 6.00 Build 0)  -->
<svg version="1.1" id="Layer_1" xmlns="http://www.w3.org/2000/svg" xmlns:xlink="http://www.w3.org/1999/xlink" x="0px" y="0px"
	 viewBox="0 0 302.5 280.1" style="enable-background:new 0 0 302.5 280.1;" xml:space="preserve">
<style type="text/css">
	.st0{fill:#FFFFFF;}
	.st1{fill:url(#SVGID_1_);}
	.st2{fill:#1F1204;}
	.st3{fill:#341D08;}
	.st4{fill:#444444;}
	.st5{fill:#4F1717;}
	.st6{fill:url(#SVGID_2_);}
	.st7{fill:#683C3C;}
	.st8{fill:#999999;}
	.st9{fill:none;stroke:#000000;stroke-miterlimit:10;}
	.st10{fill:none;stroke:#341D08;stroke-width:1.0465;stroke-miterlimit:9.9999;}
	.st11{fill:#1F1104;}
</style>
<g id="Logo">
	<g id="XMLID_1_">
		<g>
			<path class="st0" d="M301.3,130.7c-0.2,0.5-0.5,0.8-0.7,1c-4.9,1.7-8.6,5.6-10.5,10.5c-0.2,0.2-0.5,0.5-0.7,0.7
				c-3,5.9-8.3,10-14.3,12H231l-0.1-0.2c2.5-0.8,4.9-1.9,7.2-3.2c5.1-2.8,9.8-6.4,13.8-10.6c2.6-2.7,4.9-5.7,6.9-8.9
				c2.3-3.6,3.9-7.5,6.3-11c3.2-4.7,7.5-8.3,12.6-10.8c1.8-0.9,1.6-16.7,4.3-6.7c8.5,16,5,22.6,3.4,24.6
				C290.4,123.9,301.3,130.7,301.3,130.7z M285.3,128.1c-0.2,0.2-0.4,0.4-0.6,0.6C284.8,128.7,285,128.5,285.3,128.1z"/>
			<path class="st0" d="M275.1,154.9h0.4c0,68.5-55.6,124.1-124.1,124.1S27.3,223.5,27.3,154.9h0.1h3.4c0.1,0.1,0.3,0.1,0.5,0.1
				s0.4,0,0.5-0.1H72c0,44,35.6,79.5,79.5,79.5s79.5-35.6,79.5-79.5H275.1z"/>
			<linearGradient id="SVGID_1_" gradientUnits="userSpaceOnUse" x1="243.3519" y1="95.8158" x2="210.816" y2="110.1699">
				<stop  offset="0" style="stop-color:#CECECE"/>
				<stop  offset="0.3541" style="stop-color:#C4C4C4"/>
				<stop  offset="0.9541" style="stop-color:#AAAAA9"/>
				<stop  offset="1" style="stop-color:#A8A8A7"/>
			</linearGradient>
			<path class="st1" d="M272.3,83.7c3.8,3.6,0.7,6.8,0.7,6.8s-24.8,31.4-33.2,31.7c-26.9-0.2-23.1,0.1-31.7,7.2
				c-8.6,7.1-29.1,32.5-29.1,32.5l-2.9-2.8l-2.9-2.8c0,0,6.1-5.4,13.1-11.9s14.8-14.1,18.1-18.5c6.7-8.8,7.2-5.1,5.9-31.9
				c-0.1-8.4,30.4-34.4,30.4-34.4s3.1-3.2,6.9,0.4c3.8,3.6,12.4,11.8,12.4,11.8l-0.1,0.1C259.9,71.9,268.5,80.1,272.3,83.7z
				 M250.3,100.9c7-7.3,12.1-13.9,11.3-14.7c-0.8-0.8-7.2,4.6-14.2,11.9s-12.1,13.9-11.3,14.7C236.9,113.6,243.3,108.2,250.3,100.9z
				 M234.1,85.3c7-7.3,12.1-13.9,11.3-14.7c-0.8-0.8-7.1,4.6-14.2,11.9c-7,7.3-12.1,13.9-11.3,14.7
				C220.8,97.9,227.1,92.6,234.1,85.3z M226.3,106.8c11.7-7.8,20.5-19.1,28.9-30.1C244.6,85.7,233.7,95,226.3,106.8z"/>
			<path class="st2" d="M217.5,35.9c0.4,4.1,0,7.9-0.9,12c-0.3,1.4-0.7,2.7-1.1,4.1c-0.5,1.4-1.2,2.8-1.8,4.2
				c-1.1,2.1-2.3,4.2-3.8,6.2c-4.7,6.2-10.2,10.5-16.8,14.5c-10.2,5.8-20.8,9.4-32,11.5v0.1c-6.3,0.9-12.8,0.9-19.2,0
				c-7-1.1-13.6-3.4-20.3-5.9c-6.5-2.4-12.5-5.6-18.4-9.9c-3.3-2.6-6-5.1-8.7-8.2c-3.2-3.7-5.5-7.8-7.1-12.2
				c-0.6-2.2-1.3-4.2-1.7-6.5c-0.1-1.4-0.4-2.8-0.5-4.2c-0.1-1.8-0.1-3.6,0-5.4c0.1-1.7,0.9-3.3,2.4-4.1c0.5-0.3,1-0.5,1.7-0.6
				c1.5-0.3,2.8-0.4,4.3-0.3c1.7,0.1,3.2,0.5,4.8,0.9c6.8,1.9,13.1,3.6,19.8,5.5l0.8,0.1c-0.6,4.3-1,8.4-1.1,11.8
				c-0.1,3.6,0,6.5,0.4,8.1c2.1,9.3,33.1,11.5,33.1,11.5s31-2.2,33.1-11.5c0.4-1.6,0.5-4.5,0.4-8.1l0,0c-0.1-3.4-0.5-7.5-1.1-11.8
				l0.8-0.1c6.3-1.6,12.6-3.4,19.1-5.2c3.9-1.2,8.3-2.3,12.1,0.1c0.2,0.2,0.3,0.5,0.6,0.6C217.1,33.9,217.4,34.9,217.5,35.9z"/>
			<path d="M194.7,108.7c0.4,0.7-1.8,4-2.2,4.7c-1.7,3-3.9,5.7-6.7,7.7c-3.7,2.6-7.4,3-11.8,2.9c-3.7,0-7.9-0.2-11.4-1.5
				c-4-1.6-7.5-3.9-11.2-6.1c-3.6,2.2-7.2,4.5-11.1,6.1c-3.5,1.3-7.7,1.5-11.4,1.5c-4.4,0.1-8.1-0.3-11.8-2.9c-2.8-2-5-4.7-6.7-7.7
				c-0.4-0.7-2.6-4-2.2-4.7c0.4-0.8,1.5,0.7,1.9,1.1c2.5,2.5,5.3,4.3,8.9,3.9c4-0.5,6.7-2.9,9.9-4.9c0,0,5.3-3.3,11.8-4.9
				c2-0.5,4.1-0.5,6,0.2c1.5,0.5,2.3,1.5,3.6,2.3c0.4,0.2,0.8,0.3,1.1,0.2c0.4,0.1,0.8,0,1.2-0.2c1.3-0.8,2.1-1.8,3.6-2.3
				c1.9-0.7,4-0.7,6-0.2c6.5,1.6,11.8,4.9,11.8,4.9c3.2,2,5.9,4.4,9.9,4.9c3.6,0.4,6.4-1.4,8.9-3.9
				C193.2,109.4,194.3,107.9,194.7,108.7z"/>
			<path class="st3" d="M188.8,211.4c0.2,1,0.4,3.9-1.2,5.7l-0.1-0.1c-1.6,1.8-4.6,1.6-5.6,1.5c-0.9-0.1-9-4.3-15.5-10.8
				c-5.2-5.9-9.9-10.9-13.8-14.9c0.2-0.3,0.5-0.5,0.7-0.8c3.2-3.3,5.9-6,7.9-8c0.3-0.3,0.6-0.6,0.9-0.8c4.1,3.8,9.2,8.2,15.2,13.1
				C184.1,202.6,188.6,210.4,188.8,211.4z M183.2,212.8c0.2-5.8-7.5-7.2-7.5-7.2S177.4,213.2,183.2,212.8z"/>
			<path class="st0" d="M184.9,49.5c0.1,3.6,0,6.5-0.4,8.1c-2.1,9.3-33.1,11.5-33.1,11.5s-31-2.2-33.1-11.5
				c-0.4-1.6-0.5-4.5-0.4-8.1h0.4c0,0,29.1,12.6,66.2,0H184.9z"/>
			<path class="st2" d="M184.9,49.5L184.9,49.5h-0.4c-37.1,12.6-66.2,0-66.2,0h-0.4c0.2-3.4,0.5-7.5,1.1-11.8
				c2.2-16.5,7.7-36.4,15.9-36.2c0,0,9.4-2.2,10.3,2.6c2.2,4.8,6.2,4.5,6.2,4.5s4,0.3,6.2-4.5c0.9-4.8,10.3-2.6,10.3-2.6
				c8.2-0.2,13.7,19.7,15.9,36.2C184.4,42,184.7,46.1,184.9,49.5z"/>
			<polygon class="st4" points="179.7,162.6 176.6,165.8 176.5,165.9 173.1,162.5 169.4,158.8 172.5,155.7 173.2,156.3 176.1,159.1 
				179,161.9 			"/>
			<path class="st3" d="M178,167.4l-12.8,12.9c0,0-1.1,1-3.1,2.9l0,0c-3.8-3.5-6.8-6.4-8.8-8.5c-0.3-0.3-0.6-0.6-0.8-0.8
				c2-2.1,3.1-3.3,3.1-3.3l12.8-12.9l1.1,1.2l3.7,3.7l3.4,3.4L178,167.4z"/>
			<path class="st3" d="M162.1,183.2L162.1,183.2c-0.2,0.3-0.5,0.6-0.8,0.9c-2,1.9-4.7,4.6-7.9,8c-0.2,0.3-0.5,0.5-0.7,0.8
				c-0.5-0.5-1.1-1.1-1.6-1.6c-3.6-3.5-6.4-6.2-8.2-7.8c1.3-1.3,2.5-2.4,3.6-3.6c0,0,0-0.1,0.1-0.1c0.2-0.2,0.4-0.4,0.7-0.7
				c2.2-2.2,4-4,5.3-5.3c0.2,0.3,0.5,0.5,0.8,0.8C155.2,176.7,158.1,179.7,162.1,183.2z"/>
			<path class="st5" d="M153.3,192c3.2-3.4,5.9-6,7.9-8C159.2,186,156.5,188.7,153.3,192z"/>
			<path class="st3" d="M151,191.2c0.5,0.5,1,1,1.6,1.6c-3.9,4.1-8.5,9.2-13.6,15.3c-6.6,6.9-14.6,11.4-15.6,11.6s-4,0.4-5.7-1.3
				v-0.1c-1.7-1.7-1.5-4.7-1.3-5.7c0.1-1,4.6-9.1,11.4-15.7c5.9-5,10.9-9.6,15-13.5C144.6,185.1,147.5,187.7,151,191.2z M121.9,214
				c6,0.2,7.6-7.6,7.6-7.6S121.7,208.1,121.9,214z"/>
			<path class="st3" d="M149.8,171.2c0,0,0.9,0.9,2.5,2.6c-1.3,1.4-3,3.2-5.2,5.3c-0.2,0.2-0.4,0.4-0.7,0.7c0,0,0,0-0.1,0.1
				c-1.1,1.1-2.4,2.3-3.7,3.6c-1.6-1.5-2.6-2.2-2.6-2.2L127.2,169l1.3-1.4v-0.1l0.1,0.1l3.5-3.6l3.4-3.5l1.4-1.5L149.8,171.2z"/>
			<path class="st5" d="M142.8,183.4c1.8,1.7,4.7,4.3,8.2,7.8C147.5,187.7,144.6,185.1,142.8,183.4z"/>
			<polygon class="st4" points="135.6,160.4 132.2,163.9 128.7,167.5 128.6,167.4 132.1,163.9 			"/>
			<polygon class="st4" points="135.6,160.4 132.1,163.9 128.6,167.4 125.6,164.5 126.3,163.8 129,160.9 131.8,158.1 132.4,157.4 
							"/>
			<linearGradient id="SVGID_2_" gradientUnits="userSpaceOnUse" x1="66.1377" y1="98.7467" x2="116.3769" y2="160.9476">
				<stop  offset="0" style="stop-color:#CECECE"/>
				<stop  offset="8.630157e-03" style="stop-color:#CCCCCC"/>
				<stop  offset="0.123" style="stop-color:#BCBCBC"/>
				<stop  offset="0.2643" style="stop-color:#B1B1B0"/>
				<stop  offset="0.4623" style="stop-color:#AAAAA9"/>
				<stop  offset="1" style="stop-color:#A8A8A7"/>
			</linearGradient>
			<path class="st6" d="M131.8,158.1l-2.8,2.8l-2.7,2.9c-11.5-12.4-22.9-24.9-35.2-36.5c-0.9-0.8-1.8-1.7-2.8-2.3
				c-1.6-0.9-3.6-1.6-5.3-2c-2.1-0.6-4.3-0.7-6.3-1.3c-5.6-1.4-10.6-3.8-14.4-8.3c-2.4-2.9-4.2-6.1-6.4-9.2
				c-1.3-1.9-2.8-3.7-4.3-5.4C46.2,92.5,40.5,85.9,34,80.9c11.3,8.3,22.9,17.6,30.8,29.2c5.1,7.4,13.2,3.5,13.9,2.6h0.2
				c1-1.2,4.1-9-3.3-13.7c-12-7.5-21.7-18.7-30.4-29.6c5.3,6.3,12.1,11.7,18.6,16.7c1.8,1.5,3.7,2.8,5.6,4.1c3.1,2,6.4,3.7,9.4,6
				c4.7,3.5,7.2,8.4,8.9,14c0.6,2.1,0.9,4.3,1.5,6.3c0.6,1.7,1.3,3.7,2.3,5.2c0.7,1,1.5,1.9,2.4,2.7
				C105.9,136.3,118.9,147.2,131.8,158.1z"/>
			<path class="st7" d="M119,37.7c-0.6,4.3-0.9,8.4-1.1,11.8C118,46.1,118.4,42,119,37.7z"/>
			<path class="st0" d="M72,154.8v0.1H31.8c-0.1,0.1-0.3,0.1-0.5,0.1s-0.4,0-0.5-0.1h-3.4c-6-2-11.3-6.1-14.3-12
				c-0.2-0.2-0.5-0.5-0.7-0.7c-1.9-4.9-5.6-8.8-10.5-10.5c-0.2-0.2-0.5-0.5-0.7-1c0,0,10.9-6.8,15.9-2.6c-1.6-1.9-5.2-8.6,3.4-24.6
				c2.7-10,2.5,5.8,4.3,6.7c5.1,2.5,9.4,6.1,12.6,10.8c2.4,3.5,4,7.4,6.3,11c2,3.2,4.3,6.2,6.9,8.9c4,4.2,8.7,7.8,13.8,10.6
				C66.8,152.8,69.3,154,72,154.8z M17.8,128.7c-0.2-0.2-0.4-0.4-0.6-0.6C17.5,128.5,17.7,128.7,17.8,128.7z"/>
			<path class="st8" d="M17.2,128.1c0.2,0.2,0.4,0.4,0.6,0.6C17.7,128.7,17.5,128.5,17.2,128.1z"/>
		</g>
		<g>
			<path class="st9" d="M231,154.9l-0.1-0.2c2.5-0.8,4.9-1.9,7.2-3.2c5.1-2.8,9.8-6.4,13.8-10.6c2.6-2.7,4.9-5.7,6.9-8.9
				c2.3-3.6,3.9-7.5,6.3-11c3.2-4.7,7.5-8.3,12.6-10.8c1.8-0.9,1.6-16.7,4.3-6.7c8.5,16,5,22.6,3.4,24.6c5-4.2,15.9,2.6,15.9,2.6
				c-0.2,0.5-0.5,0.8-0.7,1c-4.9,1.7-8.6,5.6-10.5,10.5c-0.2,0.2-0.5,0.5-0.7,0.7c-3,5.9-8.3,10-14.3,12"/>
			<path class="st9" d="M72,154.9c0,44,35.6,79.5,79.5,79.5s79.5-35.6,79.5-79.5h44.1h0.4c0,68.5-55.6,124.1-124.1,124.1
				S27.3,223.5,27.3,154.9h0.1"/>
			<path class="st9" d="M27.4,154.9c-6-2-11.3-6.1-14.3-12c-0.2-0.2-0.5-0.5-0.7-0.7c-1.9-4.9-5.6-8.8-10.5-10.5
				c-0.2-0.2-0.5-0.5-0.7-1c0,0,10.9-6.8,15.9-2.6c-1.6-1.9-5.2-8.6,3.4-24.6c2.7-10,2.5,5.8,4.3,6.7c5.1,2.5,9.4,6.1,12.6,10.8
				c2.4,3.5,4,7.4,6.3,11c2,3.2,4.3,6.2,6.9,8.9c4,4.2,8.7,7.8,13.8,10.6c2.4,1.3,4.9,2.5,7.6,3.3v0.1H31.8
				c-0.1,0.1-0.3,0.1-0.5,0.1s-0.4,0-0.5-0.1L27.4,154.9L27.4,154.9z"/>
		</g>
	</g>
</g>
<g id="XMLID_2_">
	<g>
		<polygon class="st3" points="164.5,179.6 148.4,195.5 139.8,187.1 156,171.2 		"/>
	</g>
	<g>
		<polygon class="st10" points="139.8,187.1 156,171.2 164.5,179.6 148.4,195.5 		"/>
	</g>
</g>
<g>
	<g>
		<path class="st11" d="M60.1,172.8c0.2,1.7,0,3.3-0.7,4.8s-1.8,2.4-3.4,2.8c-1.4,0.3-2.7-0.1-4-1.2c-1.3-1.1-2.1-2.8-2.4-4.8
			c-0.3-2,0-3.8,0.9-5.3c0.9-1.6,2.1-2.4,3.5-2.5c1.5-0.1,2.8,0.5,3.9,1.8C59.2,169.5,59.8,171,60.1,172.8z"/>
		<path class="st11" d="M52.4,207.7c-1.2-2.5-1.7-3.8-2.7-6.5c2.8-1.2,4.2-1.8,7.1-3c0.9,2.5,1.5,3.7,2.5,6
			c-1.6,1.6-1.8,3.5-0.9,5.4c0.7,1.4,1.5,1.8,2.4,1.3c0.5-0.3,0.7-0.7,0.8-1.4s0-2-0.2-4c-0.2-2.5-0.2-4.4,0-5.6
			c0.1-1.2,0.6-2.3,1.3-3.4c0.7-1.1,1.6-1.8,2.7-2.3c2.1-0.9,3.9-0.8,5.7,0.1c1.7,0.9,3,2.2,3.9,4.1c0.9,1.9,1.2,3.7,0.9,5.6
			c0.5-0.3,0.8-0.5,1.3-0.8c1.1,1.9,1.6,2.8,2.8,4.5c-2.3,1.6-3.4,2.3-5.6,3.9c-1.2-1.9-1.8-2.8-3-4.8c1.3-1.6,1.5-3.1,0.7-4.6
			c-0.6-1.1-1.3-1.4-2.2-0.9c-0.4,0.2-0.7,0.6-0.7,1c-0.1,0.4-0.1,1.7,0.1,3.8c0.2,2.8,0.4,4.8,0.4,5.8c0,0.5-0.1,1.1-0.2,1.8
			s-0.3,1.3-0.6,1.8c-0.5,1.2-1.3,2.2-2.4,3c-1.6,1.2-3.5,1.4-5.7,0.7s-4-2.4-5.4-4.9c-1.3-2.3-1.8-4.9-1.6-7.4
			C53.2,207.3,52.9,207.5,52.4,207.7z"/>
		<path class="st11" d="M72,236.2c-4-4-5.8-6.2-9.3-10.9c1.7-1.3,2.5-1.9,4.2-3.2c0.5,0.6,0.7,1,1.2,1.6c2-1.5,2.9-2.3,4.9-3.8
			c-0.5-0.6-0.7-0.9-1.1-1.5c1.7-1.3,2.5-1.9,4.2-3.2c2.6,3.5,3.9,5.1,6.8,8.2c-3.3,3.2-5,4.8-8.4,7.9c0.5,0.5,0.7,0.7,1.1,1.2
			C74.3,234,73.5,234.7,72,236.2z M80.5,213.2c0.7-0.6,1.6-0.6,2.6-0.3s1.9,1,2.7,2c0.8,1,1.3,2,1.4,2.9c0.1,1-0.1,1.8-0.7,2.3
			c-0.7,0.6-1.5,0.8-2.5,0.5s-1.9-0.9-2.8-2c-0.9-1-1.4-2.1-1.6-3.1C79.4,214.6,79.7,213.8,80.5,213.2z"/>
		<path class="st11" d="M86.1,248.2c-5.1-3.6-7.5-5.5-12.1-9.9c1.5-1.5,2.2-2.3,3.7-3.8c0.7,0.7,1.1,1,1.8,1.7
			c1.7-1.8,2.5-2.7,4.2-4.6c-0.7-0.6-1-0.9-1.7-1.6c1.5-1.5,2.2-2.3,3.7-3.8c3.2,3,4.8,4.4,8.3,7c-0.5,0.7-0.8,1-1.3,1.7
			c2.7,0,5,0.6,7.1,1.9c1.8,1.1,2.9,2.4,3.2,4c0.3,1.5-0.1,3.5-1.4,5.7c-0.8,1.5-1.3,2.2-2.1,3.7c0.8,0.4,1.2,0.6,2,1
			c-1,1.9-1.5,2.8-2.5,4.6c-4.4-2.2-6.6-3.5-10.8-6.3c1.7-2.4,2.5-3.7,4.2-6.1c0.9-1.3,1.4-2.3,1.5-2.9c0-0.6-0.3-1.1-1-1.6
			s-1.5-0.7-2.7-0.8c-1.3,1.7-1.9,2.5-3.2,4.2c0.9,0.6,1.3,1,2.2,1.6C88,245.6,87.4,246.5,86.1,248.2z"/>
		<path class="st11" d="M120.2,256.9c2.5,1.3,3.8,2,6.5,3.1c-1,1.7-2.7,2.8-4.9,3.3c-2.3,0.5-5,0.3-7.9-0.7
			c-3.9-1.3-6.6-3.3-8.1-5.6c-1.5-2.4-1.5-4.7-0.3-7.1c1.1-2.3,3-3.7,5.4-4.5c2.4-0.7,4.9-0.6,7.5,0.3c2.2,0.8,3.8,1.7,4.8,3
			c0.1-0.4,0.2-0.6,0.3-1.1c2,0.6,3,0.8,5.1,1.3c-0.7,2.8-1,4.1-1.7,6.9c-2.2-0.5-3.3-0.8-5.5-1.4c-0.1-2-0.9-3.2-2.4-3.7
			c-1-0.3-2-0.2-2.8,0.3c-0.9,0.6-1.5,1.4-2,2.5c-0.5,1.2-0.5,2.3-0.1,3.2c0.4,0.9,1.1,1.6,2.1,1.9
			C117.9,259.2,119.2,258.6,120.2,256.9z"/>
		<path class="st11" d="M145.1,262.6c3.2,0.5,4.8,0.7,8,1c-0.3,0.7-0.8,1.4-1.5,2s-1.5,1.1-2.4,1.5c-1.9,0.9-4.3,1.2-7,1
			c-4.6-0.3-7.9-1.6-9.8-3.6c-1.9-1.9-2.6-4.2-2-6.7c0.5-2.5,2-4.3,4.2-5.7c2.2-1.3,4.9-1.8,8.1-1.6c3.1,0.3,5.6,1.1,7.6,2.7
			c2,1.6,3.1,4,3.3,7.2c-5.7,0.1-8.6,0-14.3-0.6c-0.3,2.7,0.7,4.1,3,4.3C143.5,264.4,144.5,263.8,145.1,262.6z M139.5,257.8
			c2.1,0.2,3.1,0.3,5.2,0.4c0-0.3,0.1-0.5,0.1-0.6c0.1-0.9-0.1-1.7-0.6-2.3c-0.4-0.6-1-0.9-1.8-1s-1.4,0.2-1.9,0.8s-0.8,1.4-0.9,2.3
			C139.5,257.6,139.5,257.7,139.5,257.8z"/>
		<path class="st11" d="M182.4,256c2.1-0.6,3.1-1,5.1-1.7c1,2.8,1.5,4.2,2.4,7.1c-8.4,3-12.8,4-21.6,5.3c-0.1-0.5-0.2-0.7-0.2-0.7
			c-0.4-2.2-0.1-4.2,0.6-6.1c0.4-1,0.9-2,1.7-3c0.7-1,1.7-2.1,2.7-3.3c1.8-2,2.8-3.4,3.2-4.2s0.5-1.6,0.3-2.3s-0.6-1.2-1.1-1.5
			s-1.1-0.4-1.9-0.2c-1.6,0.4-2.2,1.6-1.7,3.8c-2.4,0.4-3.6,0.6-6,0.9c-0.3-2.7,0.2-4.7,1.6-6.1c1.3-1.4,3.1-2.3,5.4-2.9
			c2.5-0.6,4.7-0.6,6.7,0.1c2,0.7,3.4,2,4.2,4c0.5,1.3,0.5,2.6,0,4s-1.8,3.1-4.1,5.1c-1.8,1.6-3.1,2.7-3.7,3.4
			c-0.6,0.7-1.1,1.5-1.3,2.2c3.3-0.7,4.9-1.1,8.1-2.1C182.7,257.2,182.6,256.8,182.4,256z"/>
		<path class="st11" d="M190.3,248.4c-1.6-3.6-1.8-6.7-1-9.4s2.3-4.6,4.5-5.8c2.3-1.3,4.8-1.5,7.6-0.7s5.4,2.6,7.7,5.7
			c2.4,3.2,3.3,6.3,2.5,9.4c-0.7,3-2.6,5.5-5.5,7c-3,1.6-6.1,1.9-9.1,0.8C194,254.2,191.8,251.8,190.3,248.4z M197.7,245
			c1.4,2.6,2.6,4.3,3.5,4.8c0.9,0.6,1.7,0.7,2.5,0.2c0.8-0.4,1.1-1.2,1-2.3c-0.1-1-0.9-2.8-2.4-5.3c-1.6-2.6-2.8-4.2-3.7-4.7
			c-0.8-0.5-1.6-0.6-2.2-0.3c-0.6,0.3-0.9,1-0.9,2C195.5,240.5,196.2,242.3,197.7,245z"/>
		<path class="st11" d="M212.2,235.8c-2.4-3.1-3.5-6.1-3.4-9s1-5.1,2.9-7s4.3-2.8,7.2-2.8s5.9,1,8.9,3.4c3.1,2.5,4.8,5.3,4.9,8.5
			c0.1,3.2-1.1,6.1-3.5,8.5c-2.5,2.4-5.4,3.5-8.6,3.3C217.3,240.5,214.6,238.8,212.2,235.8z M218.5,230.5c2.1,2.2,3.6,3.5,4.6,3.8
			s1.9,0.2,2.5-0.5c0.7-0.6,0.8-1.5,0.4-2.5c-0.4-1-1.6-2.5-3.7-4.5c-2.2-2.1-3.8-3.3-4.8-3.6s-1.7-0.2-2.2,0.3s-0.6,1.3-0.3,2.2
			C215.2,226.7,216.4,228.3,218.5,230.5z"/>
		<path class="st11" d="M233.2,219.9c1.5-2.4,2.2-3.6,3.5-6.2c2.2,1.3,4.1,0.8,5.4-1.6c0.6-1,0.8-2,0.6-2.7
			c-0.2-0.8-0.7-1.3-1.3-1.7c-1.7-0.9-3.3,0-4.8,2.5c-1.3-0.8-2-1.2-3.3-2c0.4-0.8,0.6-1.6,0.6-2.5s-0.5-1.6-1.3-2
			c-0.6-0.4-1.3-0.4-1.9-0.2c-0.6,0.2-1.1,0.7-1.5,1.4c-0.8,1.5-0.5,2.7,0.9,3.8c-1.5,2.3-2.3,3.4-4,5.5c-1.9-1.5-2.7-3.4-2.8-5.4
			c0-2.1,0.7-4.3,2.1-6.8c1.5-2.7,3-4.6,4.9-5.5c1.8-0.9,3.6-1.1,5.3-0.3c1,0.5,1.8,1.2,2.3,2.3s0.7,2.3,0.5,3.6
			c1-1.4,2.1-2.3,3.3-2.7c1.3-0.5,2.6-0.5,3.9,0.1c2.1,0.9,3.4,2.7,3.6,5.5c0.2,2.8-0.6,6.1-2.4,9.5c-1.9,3.5-4.1,5.7-6.5,6.7
			C237.9,221.9,235.5,221.5,233.2,219.9z"/>
		<path class="st11" d="M242,172.8c0.2-1.7,0.9-3.2,2-4.5s2.4-1.9,4-1.8c1.4,0.1,2.6,0.9,3.5,2.5c0.9,1.5,1.2,3.4,0.9,5.5
			c-0.3,2-1.1,3.6-2.3,4.7c-1.3,1.2-2.6,1.5-4.1,1.2c-1.4-0.3-2.5-1.3-3.3-2.7C242,176.2,241.7,174.6,242,172.8z"/>
	</g>
</g>
</svg>
