<?xml version="1.0" encoding="utf-8"?>
<!-- Generator: Adobe Illustrator 25.2.0, SVG Export Plug-In . SVG Version: 6.00 Build 0)  -->
<svg version="1.1" id="Logo" xmlns="http://www.w3.org/2000/svg" xmlns:xlink="http://www.w3.org/1999/xlink" x="0px" y="0px"
	 viewBox="0 0 170 80" style="enable-background:new 0 0 170 80;" xml:space="preserve">
<style type="text/css">
	.st0{fill:#FFFFFF;}
	.st1{fill:none;}
	.st2{fill:#071A52;}
</style>
<path id="Logo_1_" class="st0" d="M170,71.4V28c0-1-0.1-2-0.3-3c-0.3-1.7-0.9-3.8-1.8-6c-5.3-12.5-17-16.7-20.7-17.8
	c-1.3-0.4-7.8-2.2-15.8-0.5c-4.2,0.9-7.2,2.4-8.5,3.1c-3.3,1.8-7,3.8-10,8.4c-3,4.7-3.7,9.7-3.9,11.9c0,0,0,0,0,0
	c-0.1,0.6-0.8,0.8-1.1,0.3c-0.6-1.1-1.3-2.3-2.2-3.6c-1.6-2.3-6-8.2-13-11.8c-7-3.6-17.2-5.3-27.1,0c-9.1,4.9-13.4,13.3-15,16.9
	c-0.2,0.4-0.6,0.5-0.9,0.2c-0.3-0.3-0.7-0.7-1.1-1.1c-11.2-9.9-27.8-3.5-28.8-3.1c-3.1,1.2-9.6,3.9-14.5,11.3
	C1.3,39.2,0.4,45,0.3,46.1c-1.2,8.4,1.5,14.9,2.3,16.8c5,11.7,15.9,15.6,20,16.7c0.9,0.2,1.8,0.3,2.7,0.3h2.2h134.8
	C166.6,80,170,76.1,170,71.4z"/>
<g>
	<g>
		<rect x="25" y="29.5" class="st1" width="120" height="36.3"/>
		<path class="st2" d="M42.3,62.5c-2.9,0-5.5-0.7-7.8-2c-2.3-1.3-4.1-3.2-5.4-5.6c-1.3-2.4-1.9-5.1-1.9-8.2c0-2.2,0.4-4.3,1.1-6.2
			c0.8-1.9,1.8-3.6,3.2-5c1.4-1.4,3-2.5,4.8-3.3c1.8-0.8,3.8-1.2,6-1.2c1.4,0,2.9,0.2,4.3,0.7c1.4,0.5,2.7,1.1,3.9,1.9
			s2.2,1.7,2.9,2.7L51,38.8c-1.1-1.3-2.4-2.4-4-3.2c-1.6-0.8-3.1-1.2-4.7-1.2c-2.2,0-4.2,0.5-5.9,1.6c-1.7,1.1-3.1,2.5-4.1,4.3
			c-1,1.8-1.5,3.9-1.5,6.3c0,2.4,0.5,4.6,1.5,6.4c1,1.9,2.4,3.3,4.2,4.3c1.8,1,3.9,1.5,6.2,1.5c1.6,0,3.2-0.3,4.7-1
			c1.5-0.7,2.7-1.5,3.6-2.6l1.8,2.9c-0.7,0.8-1.6,1.5-2.8,2.2c-1.1,0.6-2.4,1.1-3.7,1.5C45,62.3,43.6,62.5,42.3,62.5z"/>
		<path class="st2" d="M58.1,62.1V29.5h3.3v32.6H58.1z"/>
		<path class="st2" d="M77.7,62.5c-2.3,0-4.3-0.5-6-1.6c-1.8-1-3.2-2.5-4.2-4.3c-1-1.8-1.5-3.9-1.5-6.2c0-2.3,0.5-4.3,1.5-6.1
			c1-1.8,2.4-3.2,4.2-4.2c1.8-1,3.8-1.5,6-1.5c2.3,0,4.3,0.5,6,1.5c1.8,1,3.2,2.4,4.2,4.2c1,1.8,1.5,3.8,1.5,6.1
			c0,2.3-0.5,4.4-1.5,6.2c-1,1.8-2.4,3.2-4.2,4.3C81.9,62,79.9,62.5,77.7,62.5z M77.7,59.3c1.6,0,3-0.4,4.3-1.1
			c1.2-0.8,2.2-1.8,2.9-3.1c0.7-1.3,1.1-2.9,1.1-4.6c0-1.7-0.4-3.2-1.1-4.5c-0.7-1.3-1.7-2.3-2.9-3.1c-1.2-0.8-2.7-1.1-4.3-1.1
			c-1.6,0-3.1,0.4-4.3,1.1c-1.3,0.8-2.2,1.8-2.9,3.1c-0.7,1.3-1.1,2.8-1.1,4.5c0,1.7,0.4,3.2,1.1,4.6c0.7,1.3,1.7,2.4,2.9,3.1
			C74.6,59,76.1,59.3,77.7,59.3z"/>
		<path class="st2" d="M102.4,62.5c-2.6,0-4.7-0.8-6.1-2.4c-1.4-1.6-2.1-3.9-2.1-7V39.1h3.4v13.4c0,4.7,1.9,7,5.8,7
			c1.3,0,2.4-0.3,3.4-0.9c1-0.6,1.8-1.3,2.4-2.3c0.6-1,0.9-2.1,0.9-3.3V39.1h3.3v23h-3.3l-0.1-4c-0.7,1.3-1.8,2.3-3.2,3.1
			C105.4,62.1,103.9,62.5,102.4,62.5z"/>
		<path class="st2" d="M129.2,62.5c-2.1,0-4-0.5-5.7-1.5c-1.7-1-3-2.4-3.9-4.2c-1-1.8-1.4-3.9-1.4-6.2c0-2.3,0.5-4.3,1.5-6.1
			s2.3-3.2,3.9-4.3c1.6-1,3.5-1.6,5.5-1.6c1.8,0,3.4,0.4,4.9,1.2c1.5,0.8,2.6,1.8,3.5,3V29.5h3.3v32.6h-3.3l-0.1-3.9
			c-0.7,1.2-1.8,2.2-3.3,3.1C132.6,62.1,131,62.5,129.2,62.5z M129.7,59.4c1.5,0,2.9-0.4,4.1-1.1c1.2-0.8,2.1-1.8,2.8-3.1
			c0.7-1.3,1-2.9,1-4.6c0-1.7-0.3-3.3-1-4.6c-0.7-1.3-1.6-2.4-2.8-3.1c-1.2-0.8-2.6-1.1-4.1-1.1c-1.6,0-2.9,0.4-4.1,1.1
			c-1.2,0.8-2.1,1.8-2.8,3.1c-0.7,1.3-1,2.9-1,4.6c0,1.7,0.3,3.2,1,4.6c0.7,1.3,1.6,2.4,2.8,3.2C126.7,59,128.1,59.4,129.7,59.4z"/>
	</g>
	<g id="Master">
		<path class="st2" d="M122.5,73.5v-7.2h1.4l2.3,3.6l2.3-3.6h1.4v7.2h-1.5V71c0-0.4,0-0.8,0-1.2c0-0.4,0-0.7,0.1-1l-1.9,2.9h-0.7
			l-1.9-2.8c0,0.3,0.1,0.6,0.1,1c0,0.4,0,0.7,0,1.2v2.5H122.5z"/>
		<path class="st2" d="M133.8,73.6c-0.5,0-0.9-0.1-1.3-0.4s-0.7-0.6-0.9-1c-0.2-0.4-0.3-0.9-0.3-1.4c0-0.6,0.1-1,0.3-1.5
			c0.2-0.4,0.5-0.8,0.9-1c0.4-0.2,0.8-0.4,1.3-0.4c0.4,0,0.8,0.1,1.1,0.2c0.3,0.2,0.5,0.4,0.7,0.6v-0.7h1.5v5.4h-1.5v-0.7
			c-0.2,0.2-0.5,0.4-0.8,0.6C134.5,73.5,134.2,73.6,133.8,73.6z M134.2,72.4c0.4,0,0.8-0.1,1.1-0.4s0.4-0.7,0.4-1.2
			c0-0.5-0.1-0.9-0.4-1.2c-0.3-0.3-0.6-0.4-1.1-0.4c-0.4,0-0.8,0.1-1,0.4c-0.3,0.3-0.4,0.7-0.4,1.2c0,0.5,0.1,0.9,0.4,1.2
			C133.4,72.2,133.8,72.4,134.2,72.4z"/>
		<path class="st2" d="M140.6,73.6c-0.5,0-1-0.1-1.4-0.2s-0.7-0.4-1-0.7l0.9-0.7c0.2,0.2,0.5,0.4,0.7,0.5c0.3,0.1,0.5,0.1,0.8,0.1
			c0.2,0,0.4,0,0.5-0.1c0.1-0.1,0.2-0.2,0.2-0.4c0-0.2-0.1-0.3-0.2-0.4c-0.1-0.1-0.4-0.2-0.9-0.3c-0.7-0.2-1.2-0.4-1.5-0.7
			c-0.3-0.3-0.4-0.6-0.4-1c0-0.3,0.1-0.6,0.3-0.8c0.2-0.2,0.5-0.4,0.8-0.6c0.3-0.1,0.7-0.2,1.1-0.2c0.4,0,0.9,0.1,1.3,0.2
			s0.7,0.4,1,0.6l-0.8,0.8c-0.2-0.2-0.4-0.3-0.7-0.4c-0.3-0.1-0.5-0.2-0.7-0.2c-0.5,0-0.8,0.2-0.8,0.5c0,0.2,0.1,0.3,0.2,0.4
			c0.1,0.1,0.5,0.2,1,0.3c0.7,0.2,1.2,0.4,1.4,0.7c0.2,0.2,0.4,0.6,0.4,1c0,0.3-0.1,0.6-0.3,0.9s-0.5,0.5-0.8,0.6
			C141.4,73.5,141,73.6,140.6,73.6z"/>
		<path class="st2" d="M144.5,73.5v-4.2h-1.1v-1.3h1.1v-1.4h1.5v1.4h1.2v1.3h-1.2v4.2H144.5z"/>
		<path class="st2" d="M150.7,73.6c-0.6,0-1.1-0.1-1.6-0.4c-0.5-0.2-0.8-0.6-1.1-1c-0.3-0.4-0.4-0.9-0.4-1.4c0-0.6,0.1-1.1,0.4-1.5
			c0.2-0.4,0.6-0.8,1-1c0.4-0.2,0.9-0.4,1.5-0.4c0.5,0,1,0.1,1.4,0.4c0.4,0.2,0.7,0.6,0.9,1c0.2,0.4,0.3,0.9,0.3,1.4l0,0.4h-4.1
			c0.1,0.4,0.3,0.7,0.6,0.9c0.3,0.2,0.7,0.3,1.2,0.3c0.3,0,0.5,0,0.7-0.1c0.2-0.1,0.4-0.2,0.7-0.4l0.7,0.9c-0.3,0.3-0.7,0.5-1.1,0.6
			C151.5,73.5,151.1,73.6,150.7,73.6z M150.6,69.2c-0.8,0-1.3,0.3-1.5,1h2.7v0c0-0.3-0.1-0.5-0.4-0.7
			C151.2,69.3,150.9,69.2,150.6,69.2z"/>
		<path class="st2" d="M154.4,73.5v-5.4h1.4l0,0.9c0.2-0.3,0.4-0.5,0.7-0.7c0.3-0.2,0.6-0.3,1-0.3c0.1,0,0.2,0,0.4,0
			c0.1,0,0.2,0,0.3,0.1l-0.4,1.5c-0.1,0-0.2-0.1-0.3-0.1s-0.2,0-0.4,0c-0.4,0-0.6,0.1-0.9,0.3c-0.2,0.2-0.4,0.5-0.4,0.9v2.8H154.4z"
			/>
	</g>
</g>
<g>
</g>
<g>
</g>
<g>
</g>
<g>
</g>
<g>
</g>
<g>
</g>
<g>
</g>
<g>
</g>
<g>
</g>
<g>
</g>
<g>
</g>
<g>
</g>
<g>
</g>
<g>
</g>
<g>
</g>
</svg>
