<?xml version="1.0" encoding="utf-8"?>
<!-- Generator: Adobe Illustrator 25.2.0, SVG Export Plug-In . SVG Version: 6.00 Build 0)  -->
<svg version="1.1" xmlns="http://www.w3.org/2000/svg" xmlns:xlink="http://www.w3.org/1999/xlink" x="0px" y="0px"
	 viewBox="0 0 415.4 152.9" style="enable-background:new 0 0 415.4 152.9;" xml:space="preserve">
<style type="text/css">
	.st0{display:none;}
	.st1{fill:#E7EFC2;}
	.st2{fill:#306B1B;}
	.st3{fill:#B2D659;}
	.st4{fill:#BEDC70;}
	.st5{fill:#B7D963;}
	.st6{fill:#B7D965;}
	.st7{fill:#E8F4C7;}
	.st8{fill:#EBF7CF;}
	.st9{fill:#B9DA68;}
	.st10{fill:#BEDC71;}
	.st11{fill:#CAE38A;}
	.st12{fill:#BDDC6F;}
	.st13{fill:#B8D965;}
	.st14{fill:#E9F5CB;}
	.st15{fill:#DEEFB3;}
	.st16{fill:#DDEEB1;}
	.st17{fill:#CAE38B;}
	.st18{fill:#D4E99F;}
	.st19{fill:#BFDD74;}
	.st20{fill:#BDDC6E;}
	.st21{fill:#C9E388;}
	.st22{fill:#D9ECA9;}
	.st23{fill:#C7E183;}
	.st24{fill:#D7EAA4;}
	.st25{fill:#CEE591;}
	.st26{fill:#D5EAA0;}
	.st27{fill:#DAECAB;}
	.st28{fill:#CBE48B;}
	.st29{fill:#B9DA67;}
	.st30{fill:#CBE48D;}
	.st31{fill:#E6F4C4;}
	.st32{fill:#CFE796;}
	.st33{fill:#BFDE74;}
	.st34{fill:#D6EBA5;}
	.st35{fill:#BBDB6C;}
	.st36{fill:#BCDC6D;}
	.st37{fill:#C2DF79;}
	.st38{fill:#CEE592;}
	.st39{fill:#CCE590;}
	.st40{fill:#E5F3C2;}
	.st41{fill:#BFDE75;}
	.st42{fill:#DBEDAC;}
	.st43{fill:#BADA6A;}
	.st44{fill:#C4E07F;}
	.st45{fill:#DCEEB0;}
	.st46{fill:#E8F5C9;}
	.st47{fill:#D2E89B;}
	.st48{fill:#CEE692;}
	.st49{fill:#CBE48C;}
	.st50{fill:#CEE693;}
	.st51{fill:#CDE591;}
	.st52{fill:#C6E182;}
	.st53{fill:#D8ECA8;}
	.st54{fill:#C3E07D;}
	.st55{fill:#D7EBA4;}
	.st56{fill:#BEDD71;}
	.st57{fill:#CFE696;}
	.st58{fill:#CFE797;}
	.st59{fill:#E6F4C6;}
	.st60{fill:#CDE590;}
	.st61{fill:#CFE693;}
	.st62{fill:#DCEEAF;}
	.st63{fill:#E0F0B8;}
	.st64{fill:#D8EBA5;}
	.st65{fill:#E0F0B6;}
	.st66{fill:#D5EAA1;}
	.st67{fill:#DDEEB0;}
	.st68{fill:#EBF6CE;}
	.st69{fill:#B1D65A;}
	.st70{fill:#B4D75E;}
	.st71{fill:#B8D966;}
	.st72{fill:#C2DF7A;}
	.st73{fill:#DDEEB2;}
	.st74{fill:#CCE58D;}
	.st75{fill:#C0DE73;}
	.st76{fill:#BEDD73;}
	.st77{fill:#DAEDAB;}
	.st78{fill:#ECF8D3;}
	.st79{fill:#D1E89C;}
	.st80{fill:#D4E99C;}
</style>
<g id="Bg" class="st0">
</g>
<g id="Object">
	<path id="Tinta" class="st1" d="M334.6,15.4c9.8,5.7,9.8,5.7,2.5,12.9c-1.4,1.4-2,2.8-2.2,4.4c-0.4,4.2-3.4,7.9-10.2,10.7
		c-4.4,1.8-8.3,3.9-12.4,5.9c0.1,0.6-4.1,1.9,0.5,1.8c3,0,6.1,0.9,9.1-0.1c9.9-0.4,19.9-1.1,29.8-0.2c2.4,0.2,3.6,0.4,3.6,2.1
		c0.1,2.6,1.8,5,8.1,5.2c1.7,0,3.5,0.6,2.7,1.6c-2,2.3,1.2,2.4,3.7,3.1c3.1,0.9,2.9,2-0.4,2.9c-2,0.5-4.3,0.9-6,1.6
		c-2.1,0.9-6.8,1.2-5.5,3c1.3,1.9,5.5,2.6,9.5,2.4c3.2-0.2,6.3-0.7,9.4-1.3c2.7-0.5,3.3,0.5,4.2,1.4c4.8,3.1,11.4,2.2,17.7,1.9
		c1.8,3.7,8,3.9,13.5,4.4c2.3,0.2,3.5,0.6,3.2,1.9c-0.3,2.5-2.4,4.6-5.2,6.7c-1,1.1-1.6,2.3-2.5,3.4c-0.6,0.8-5,1.6,0.1,2.7
		c2.9,0.6,2.3,3.5-0.7,3.6c-8.5,0.3-3.3,3.2-4.4,4.9c-5.3,2-11.5,2.5-17.4,3c-20.8,2-40.9,5.6-61.6,7.8c-6,0.6-12.1,1.6-18.1,1.8
		c-26.8,1-51.9,6-77.2,10.5c-21.3,3.8-42.1,8.4-63.3,12.5c-22.7,4.3-44.9,9.4-67.2,14.2c-5.4,0-11.6,2.4-15.8-1.2
		c-0.3-2.8-2.2-4.5-8.3-5c-4.2-0.3-9.6-0.4-11.6-3.3c-4.6-4.4-5.3-4.6-14.4-3.8c-8.1,0.7-15.3,0.1-20.4-3.6c-4.3-0.9-9.8,0.2-13.2-2
		c-0.7-0.3-1.2-0.6-1.5-1c-0.3-0.8,0.4-1.8-0.7-2.5c-0.9-0.7-1.7-1.4-2.5-2c-2.3-1.2-7.4-0.4-8-2.9c-1.1-0.4-1.9-1.3-1.3-1.7
		c5.6-3.5,5.8-8.3,11.4-11.9c6.2-4,11.1-8.5,18.6-12c3.3-3.5,9.8-5.3,14.4-8c0.6-0.2,1.2-0.4,1.1-0.5c-0.7-0.6,0.5,0-0.8,0.1
		c-0.6,0.2-1.1,0.4-1.6,0.6c-1.3,0.5-2.3,1.1-3.5,1.6c-5.7,2.1-8.6,0.8-10.2-2.1c0.8-4.8,3.8-9,10.6-12.5c2.8-1.4,5.4-3.2,6.5-5.1
		c1.9-3.4,5.8-6,9.5-8.8c6.4-5.1,15.6-7.7,24.6-10.7c1.9-0.6,4.1-1,6.2-1.5c3.5-1.3,9.7,1.3,11.4-2.5c18.3-6.3,35.9-13.2,56.4-17.5
		c13.8-2.9,26.1-7.8,40.3-10.5c14.3-2.7,28.3-6.2,43.6-6.9c5.8-0.6,11.5-1.3,17.3-0.7c1.5,3.1-4.9,1.4-5.7,2.9c2.5-1,6-0.8,8.8-1.9
		c3.7-0.8,7.3-1.7,11-2.4c-4,0-8.6,2.8-12-0.5c0.1-0.5,0.2-0.9,0.2-1.4c0-0.2,0-0.5,0.1-0.7c7.7-2.3,16.1-3.3,24.6-3.6
		c14.5-0.5,29.1-1.5,43.2,0.8c0.7,0.3,1.4,0.5,2.1,0.8l0,0C331,10.6,329.8,13.8,334.6,15.4z"/>
	<g id="Texto">
		<path class="st2" d="M124.2,42.6c0.7,0.8,1,1.9,1,3.2c0,4.3-2.3,6.3-7,6l-3.3-0.3c-3.7-0.3-7.4-0.6-11-0.8
			c-3.7-0.2-7.5-0.3-11.5-0.3h-4.2c-0.8,9.3-1.5,17.7-2.3,25.4l16.2-0.3c2.3,0,3.9,0.4,4.7,1.2c0.8,0.8,1.2,1.9,1.2,3.3
			c0,2.1-0.6,3.8-1.9,5c-1.3,1.2-3,1.8-5.4,1.8H84.5L84,91c-1.3,10.3-4.1,17.7-8.4,22.1c-4.3,4.4-10.2,6.6-17.7,6.6
			c-4.3,0-8.2-0.9-11.7-2.8c-3.6-1.8-6.2-4.1-7.9-6.7c-0.7-1.1-1-2.3-1-3.9c0-1.5,0.4-2.8,1.1-3.9c0.7-1.1,1.6-1.7,2.7-1.7
			c0.8,0,1.5,0.3,2.2,0.8c0.7,0.5,1.6,1.5,2.8,2.9c3,3.9,6.7,5.9,11.2,5.9c3.6,0,6.6-1.5,9-4.4c2.4-2.9,4-7.5,4.7-13.8l0.6-5.2h-4.5
			c-1.4,0-2.7-0.4-3.7-1.2c-1-0.8-1.6-2-1.6-3.5c0-1.9,0.5-3.4,1.5-4.5c1-1,2.5-1.6,4.4-1.6c1.8,0,3.5,0,5.2-0.1
			c0.8-6.9,1.6-15.3,2.4-25.1c-6.8,0.6-11.5,1.7-14.3,3.3c-2.8,1.6-4.1,3.9-4.1,7c0,2.1,0.6,4.2,1.9,6.1c0.4,0.6,0.6,1.1,0.6,1.7
			c0,1.1-0.6,2.1-1.9,3c-1.3,0.8-2.7,1.3-4.2,1.3c-1.7,0-3.1-0.5-4.3-1.5c-0.8-0.6-1.5-1.9-2.2-3.9c-0.7-1.9-1-4.1-1-6.5
			c0-7.8,4-13.4,12-16.9c8-3.5,19.7-5.3,35-5.3c10.7,0,20,0.6,28.2,1.7C122.4,41.3,123.6,41.8,124.2,42.6z"/>
		<path class="st2" d="M107.6,115.2c-2.3-2.8-3.5-6.5-3.5-11.1c0-5,1.2-9.8,3.5-14.2c2.3-4.5,5.4-8.1,9.3-10.8
			c3.9-2.7,7.9-4.1,12.3-4.1c1.4,0,2.3,0.3,2.8,0.8c0.5,0.5,0.9,1.5,1.2,2.9c1.3-0.2,2.7-0.4,4.1-0.4c3.1,0,4.6,1.1,4.6,3.3
			c0,1.3-0.5,4.4-1.4,9.4c-1.4,7.2-2.2,12.2-2.2,15c0,0.9,0.2,1.7,0.7,2.3c0.5,0.6,1.1,0.8,1.8,0.8c1.2,0,2.6-0.8,4.3-2.3
			c1.7-1.5,4-4,6.9-7.5c0.8-0.9,1.6-1.3,2.5-1.3c0.8,0,1.5,0.4,1.9,1.1c0.5,0.8,0.7,1.8,0.7,3.1c0,2.5-0.6,4.4-1.8,5.8
			c-2.6,3.2-5.3,5.9-8.2,8.1c-2.9,2.2-5.7,3.3-8.4,3.3c-2.1,0-4-0.7-5.7-2.1c-1.7-1.4-3-3.3-3.9-5.8c-3.3,5.3-7.4,7.9-12.3,7.9
			C113.1,119.4,110,118,107.6,115.2z M124.3,107.5c1.3-1.6,2.2-3.8,2.7-6.5l3.5-17.3c-2.6,0.1-5.1,1-7.3,3c-2.2,1.9-4,4.4-5.3,7.6
			c-1.3,3.1-2,6.5-2,10c0,1.9,0.4,3.4,1.2,4.3c0.8,0.9,1.9,1.4,3.2,1.4C121.7,109.9,123,109.1,124.3,107.5z"/>
		<path class="st2" d="M151.2,115.7c-1-2.5-1.5-6.5-1.5-12c0-8.1,1.2-15.9,3.5-23.2c0.6-1.8,1.5-3.1,2.8-4c1.3-0.8,3.1-1.3,5.4-1.3
			c1.3,0,2.1,0.2,2.6,0.5c0.5,0.3,0.8,0.9,0.8,1.8c0,1-0.5,3.3-1.4,6.8c-0.6,2.5-1.1,4.7-1.5,6.6c-0.4,1.9-0.7,4.2-0.9,7
			c2.1-5.4,4.4-9.8,7-13.2c2.6-3.4,5.1-5.8,7.6-7.2c2.5-1.4,4.7-2.2,6.8-2.2c4.1,0,6.1,2,6.1,6.1c0,0.8-0.3,2.8-0.8,5.9
			c-0.5,2.5-0.8,4.1-0.8,4.7c0,2.2,0.8,3.3,2.3,3.3c1.8,0,4-1.4,6.8-4.1c0.8-0.8,1.7-1.2,2.5-1.2c0.8,0,1.5,0.4,1.9,1.1
			c0.5,0.7,0.7,1.7,0.7,2.9c0,2.3-0.6,4.1-1.9,5.5c-1.8,1.8-3.8,3.4-6.2,4.7c-2.3,1.3-4.8,1.9-7.5,1.9c-3.3,0-5.8-0.8-7.6-2.5
			c-1.7-1.7-2.6-4-2.6-6.9c0-0.9,0.1-1.9,0.3-2.8c0.1-1.3,0.2-2.1,0.2-2.5c0-1-0.3-1.5-1-1.5c-0.9,0-2.2,1-3.7,3.1
			c-1.5,2.1-3.1,4.9-4.6,8.3c-1.5,3.4-2.7,7.1-3.7,10.9c-0.7,2.9-1.5,4.9-2.4,6c-0.9,1-2.3,1.6-4.3,1.6
			C153.8,119.4,152.2,118.2,151.2,115.7z"/>
		<path class="st2" d="M194,115.7c-1-2.5-1.5-6.5-1.5-12c0-8.1,1.2-15.9,3.5-23.2c0.6-1.8,1.5-3.1,2.8-4c1.3-0.8,3.1-1.3,5.4-1.3
			c1.3,0,2.1,0.2,2.6,0.5c0.5,0.3,0.8,0.9,0.8,1.8c0,1-0.5,3.3-1.4,6.8c-0.6,2.5-1.1,4.7-1.5,6.5c-0.4,1.8-0.7,4.2-0.9,6.9
			c1.7-4.9,3.7-9,6.1-12.4c2.3-3.4,4.8-5.9,7.2-7.6c2.5-1.7,4.8-2.5,7-2.5c2.2,0,3.7,0.5,4.7,1.5c0.9,1,1.4,2.5,1.4,4.6
			c0,2-0.6,5.6-1.8,10.9c-0.5,2.3-0.8,3.9-1,5.1c3.1-7.7,6.6-13.3,10.4-16.8c3.8-3.5,7.4-5.3,10.7-5.3c4.1,0,6.1,2,6.1,6.1
			c0,2.4-0.7,6.9-2.1,13.3c-1.2,5.5-1.8,9.1-1.8,10.8c0,2.5,0.9,3.8,2.7,3.8c1.3,0,2.7-0.8,4.5-2.3c1.7-1.5,4-4,6.9-7.5
			c0.8-0.9,1.6-1.3,2.5-1.3c0.8,0,1.5,0.4,1.9,1.1c0.5,0.8,0.7,1.8,0.7,3.1c0,2.5-0.6,4.4-1.8,5.8c-2.7,3.3-5.6,6-8.7,8.2
			c-3.1,2.1-6.6,3.2-10.6,3.2c-3.2,0-5.6-0.9-7.2-2.8c-1.6-1.8-2.4-4.5-2.4-8c0-1.8,0.4-4.9,1.3-9.4c0.8-3.9,1.2-6.7,1.2-8.2
			c0-1-0.3-1.5-1-1.5c-0.8,0-2,1-3.5,3.1c-1.5,2.1-3,4.9-4.5,8.3c-1.5,3.4-2.7,7.1-3.7,10.9c-0.7,3-1.5,5-2.4,6
			c-0.9,1-2.4,1.5-4.4,1.5c-2.1,0-3.6-1-4.7-3c-1-2-1.6-4.4-1.6-7.2c0-2.4,0.3-5.8,0.9-10.3c0.5-4,0.8-6.6,0.8-7.9
			c0-1-0.3-1.5-1-1.5c-0.9,0-2.1,1.1-3.6,3.4c-1.4,2.3-2.8,5.1-4.2,8.6c-1.3,3.5-2.4,7-3.2,10.3c-0.7,2.9-1.5,4.9-2.4,6
			c-0.9,1-2.3,1.6-4.3,1.6C196.6,119.4,194.9,118.2,194,115.7z"/>
		<path class="st2" d="M264.9,115.1c-1.8-2.9-2.8-6.7-2.8-11.5c0-2.8,0.4-6.4,1.1-10.9c0.7-4.4,1.6-8.5,2.8-12.4
			c0.6-2,1.3-3.4,2.3-4.1c0.9-0.8,2.4-1.1,4.5-1.1c3.2,0,4.8,1.1,4.8,3.2c0,1.6-0.6,5.2-1.8,10.9c-1.5,6.9-2.3,11.6-2.3,14
			c0,1.9,0.2,3.3,0.8,4.3c0.5,1,1.3,1.5,2.5,1.5c1.1,0,2.5-0.8,4.2-2.3c1.7-1.6,3.9-4,6.8-7.4c0.8-0.9,1.6-1.3,2.5-1.3
			c0.8,0,1.5,0.4,1.9,1.1c0.5,0.8,0.7,1.8,0.7,3.1c0,2.5-0.6,4.4-1.8,5.8c-6.2,7.6-12,11.4-17.4,11.4
			C269.7,119.4,266.8,118,264.9,115.1z M268.6,67.1c-1.3-1.2-2-2.9-2-5.1c0-2.2,0.9-4,2.6-5.5c1.7-1.5,3.9-2.2,6.4-2.2
			c2.3,0,4.2,0.6,5.6,1.7c1.4,1.1,2.2,2.7,2.2,4.8c0,2.5-0.8,4.5-2.4,6c-1.6,1.5-3.8,2.2-6.5,2.2C271.9,68.9,269.9,68.3,268.6,67.1z
			"/>
		<path class="st2" d="M287,115.7c-1-2.5-1.5-6.5-1.5-12c0-8.1,1.2-15.9,3.5-23.2c0.6-1.8,1.5-3.1,2.8-4c1.3-0.8,3.1-1.3,5.4-1.3
			c1.3,0,2.1,0.2,2.6,0.5c0.5,0.3,0.8,0.9,0.8,1.8c0,1-0.5,3.3-1.4,6.8c-0.6,2.5-1.1,4.7-1.5,6.6c-0.4,1.9-0.7,4.2-0.9,7
			c2.1-5.4,4.4-9.8,7-13.2c2.6-3.4,5.1-5.8,7.6-7.2c2.5-1.4,4.7-2.2,6.8-2.2c4.1,0,6.1,2,6.1,6.1c0,2.4-0.7,6.9-2.1,13.3
			c-1.2,5.5-1.8,9.1-1.8,10.8c0,2.5,0.9,3.8,2.7,3.8c1.3,0,2.7-0.8,4.5-2.3c1.7-1.5,4-4,6.9-7.5c0.8-0.9,1.6-1.3,2.5-1.3
			c0.8,0,1.5,0.4,1.9,1.1c0.5,0.8,0.7,1.8,0.7,3.1c0,2.5-0.6,4.4-1.8,5.8c-2.7,3.3-5.6,6-8.7,8.2c-3.1,2.1-6.6,3.2-10.6,3.2
			c-3.2,0-5.6-0.9-7.2-2.8c-1.6-1.8-2.4-4.5-2.4-8c0-1.8,0.4-4.9,1.3-9.4c0.8-3.9,1.2-6.7,1.2-8.2c0-1-0.3-1.5-1-1.5
			c-0.8,0-2,1-3.4,3.1c-1.5,2.1-3,4.9-4.5,8.3c-1.5,3.4-2.8,7.1-3.7,10.9c-0.7,2.9-1.5,4.9-2.4,6c-0.9,1-2.3,1.6-4.3,1.6
			C289.6,119.4,288,118.2,287,115.7z"/>
		<path class="st2" d="M381.8,91.3c0.4,0.8,0.7,1.8,0.7,3.1c0,3-0.9,4.8-2.7,5.4c-3.8,1.3-7.9,2.1-12.4,2.3c-1.2,5.3-3.5,9.5-7,12.6
			c-3.5,3.2-7.5,4.7-11.9,4.7c-3.8,0-7-0.9-9.6-2.7c-2.7-1.8-4.7-4.2-6.1-7.2c-1.4-3-2.1-6.3-2.1-9.8c0-4.8,0.9-9,2.7-12.7
			c1.8-3.7,4.3-6.6,7.5-8.7c3.2-2.1,6.7-3.1,10.6-3.1c4.8,0,8.6,1.6,11.5,4.9c2.9,3.3,4.6,7.3,5.1,12.2c2.9-0.2,6.5-0.8,10.5-1.9
			c0.5-0.1,0.9-0.2,1.3-0.2C380.7,90.1,381.3,90.5,381.8,91.3z M354.3,107c1.5-1.6,2.5-4,3-7c-1.9-1.3-3.4-3-4.5-5.2
			c-1-2.1-1.6-4.4-1.6-6.8c0-1,0.1-2,0.3-3H351c-2.5,0-4.6,1.2-6.2,3.6c-1.7,2.4-2.5,5.8-2.5,10.2c0,3.4,0.7,6.1,2,7.9
			c1.3,1.8,2.9,2.7,4.7,2.7C351.1,109.5,352.8,108.6,354.3,107z"/>
	</g>
	<rect id="Quadrado" x="261.8" y="45.5" class="st1" width="26.5" height="26.5"/>
	<g id="Folha">
		<path class="st3" d="M379.1,24.3c-2,2.7-4,5.4-6.1,8.1c-4.5,5.9-9.2,11.9-14.8,16.8c-4,3.5-7.9,7.4-12.8,9.9
			c-3.5,1.8-6.5,4.5-10.2,6.1c-5.2,2.3-10.8,3.4-16.5,4c-2.6,0.3-5.3-0.3-7.9-0.7c-6.3-1-12.7-1.2-19-2c-2.4-0.3-4.8,0.4-7.2,0.3
			c-3.9-0.2-5.2-1.7-4.3-5.4c2-7.5,5.7-14.1,10.5-20c4.2-5.2,7.6-10.9,11.3-16.3c2.9-4.3,6.6-7.9,11.3-10.5
			c4.1-2.2,8.1-4.7,12.5-6.4c7.6-3.1,15.5-4.1,23.6-4.4c12.4-0.4,24.8-0.6,37.2-2c4.9-0.5,5.9,1.2,3.9,5.9
			c-2.4,5.7-6.2,10.3-10.4,14.6C379.2,22.6,379.5,23.7,379.1,24.3z"/>
		<path class="st4" d="M379.1,24.3c-0.1-0.7-1.2-1-0.7-1.8c0.5-0.7,1.3-0.2,1.9-0.2C380.1,23.1,379.9,23.9,379.1,24.3z"/>
		<path class="st5" d="M302.2,48.5c0.8,0.6,1.7,1.4,0.4,2.1c-1.3,0.6-1.9,2.1-3.3,2.5c-3.2,0.7-5.9,2.3-7.7,5.2
			c-0.9,0.8-1.8,1.7-2.6,2.5c-0.2-0.4-0.4-1-1.1-0.4c-0.5,0.5-1.2,0.5-1.8-0.1c-0.1-0.7-0.7-1.4-0.3-2.1c0.7-1.1,1.1,0.4,1.6,0.3
			c0.4-0.1,1.2-0.5,1.2-0.7c-0.1-1.6,2-1.7,2.1-3.4c-0.9-0.1-1.4,1.3-2.6,0.8c0.9-3.9,2.9-7.3,5.3-10.5c0.1,0.1,0.3,0.1,0.4,0.2
			c0.2,0.2,0.4,0.5,0.5,0.8c0,0.3,0,0.6-0.1,0.9c-0.2,0.7-1.2,1-0.7,1.9c-0.4,1.7-3,2.6-1.6,4.8c0.8,0.7,1.2,0.1,1.6-0.5
			c2.1-2.4,5-3.9,7.5-5.8c0.8-0.6,1.9-0.9,2.7-1.7c0.4-0.5,1-0.9,1.5-0.5c0.8,0.6-0.3,1.2-0.2,1.9c-0.1,0.5-0.5,0.7-0.9,0.7
			C302.9,47.1,302.4,47.6,302.2,48.5L302.2,48.5z"/>
		<path class="st6" d="M366.4,8.6c-0.4,0.5-1.1,0.8-1.6,0.5c-1.9-1.2-4.2,0.3-6.2-0.8c-1.3-0.7-1.6,1-2.4,1.5
			c-0.6-2.1,0.1-2.9,2.4-3c2-0.1,4.1-0.6,6.1,0.1C364.9,7.8,366,7.8,366.4,8.6z"/>
		<path class="st7" d="M343.4,22.2c0.3-0.2,0.5-0.4,0.8-0.6c2.1-1.3,4.1-2.8,6.5-3.3c1,0,1.7-0.3,2.4-1c1-0.5,1.4-0.3,1.2,0.9
			c-3,1.5-5.9,3-8.9,4.5c-1.1,0.5-2.2,0.9-3.3,1.4c-0.7,0.2-0.8-0.2-0.8-0.8C341.7,22.5,342.7,22.4,343.4,22.2z"/>
		<path class="st8" d="M330.5,11.6c-3.2,1.4-6.4,2.9-9.6,4.3c-0.7,0-0.9-0.4-0.6-1c2.7-1.9,5.8-3.1,8.9-4.3
			C330.1,10.3,330.8,10.3,330.5,11.6z"/>
		<path class="st9" d="M343.4,22.2c-0.6,0.4-1.2,0.7-1.8,1.1c-0.4,0.4-0.8,1-1.6,0.4c-0.4-0.9-1-0.6-1.8-0.5c-1.8,0.3-3.2,1.6-5,1.5
			l0,0c1.9-2.2,4.8-2.4,7.2-3.7C341.9,20.1,342.3,22.1,343.4,22.2z"/>
		<path class="st10" d="M306,40.3c3.4-2.9,7.1-5.4,11-7.5c0.2,0.3,0.6,0.4,0.6,0.9c-3.3,1.4-5.8,4.1-9,5.8
			C307.8,39.9,307,40.5,306,40.3L306,40.3z"/>
		<path class="st11" d="M317.6,33.6c-0.2-0.3-0.4-0.6-0.6-0.9c2.8-1.6,5.5-3.2,8.3-4.8c0.7-0.4,1.4-0.9,2.3-0.7l0,0
			C324.7,30.2,321,31.6,317.6,33.6z"/>
		<path class="st12" d="M331.6,35.2c-2,3-5.4,3.9-8.3,5.3C325.5,38,328.7,36.8,331.6,35.2z"/>
		<path class="st13" d="M323.6,56.8c1-1.4,2.7-1.4,4-2.3c1.6-1.1,2.6-0.3,3.3,1.7c-2.6-0.8-4.7,0.5-6.8,1.4
			C323.8,57.5,323.6,57.2,323.6,56.8z"/>
		<path class="st14" d="M373.1,16.5c-2.3,1.1-4.2,3-7.5,4c1.8-3,4.4-3.9,6.8-5C373.3,15.5,373.4,15.9,373.1,16.5z"/>
		<path class="st15" d="M358.1,30.1c-2.6,2-5.2,4-7.8,6c-0.4,0.2-0.7,0.1-0.9-0.3c2.5-2.8,5.5-4.9,8.8-6.6c0.2,0.2,0.2,0.4,0.1,0.6
			C358.3,30,358.2,30.1,358.1,30.1z"/>
		<path class="st6" d="M299.7,38.4c-0.1,0.6,1.3,1,0.2,1.6c-1.6,0.8-2.4,2.2-2.7,3.8c-1.4,0.6-2.2,0.1-2.7-1.3c0-0.1,0-0.3,0.1-0.3
			c2.2-1.2,2.4-1.3,3.5-3.4C298.6,38.5,298.9,37.7,299.7,38.4z"/>
		<path class="st16" d="M313.3,60.9c2.3-1,4.6-2,7-2.6c0.7,0,0.9,0.4,0.6,1c-2.3,1-4.6,1.9-7.1,2.5C313.1,61.8,313,61.5,313.3,60.9z
			"/>
		<path class="st17" d="M343,47.8c1.7-2.2,4-3.8,6.2-5.4c0.3-0.3,0.5-0.2,0.7,0.1c-2.2,2.2-4,4.8-6.9,6.2
			C342.5,48.4,342.5,48.1,343,47.8z"/>
		<path class="st18" d="M291.5,58.2c-0.4-0.3-0.6-0.9-0.2-1.2c2.1-1.7,4.2-3.4,6.8-4.4c0.5-0.2,0.9-0.1,1.2,0.4
			C296.5,54.5,293.9,56.2,291.5,58.2z"/>
		<path class="st11" d="M313.6,38.7c1.9-0.7,3.3-2.1,5-3.2c1-0.6,1.8-1.5,3.2-1.2l0,0c-2.3,2.2-4.9,3.8-7.6,5.3
			C313.5,39.7,313.3,39.4,313.6,38.7z"/>
		<path class="st19" d="M299.7,38.4c-0.5,0.1-1,0.3-1.6,0.4c1.2-2.4,2.6-4.5,5.1-5.9C302.5,35,300.9,36.6,299.7,38.4z"/>
		<path class="st20" d="M357,43.8c-1.7,2.1-3.8,3.9-6.6,4.7c1.7-1.7,3.5-3.3,5.2-5C356.1,43.3,356.6,43.3,357,43.8z"/>
		<path class="st12" d="M350.7,18.3c-1.9,1.6-4.2,2.5-6.5,3.3c0-0.3,0.1-0.6,0.1-0.8l0,0c1-0.2,1.5-1,2.2-1.6
			C347.8,18.2,349.1,17.7,350.7,18.3z"/>
		<path class="st21" d="M376.2,20.1c-1.5,2-3.1,3.8-6.3,4.3c2-1.8,3.3-3.6,5.4-4.6C375.7,19.7,376,19.7,376.2,20.1z"/>
		<path class="st22" d="M343,47.8c0,0.3,0,0.6-0.1,0.9c-2.1,1.7-4.3,3.5-6.9,4.6c-0.3-0.6-0.2-1.1,0.3-1.4
			C338.8,50.9,340.5,48.7,343,47.8z"/>
		<path class="st23" d="M372.7,6.8c2-1.1,4.1-0.5,6.2-0.6c-1.7,1.3-3.8,1-5.7,1.4C373,7.4,372.8,7.2,372.7,6.8z"/>
		<path class="st24" d="M372.7,6.8c0.2,0.3,0.4,0.5,0.5,0.8c-2,0.3-4,0.5-6,0.4c-0.4-0.2-0.6-0.4-0.6-0.8
			C368.7,6.7,370.7,6.8,372.7,6.8z"/>
		<path class="st25" d="M354.4,18.2c-0.2-0.6-0.7-0.8-1.2-0.9c1.4-1.3,3.2-1.2,5.2-1.8C357.5,17.6,355.6,17.4,354.4,18.2z"/>
		<path class="st11" d="M320.3,14.9c0.2,0.3,0.4,0.7,0.6,1c-1.2,0.9-2.5,1.6-4.6,2.4C317.3,16,318.6,15.2,320.3,14.9z"/>
		<path class="st26" d="M329.6,47.6c2.2-1.2,4.1-2.9,6.6-3.2c0.2,0.2,0.2,0.4,0.1,0.6c-0.1,0.2-0.2,0.2-0.3,0.2
			c-1.9,0.7-3.5,2.4-5.6,2.7C330.1,48.1,329.8,48,329.6,47.6z"/>
		<path class="st27" d="M330.5,11.6c-0.2-0.7-0.7-0.8-1.3-0.9c1.6-1.1,3.7-0.6,5.4-1.3c0.3-0.1,0.6-0.1,0.9,0.2
			c0.1,0.3,0,0.6-0.3,0.7C333.6,10.6,332,11.1,330.5,11.6z"/>
		<path class="st28" d="M349.5,35.8c0.3,0.1,0.6,0.2,0.9,0.3c-1.6,1.3-3.2,2.6-5.1,3.4c-0.3,0.3-0.6,0.2-0.7-0.2
			C345.9,37.8,347.7,36.7,349.5,35.8z"/>
		<path class="st29" d="M357.3,25.4c-0.9,0.9-2,1.3-3.1,1.5C354.5,24.5,354.5,24.5,357.3,25.4z"/>
		<path class="st30" d="M318.4,53c-1.6,0.7-3.1,1.6-5.5,1.9c1.5-1.9,3.4-2,4.8-2.9C318.2,52.2,318.4,52.5,318.4,53z"/>
		<path class="st31" d="M318.4,53c-0.2-0.3-0.4-0.7-0.7-1c1.2-0.7,2.4-1.5,3.9-1.6c0.8,0,0.9,0.3,0.7,1
			C321,51.9,319.7,52.5,318.4,53z"/>
		<path class="st23" d="M336.1,45.1c0-0.3,0.1-0.5,0.1-0.8c1.5-1.4,3.2-2.6,5-3.5c0.2,0.2,0.3,0.4,0.2,0.6c-0.1,0.2-0.2,0.2-0.3,0.2
			C339.7,43.2,338,44.3,336.1,45.1z"/>
		<path class="st32" d="M340.1,23.7c0.5-0.1,1-0.3,1.6-0.4c0.2,0.3,0.4,0.6,0.6,0.9c-1.6,0.7-2.9,2.1-4.8,2.1
			c-0.8,0.1-0.9-0.3-0.6-0.9C338,24.9,339.3,24.8,340.1,23.7z"/>
		<path class="st33" d="M309.2,26.9c1.9-0.8,3.3-2.7,5.6-2.7l0,0c-1.4,1.5-3.2,2.6-5,3.5C309.4,27.6,309.4,27.2,309.2,26.9z"/>
		<path class="st34" d="M329.6,47.6c0.3,0.1,0.6,0.1,0.8,0.2c-1.2,1.8-3.1,1.6-4.9,2c-0.2-0.2-0.3-0.4-0.2-0.5
			c0.1-0.2,0.2-0.2,0.3-0.2c0.6-0.8,1.3-1.2,2.3-1c0.3-0.1,0.6-0.3,0.9-0.5C329.2,47.5,329.4,47.5,329.6,47.6z"/>
		<path class="st35" d="M312.7,40c-1.2,1.4-2.9,2.2-4.6,3C309.2,41.4,310.4,40,312.7,40L312.7,40z"/>
		<path class="st36" d="M356.4,42.9c1.2-1.3,2-3.1,4.2-2.9l0,0c-0.9,1.3-1.9,2.7-3.6,3C356.8,43.4,356.5,43.3,356.4,42.9z"/>
		<path class="st6" d="M353.6,10c-0.8-0.5-1.5-1.1-2.4-1.6c3.2-0.9,3.2-0.9,3.2,1.1C354.2,9.6,353.9,9.8,353.6,10z"/>
		<path class="st37" d="M336.8,25.3c0.2,0.3,0.4,0.6,0.6,0.9c-1.6,0.6-2.9,2.2-4.8,2l0,0C333.7,26.9,335.2,26,336.8,25.3z"/>
		<path class="st38" d="M359,28.6c0.6-1.7,2-2.3,3.6-2.7c-0.8,1.3-1.7,2.6-3.4,2.8L359,28.6z"/>
		<path class="st39" d="M294.5,42.6c0.8,0.6,1.7,1.2,2.7,1.3c-0.8,0.9-1.7,1.7-2.5,2.6c-0.1-0.1-0.2-0.2-0.4-0.2
			c0-0.4,0-0.9-0.1-1.3c0-0.5-0.4-1.1,0.2-1.6C294.4,43,294.4,42.8,294.5,42.6z"/>
		<path class="st40" d="M286.1,60.3c1.2,0.1,1.8-0.9,2.8-1.3c0.4,0.6,0.1,1.2,0,1.7c-0.7,0.2-1.2,0.6-1.7,1.1
			c-0.6,0.4-1.2,0.3-1.5-0.4C285.4,61,285.7,60.5,286.1,60.3L286.1,60.3z"/>
		<path class="st41" d="M337.7,8.5c1.3-0.8,2.7-0.3,4.7-0.6c-1.6,1.6-3.1,0.8-4.1,1.5C338.1,9.1,337.6,8.9,337.7,8.5z"/>
		<path class="st26" d="M341.2,41.6c0-0.3,0.1-0.5,0.1-0.8c0.8-1.1,2.1-1.1,3.2-1.6c0.2,0.1,0.5,0.1,0.7,0.2
			C344.3,41,342.7,41.2,341.2,41.6z"/>
		<path class="st42" d="M325.7,49c0,0.3-0.1,0.5-0.1,0.8c-1.2,0.4-2,1.5-3.3,1.6c-0.2-0.3-0.5-0.7-0.7-1
			C322.8,49.5,324.2,49.1,325.7,49z"/>
		<path class="st12" d="M332.6,28.2c-0.8,1.1-2,1.7-3.4,2.5C330.3,28.6,330.3,28.7,332.6,28.2L332.6,28.2z"/>
		<path class="st13" d="M334.4,54.5c-0.6,0.5-1.2,1.6-2,0.5c-0.2-0.2-0.4-2.4,1.5-2.1c0.2,0.4,0.5,0.7,0.5,1.2
			C334.4,54.2,334.4,54.3,334.4,54.5z"/>
		<path class="st43" d="M349.8,42.5l-0.3-0.1l-0.3-0.1c1.1-0.8,1.6-2.5,3.4-2.3l0,0C352.2,41.5,351.1,42.1,349.8,42.5z"/>
		<path class="st44" d="M320.9,59.3c-0.2-0.3-0.4-0.7-0.6-1c1.1-0.5,2.2-1,3.3-1.5c0.2,0.3,0.4,0.6,0.6,0.8
			C323.1,58.2,322,58.8,320.9,59.3z"/>
		<path class="st19" d="M308,29.6c-0.8,0.9-1.7,1.7-3.3,2.1c0.7-1.4,1.7-2.2,2.7-3C307.8,28.8,307.8,29.2,308,29.6z"/>
		<path class="st45" d="M373.1,16.5c-0.2-0.3-0.4-0.6-0.7-1c1.1-0.5,2.3-1,3.4-1.5C375.4,15.6,374.3,16.2,373.1,16.5z"/>
		<path class="st46" d="M366.7,7.2c0.2,0.3,0.4,0.6,0.6,0.8l0.1,0.2c-0.3,0.1-0.6,0.3-0.9,0.5c0,0,0-0.1,0-0.1
			c-0.5-0.6-2.9,0.7-1.7-1.7C365.3,7,366,7.1,366.7,7.2z"/>
		<path class="st47" d="M295.8,59c1.2-0.5,2.5-1.8,3.7,0c-0.3,0.2-0.5,0.2-0.7-0.1c-0.6,0.4-1.2,0.7-1.7,1.1
			C296.7,59.6,296,59.7,295.8,59z"/>
		<path class="st48" d="M303.9,47.3c0.3-0.2,0.6-0.4,0.9-0.7c0.6,0.7,1.5,1,1.9,1.9c-0.3,0.2-0.6,0.4-0.8,0.6
			C305.1,48.6,304.3,48.2,303.9,47.3z"/>
		<path class="st13" d="M336.3,51.8c-0.1,0.5-0.2,1-0.3,1.4c-0.4,0.6-1,1-1.6,1.2l-0.1-0.1c-0.3-0.5-0.3-1,0.3-1.4
			C334.8,52.1,335.4,51.7,336.3,51.8z"/>
		<path class="st36" d="M360.6,40.1c0.2-1.1,0.9-1.9,2.4-2.8C362.3,38.9,362.4,40.3,360.6,40.1L360.6,40.1z"/>
		<path class="st10" d="M352.5,40c0.2-0.4,0.4-0.9,0.7-1.2c0.3-0.4,0.9-0.6,1.2-0.3c0.6,0.6,0,1.1-0.5,1.3
			C353.5,40.1,353,40,352.5,40L352.5,40z"/>
		<path class="st9" d="M327.7,26.6c1.3-0.5,2.6-1,4-1.5l0,0c-0.3,1.4-1.2,1.9-2.5,1.7C328.6,27.2,328.1,27.1,327.7,26.6z"/>
		<path class="st33" d="M318.2,21.9c-0.9,1.1-2,1.9-3.4,2.3l0,0C315.4,22.5,316.5,21.7,318.2,21.9L318.2,21.9z"/>
		<path class="st7" d="M295.8,59c0.5,0.2,1.1,0.3,1.3,0.9c-0.5,0.2-0.9,0.4-1.4,0.7c-0.7,0.1-1.7,0.4-1.3-1
			C294.8,59.4,295.3,59.2,295.8,59z"/>
		<path class="st49" d="M313.3,60.9c0.2,0.3,0.4,0.6,0.6,0.9c-0.6,0.5-1.4,1.5-1.9,0.5C311.3,61.3,312.5,61.1,313.3,60.9z"/>
		<path class="st33" d="M319.1,21.3c0.1-0.5,0.2-1,0.4-1.3c0.3-0.6,1-0.8,1.4-0.3c0.4,0.4-0.2,0.8-0.6,1.1
			C320,21,319.5,21.1,319.1,21.3L319.1,21.3z"/>
		<path class="st50" d="M337.7,8.5c0.2,0.3,0.4,0.6,0.6,0.9c-1,0.3-2.1,0.6-3.1,0.8c0.1-0.2,0.1-0.5,0.2-0.7
			c-0.1-0.2-0.2-0.4-0.1-0.5c0.1-0.1,0.2-0.2,0.2-0.2l0,0c0.4-0.5,1.1-0.1,1.6-0.4C337.2,8.4,337.5,8.4,337.7,8.5z"/>
		<path class="st51" d="M308,29.6c-0.2-0.3-0.4-0.6-0.6-0.9c0.6-0.6,1.3-1.2,1.9-1.8c0.2,0.3,0.4,0.6,0.6,0.8
			C309.2,28.3,308.6,29,308,29.6z"/>
		<path class="st5" d="M286.1,60.2c-0.2,0.9,0.1,1.5,1.1,1.6c-0.6,0.6-1.3,0.8-1.8,0.1C284.9,61.1,285.3,60.5,286.1,60.2z"/>
		<path class="st52" d="M324.3,18.5c-0.2,0.1-0.5,0.4-0.8,0.4c-0.4,0.1-0.6-0.2-0.6-0.6c0-0.4,0.4-0.6,0.7-0.5
			C324,17.8,324.3,17.9,324.3,18.5z"/>
		<path class="st53" d="M294.3,59.6c0.2,0.6,0.8,0.8,1.3,1c-0.4,0.1-0.9,0.4-1.3,0.4c-0.4,0-1.2-0.2-1.2-0.4
			C293.1,59.8,293.7,59.7,294.3,59.6z"/>
		<path class="st54" d="M293.3,52.6c0.6,1.3-0.5,1.4-1.1,1.5c-0.6,0.1-0.4-0.6-0.4-1C292.3,53,292.8,52.8,293.3,52.6z"/>
		<path class="st55" d="M361.7,22.6c0.5-0.7,1-1.3,2-1.4C363.8,22.8,362.6,22.5,361.7,22.6L361.7,22.6z"/>
		<path class="st55" d="M376.2,20.1c-0.3-0.1-0.6-0.2-0.9-0.2c0-0.1,0.1-0.2,0.1-0.3c0.3-0.5,0.7-1.5,1.4-1
			C377.5,19.1,376.8,19.8,376.2,20.1z"/>
		<path class="st11" d="M322.7,33.8c0.2-0.3,0.5-0.6,0.7-0.8c0.4-0.3,1-0.5,1.2,0.1c0.2,0.6-0.3,0.8-0.8,0.8
			C323.4,33.9,323,33.8,322.7,33.8L322.7,33.8z"/>
		<path class="st56" d="M337,8.4c-0.4,0.5-1,0.5-1.6,0.4c0-0.4-0.4-1,0.2-1.2C336.2,7.4,336.5,8.1,337,8.4z"/>
		<path class="st57" d="M293.4,48.3c-1-0.9,0-1.5,0.4-2.2c0.3-0.3,0.5-0.2,0.7,0.1l0.2,0.2C294.2,47,293.8,47.7,293.4,48.3z"/>
		<path class="st58" d="M309.4,56.5c-0.2,0.1-0.4,0.3-0.5,0.3c-0.4-0.1-0.5-0.4-0.3-0.7c0.1-0.1,0.4-0.2,0.6-0.1
			C309.3,56,309.3,56.3,309.4,56.5z"/>
		<path class="st5" d="M294.3,43.3c0.2,0.5,0.3,1,0.5,1.6c-0.2,0.2-0.5,0.3-0.7,0.2c-0.3-0.1-0.5-0.2-0.7-0.5l0,0
			C293.5,44,293.7,43.5,294.3,43.3z"/>
		<path class="st35" d="M313.6,38.7c0.2,0.3,0.4,0.6,0.6,0.9c-0.4,0.5-1,0.5-1.6,0.4c0,0,0,0,0,0C312.8,39.4,313,38.9,313.6,38.7z"
			/>
		<path class="st11" d="M327.7,26.6c0.5,0.1,0.9,0.2,1.4,0.2c-0.4,0.5-1,0.5-1.6,0.4l0,0C327.6,27.1,327.7,26.8,327.7,26.6z"/>
		<path class="st9" d="M333.2,24.7c-0.4,0.5-1,0.5-1.6,0.4l0,0C332.1,24.6,332.6,24.6,333.2,24.7L333.2,24.7z"/>
		<path class="st38" d="M358.1,30.1c0-0.3,0.1-0.6,0.1-0.9c0.3-0.2,0.5-0.4,0.8-0.5c0,0,0.1,0.2,0.1,0.2
			C359,29.3,358.7,29.8,358.1,30.1z"/>
		<path class="st55" d="M298.8,58.9c0.2,0,0.5,0.1,0.7,0.1c0,0.2,0.1,0.4,0.1,0.5C299.1,59.7,298.9,59.4,298.8,58.9z"/>
		<path class="st59" d="M334.6,53c-0.1,0.5-0.2,0.9-0.3,1.4c-0.7-0.4-0.6-0.9-0.4-1.5C334.2,52.9,334.4,53,334.6,53z"/>
		<path class="st10" d="M306,40.3c-0.1,0.3-0.3,0.6-0.4,0.9C305,40.5,305.6,40.5,306,40.3L306,40.3z"/>
		<path class="st60" d="M330.3,42.9c0.1,0,0.2-0.1,0.3,0c0.3,0.1,0.3,0.3,0,0.4c-0.1,0-0.2,0-0.3-0.1
			C330.3,43.1,330.3,42.9,330.3,42.9z"/>
		<path class="st61" d="M356.4,42.9c0.2,0.1,0.4,0.1,0.7,0.2c0,0.2,0,0.5-0.1,0.7c-0.5-0.1-0.9-0.2-1.4-0.2
			C355.9,43.4,356.1,43.2,356.4,42.9z"/>
		<path class="st62" d="M361.7,22.5c0,0.4-0.1,0.7-0.5,0.9c0,0-0.2-0.2-0.2-0.2C361,22.7,361.3,22.6,361.7,22.5
			C361.7,22.6,361.7,22.5,361.7,22.5z"/>
		<path class="st33" d="M318.2,21.9c0.3-0.2,0.6-0.4,0.8-0.6c0,0,0,0,0,0C318.8,21.5,318.5,21.7,318.2,21.9L318.2,21.9z"/>
		<path class="st12" d="M344.3,20.8c-0.1-0.1-0.3-0.2-0.3-0.2C344.1,20.4,344.2,20.4,344.3,20.8L344.3,20.8z"/>
		<path class="st26" d="M329,47.6c-0.3,0.2-0.6,0.3-0.9,0.5C328.3,47.9,328.7,47.7,329,47.6z"/>
		<path class="st63" d="M305.8,49.1c0.3-0.2,0.5-0.4,0.8-0.6C306.5,48.9,306.2,49.1,305.8,49.1z"/>
		<path class="st11" d="M322.7,33.8c-0.3,0.2-0.6,0.4-0.8,0.6l0,0C322.1,34.2,322.4,34,322.7,33.8L322.7,33.8z"/>
		<path class="st64" d="M353.6,10c0.2-0.3,0.5-0.5,0.9-0.5C354.3,9.8,354,10,353.6,10z"/>
		<polygon class="st65" points="340,13.9 340,13.7 340.2,13.7 		"/>
		<path class="st56" d="M335.4,8.8c0,0.2-0.1,0.5-0.1,0.7c-0.2-0.1-0.5-0.2-0.7-0.2C334.9,9.1,335.1,9,335.4,8.8z"/>
		<path class="st6" d="M366.4,8.6c0.2-0.3,0.5-0.5,0.9-0.5C367,8.3,366.7,8.5,366.4,8.6z"/>
		<path class="st66" d="M302.2,48.5c-0.1,0.3-0.1,0.7-0.3,1c-0.2,0.3-0.6,0.9-1.1,0.3c-0.1-0.1,0.2-0.6,0.4-0.8
			C301.5,48.7,301.9,48.6,302.2,48.5L302.2,48.5z"/>
		<path class="st67" d="M299.1,50.8c-0.2,0.1-0.4,0.1-0.6,0.2c0-0.2-0.1-0.5,0-0.6c0.1-0.1,0.4-0.2,0.6-0.1
			C299.3,50.3,299.3,50.6,299.1,50.8z"/>
		<path class="st68" d="M294.1,44.8c0.2,0,0.4,0,0.6,0c-0.1,0.5-0.2,0.9-0.3,1.4c0,0-0.3,0-0.3,0l-0.3-0.1c0-0.2,0-0.5,0.1-0.7
			C293.7,45.1,293.8,44.9,294.1,44.8z"/>
		<path class="st39" d="M294.1,44.8c-0.1,0.2-0.2,0.4-0.3,0.6c-0.2-0.3-0.3-0.6-0.5-0.8C293.6,44.7,293.9,44.8,294.1,44.8z"/>
		<g>
			<path class="st69" d="M281.6,14.4c2.6,4.3,2.9,9.2,3,14c0.3,9.7-2.6,18.8-6,27.8c-0.7,1.8-1.2,3.6-1.7,5.4
				c-0.5,2.2-1.9,2.6-3.5,1c-0.9-0.9-1.5-2-2.2-3.1c-2.6-4.1-6-7.5-7.8-12.2c-0.8-2.2-1.5-4.4-1.6-6.6c-0.1-4.7,0.1-9.4,0.8-14
				c0.1-0.7,0.1-1.5,0.7-2.1c0.6-0.8,0.4-2.6,2.3-1.9c1.9,1.4,0.5,3.3,0.7,5c0.2,1.4,0.2,2.8,0.3,4.2c0.4,4.3,1.6,8.4,2,11.8
				c-0.2-3.4-1.7-7.6-2-11.9c-0.4-2.6-0.4-5.2,0.1-7.8c3.5-3.1,3.9,0.7,5.4,2.3c0.3,0.2,0.6,0.5,0.8,0.7c1.6,0.9,1,2.6,1.3,4
				c0.2-1.9-0.7-4.1,1.2-5.7c0.4,0,0.8,0.1,1.1,0.3c2,2,0.8,4.5,1.3,6.7c0.3,2.5-0.5,5-0.8,7.4c0.4,1,0.3,2.2,0.6,3.2
				c-1,1.1-0.8,2.6-1.3,3.9c0.5-1,0.4-2.1,0.7-3c1.3-1.6,0-3.2,0.1-4.8c0.5-1.5,1.1-2.9,1.5-4.4c0.3-0.9,0.6-1.9,0.2-2.6
				c-1.9-3.2-0.9-6.6-0.6-9.9c0.1-0.7,0.4-1.5-0.1-2.2c-0.6,0.6-0.1,1.4-0.5,2.1c-0.4,0.7-0.7,1.4-1.6,1.3c-0.9-0.1-1.2-0.8-1.5-1.5
				c-0.5-1.5-0.6-3,0-4.4c0.2-0.3,0.4-0.6,0.6-0.9c0.3-0.4,0.9-1,0.6-1.2c-3.6-2.5-2.2-6.6-3.1-9.9c0.1-0.4,0.3-0.6,0.6-0.9
				c1.4-0.6,1.9,0.2,2.7,1.2C278.3,8.2,279.5,11.5,281.6,14.4z"/>
			<path class="st70" d="M276.8,32.1c0.3-2.4,0.7-4.8-0.9-6.9l0,0c-1,1.9-1.5,3.7-0.4,5.7c0.5,1,0,1.9-1.1,1.9
				c-0.9,0.1-1.1-0.7-1.1-1.6c0.1-1.4,0.6-3.1-1.1-4l0,0c-1.1-0.3-1.6-1.1-1.9-2.2c-0.4-1.8-1.7-2-3.2-1.8c-0.3-0.1-0.5-0.2-0.6-0.5
				c-0.1-0.2-0.1-0.5-0.1-0.8c0-0.2,0.2-0.4,0.4-0.6c0.2-0.2,0.2-0.4,0.1-0.6c0-0.4,0.1-0.8,0-1.2c0-0.5-0.1-1,0.4-1.4
				c-0.5,0.3-0.4,0.8-0.4,1.3c0,0.5-0.1,0.9-0.3,1.4c-0.3,0.5-0.6,1.1-0.9,1.6c-0.1,0.1-0.3,0.1-0.4,0.2c-1.1,0.1-1.2,1.4-2.1,1.8
				c-0.3-2.2,0.2-4.3,0.9-6.3c1.7-5.1,3.4-10.3,5.2-15.4c1.2-3.4,2.6-3.8,4.9-0.8c3,3.8,5.9,7.6,7.2,12.4c-0.8-0.1-1.6-0.5-1.8-1.2
				c-0.6-3.3-3.5-5.2-4.8-8c-0.5-1-1.3-0.4-2-0.5l0,0c0.4,2.6,1.8,5,1.4,7.7c-0.1,1.1,0.5,1.3,1.4,1.3c0.9,0,2,0,2.1,1.2
				c0.1,1.2-1.3,0.9-1.9,1.6c-0.2,0.2-0.4,0.2-0.7,0.4c-0.2-0.2,0.1,0,0,0c-0.5,2-0.5,3.9,0.5,5.9c1.5-0.8,1.3-1.8,0.9-2.9
				c-0.3-0.9,0.2-1.5,0.9-1.8c1.2-0.4,1,0.7,1.4,1.3c0.7,0.8,0.3,1.7,0.2,2.5c-0.2,1.4-0.5,2.8-0.4,4.1c0.1,1.5-2,3.6,1.2,4.3
				c-0.5,1.5,0.5,3.3-0.6,4.7C276.9,35.6,278.3,32.4,276.8,32.1z"/>
			<path class="st71" d="M267.4,31.7c1.1,4.8,1.6,9.8,2.2,14.7c-1.5-1.6-2.7-6.5-3.7-14.5C266.4,31.4,266.9,31.4,267.4,31.7z"/>
			<path class="st72" d="M276.8,32.1c0.6-0.3,1.5-1,1.5,0.4c0,1.1-0.1,2,1.2,2.3c-0.4,1.4-0.6,3-1.8,4.1c-0.3,0.6-0.5,1.2-1.4,1
				C276.3,37.3,277.3,34.7,276.8,32.1z"/>
			<path class="st48" d="M267.4,31.7c-0.5,0.1-1,0.1-1.5,0.2c-0.7-2.4,0.1-4.7,0-7.1c0-0.8-0.1-1.5-0.6-2.1l0.3,0
				c0.4-0.5,0.9-0.5,1.4-0.1c0.1,0.2,0.1,0.5,0.2,0.7C266.8,26.1,266.9,28.9,267.4,31.7z"/>
			<path class="st73" d="M277.6,43.7c-0.4,1.6-0.4,3.2-1.2,4.7c-0.8-2.7-0.6-3.9,1-5.7c0.2,0.2,0.4,0.3,0.3,0.6
				C277.7,43.6,277.7,43.7,277.6,43.7z"/>
			<path class="st18" d="M277.6,43.7c-0.1-0.3-0.2-0.6-0.2-0.9c-0.6-0.9-1.2-1.7-1.1-2.9c0.5-0.3,0.9-0.7,1.4-1
				C279,40.5,278.2,42.1,277.6,43.7z"/>
			<path class="st74" d="M272.5,34.4c0.2,0.1,0.4,0.3,0.4,0.4c0,0.4-0.2,0.6-0.6,0.5c-0.1,0-0.3-0.4-0.3-0.6
				C272,34.7,272.3,34.6,272.5,34.4z"/>
			<path class="st10" d="M272.4,41.5c0.2,0.1,0.5,0.1,0.7,0.2c-0.1,0.2-0.1,0.6-0.2,0.6c-0.1,0.1-0.4-0.1-0.7-0.2
				C272.3,41.9,272.3,41.7,272.4,41.5z"/>
			<path class="st71" d="M269.2,48.2c-0.1,0.1-0.2,0.2-0.3,0.2c-0.1,0-0.2-0.1-0.3-0.2C268.8,47.9,269,47.9,269.2,48.2z"/>
			<path class="st75" d="M266.6,20.2c0-1.6,0-3.1,1.3-4.9c0.6,2.1-0.8,3.4-0.5,4.9C267.2,20.5,266.9,20.4,266.6,20.2z"/>
			<path class="st76" d="M271.6,14.9c0.6,1.4,0.6,2.3,0.1,3.9C270.9,17.3,270.5,16.4,271.6,14.9z"/>
			<path class="st77" d="M272.3,27.2c0-0.2-0.1-0.5-0.1-0.7c-0.1-0.5,0-1,0.4-1.3c0.4-0.2,0.7,0,0.9,0.3c0.3,0.5,0.2,1-0.2,1.3
				C273,27.1,272.6,27.1,272.3,27.2L272.3,27.2z"/>
			<path class="st73" d="M275.9,25.2c0-0.7-0.1-1.6,1.1-1.4c0.2,0.1,0.6,0.6,0.6,0.8C277.2,25.3,276.5,25.1,275.9,25.2L275.9,25.2z"
				/>
			<path class="st7" d="M267,22.6c-0.5,0-0.9,0.1-1.4,0.1c-0.3-0.6-0.1-1.2,0.3-1.7c0.8-0.3,1.1,0,1.1,0.8
				C267,22.1,267,22.3,267,22.6z"/>
			<path class="st78" d="M275.4,16.7c-0.3,0-0.5,0.1-0.8,0c-0.6-0.1-0.9-0.5-0.9-1c0-0.1,0.1-0.3,0.1-0.3c0.6-0.2,0.8,0.3,1.1,0.7
				C275.2,16.3,275.3,16.5,275.4,16.7C275.4,16.7,275.4,16.7,275.4,16.7z"/>
			<path class="st79" d="M267,21.9c-0.4-0.3-0.7-0.6-1.1-0.8c0.2-0.3,0.5-0.6,0.7-0.9c0.3,0,0.5,0,0.8,0c0.1,0.5,0.1,1,0.2,1.5
				C267.4,21.7,267.2,21.8,267,21.9z"/>
			<path class="st79" d="M268.7,21.8c-0.1,0.2-0.2,0.4-0.2,0.4c-0.2,0-0.5-0.1-0.6-0.2c-0.3-0.3-0.2-0.4,0.2-0.4
				C268.2,21.7,268.4,21.7,268.7,21.8z"/>
			<path class="st22" d="M273.1,4.6c-0.4-0.1-0.8-0.6-0.6-0.7C273.3,3.5,272.8,4.4,273.1,4.6L273.1,4.6z"/>
			<path class="st80" d="M277.6,36.4c0.1,0,0.2,0,0.2,0c0.1,0.1,0.1,0.2,0.1,0.3c-0.1,0.3-0.3,0.3-0.4,0
				C277.5,36.6,277.6,36.5,277.6,36.4z"/>
		</g>
	</g>
</g>
</svg>
