<?xml version="1.0" encoding="utf-8"?>
<!-- Generator: Adobe Illustrator 25.2.0, SVG Export Plug-In . SVG Version: 6.00 Build 0)  -->
<svg version="1.1" id="Logo" xmlns="http://www.w3.org/2000/svg" xmlns:xlink="http://www.w3.org/1999/xlink" x="0px" y="0px"
	 viewBox="0 0 450 195" style="enable-background:new 0 0 450 195;" xml:space="preserve">
<style type="text/css">
	.st0{fill:#FFFFFF;}
</style>
<g id="Fatec_Matão">
	<g id="Matão">
		<path class="st0" d="M310.3,194.3V158h7.2l6.4,17.7c0.4,1.1,0.8,2.3,1.2,3.5c0.4,1.2,0.8,2.4,1.2,3.6h0.2c0.4-1.2,0.8-2.4,1.1-3.6
			c0.3-1.2,0.7-2.4,1.1-3.5l6.2-17.7h7.3v36.3h-5.9v-16.6c0-0.8,0-1.8,0.1-2.8s0.1-2,0.2-3s0.2-2,0.3-3c0.1-1,0.2-1.9,0.3-2.7H337
			l-2.9,8.4l-5.9,16.3h-3.8l-6-16.3l-2.9-8.4h-0.2c0.1,0.9,0.2,1.8,0.2,2.7c0.1,1,0.2,2,0.3,3c0.1,1,0.2,2,0.2,3
			c0.1,1,0.1,1.9,0.1,2.8v16.6H310.3z"/>
		<path class="st0" d="M357.5,195c-2.4,0-4.3-0.7-5.8-2.2s-2.2-3.4-2.2-5.8c0-1.4,0.3-2.7,0.9-3.9c0.6-1.1,1.6-2.1,2.9-2.9
			c1.3-0.8,3-1.5,5-2.1s4.4-1,7.2-1.3c0-0.7-0.1-1.4-0.3-2c-0.2-0.6-0.4-1.2-0.8-1.7s-0.9-0.9-1.5-1.2s-1.4-0.4-2.3-0.4
			c-1.3,0-2.6,0.3-3.9,0.8s-2.5,1.1-3.7,1.9l-2.3-4.3c1.5-1,3.2-1.8,5.1-2.5s3.9-1.1,6.1-1.1c3.4,0,5.9,1,7.6,3s2.5,4.9,2.5,8.7
			v16.1h-5.3l-0.4-3h-0.2c-1.2,1-2.5,1.9-3.9,2.6C360.6,194.6,359.1,195,357.5,195z M359.6,190c1.1,0,2.1-0.3,3-0.8s1.9-1.3,2.9-2.2
			v-6.1c-1.8,0.2-3.4,0.5-4.6,0.9c-1.3,0.4-2.3,0.8-3,1.2c-0.8,0.5-1.3,1-1.7,1.6c-0.3,0.6-0.5,1.2-0.5,1.9c0,1.2,0.4,2.1,1.1,2.7
			C357.5,189.7,358.4,190,359.6,190z"/>
		<path class="st0" d="M388.2,195c-1.6,0-2.9-0.2-4-0.7s-2-1.2-2.7-2c-0.7-0.9-1.2-1.9-1.5-3.1c-0.3-1.2-0.5-2.5-0.5-4v-13h-3.9
			v-4.8l4.2-0.3l0.8-7.4h5.3v7.4h6.9v5H386v13c0,3.2,1.3,4.8,3.8,4.8c0.5,0,1-0.1,1.5-0.2c0.5-0.1,0.9-0.3,1.4-0.4l1.1,4.7
			c-0.7,0.3-1.6,0.5-2.5,0.7C390.2,194.9,389.2,195,388.2,195z"/>
		<path class="st0" d="M404,195c-2.4,0-4.3-0.7-5.8-2.2s-2.2-3.4-2.2-5.8c0-1.4,0.3-2.7,0.9-3.9c0.6-1.1,1.6-2.1,2.9-2.9
			c1.3-0.8,3-1.5,5-2.1s4.4-1,7.2-1.3c0-0.7-0.1-1.4-0.3-2c-0.2-0.6-0.4-1.2-0.8-1.7s-0.9-0.9-1.5-1.2s-1.4-0.4-2.3-0.4
			c-1.3,0-2.6,0.3-3.9,0.8s-2.5,1.1-3.7,1.9L397,170c1.5-1,3.2-1.8,5.1-2.5s3.9-1.1,6.1-1.1c3.4,0,5.9,1,7.6,3s2.5,4.9,2.5,8.7v16.1
			H413l-0.4-3h-0.2c-1.2,1-2.5,1.9-3.9,2.6C407.1,194.6,405.6,195,404,195z M412.1,162.4c-0.9,0-1.7-0.2-2.4-0.6
			c-0.7-0.4-1.3-0.9-1.9-1.4s-1.1-1-1.6-1.4s-1-0.6-1.6-0.6c-1.3,0-2,1.2-2.3,3.7l-4.1-0.2c0.1-2.6,0.6-4.5,1.7-5.9
			c1-1.4,2.6-2.1,4.6-2.1c0.9,0,1.7,0.2,2.4,0.6c0.7,0.4,1.3,0.9,1.9,1.4s1.1,1,1.6,1.4s1.1,0.6,1.6,0.6c0.7,0,1.2-0.3,1.5-1
			c0.3-0.6,0.6-1.6,0.7-2.7l4.1,0.2c-0.1,2.5-0.6,4.5-1.7,5.9C415.6,161.7,414.1,162.4,412.1,162.4z M406,190c1.1,0,2.1-0.3,3-0.8
			s1.9-1.3,2.9-2.2v-6.1c-1.8,0.2-3.4,0.5-4.6,0.9c-1.3,0.4-2.3,0.8-3,1.2c-0.8,0.5-1.3,1-1.7,1.6c-0.3,0.6-0.5,1.2-0.5,1.9
			c0,1.2,0.4,2.1,1.1,2.7C403.9,189.7,404.9,190,406,190z"/>
		<path class="st0" d="M437.1,195c-1.7,0-3.3-0.3-4.9-0.9c-1.5-0.6-2.9-1.6-4.1-2.8s-2.1-2.7-2.8-4.5c-0.7-1.8-1.1-3.8-1.1-6
			s0.4-4.3,1.1-6c0.7-1.8,1.6-3.3,2.8-4.5c1.2-1.2,2.6-2.2,4.1-2.8s3.2-1,4.9-1c1.7,0,3.3,0.3,4.9,1c1.6,0.6,2.9,1.6,4.1,2.8
			s2.1,2.7,2.8,4.5c0.7,1.8,1.1,3.8,1.1,6s-0.4,4.3-1.1,6c-0.7,1.8-1.7,3.3-2.8,4.5c-1.2,1.2-2.6,2.1-4.1,2.8
			C440.4,194.7,438.8,195,437.1,195z M437.1,189.8c2,0,3.6-0.8,4.7-2.5c1.1-1.6,1.7-3.8,1.7-6.6s-0.6-5-1.7-6.6s-2.7-2.5-4.7-2.5
			s-3.5,0.8-4.7,2.5c-1.1,1.6-1.7,3.9-1.7,6.6c0,2.7,0.6,4.9,1.7,6.6C433.5,189,435.1,189.8,437.1,189.8z"/>
	</g>
	<g id="Fatec">
		<polygon class="st0" points="23.9,78.1 23.9,133.3 0,133.3 0,0 86.3,0 86.3,21.1 23.9,21.1 23.9,56.9 80.9,56.9 80.9,78.1 		"/>
		<path class="st0" d="M449.7,98.9c0,23.6-16.3,36-40.7,36c-24.3,0-40.5-13.4-40.5-36.9V74.5c0-23.5,16.3-37.1,40.5-37.1
			c24.5,0,40.7,12.5,40.7,36.2v1.6h-20.9c0-13.4-7.3-19-19.9-19c-12.3,0-19.5,6.4-19.5,20.1V96c0,13.6,7.1,20.1,19.5,20.1
			c12.5,0,19.9-5.4,19.9-18.8h20.9V98.9z"/>
		<path class="st0" d="M158.9,133.3v-10.9l-9.8,5.4c-8.7,4.7-15.5,6.8-24.8,6.8c-16.8,0-28-10.9-28-26.9c0-19.7,15.4-28.8,34.8-28.8
			h28v-5.5c0-12.2-7-18.1-19.3-18.1c-12.9,0-20.4,5.4-20.4,16.5H98.3v-1.2c0-21.3,16.8-33.3,41.3-33.3c25.7,0,40.6,12.9,40.6,35.5
			v60.7L158.9,133.3L158.9,133.3z M158.9,94.2h-25c-13,0-16.1,6.1-16.1,12.4c0,6.6,4.1,10.6,11.3,10.6c5.9,0,10.9-1.8,16.3-4.7
			l13.6-7.3v-11H158.9z"/>
		<path class="st0" d="M242.4,133.3c-21.8,0-35.9-10.9-35.9-32.4V57.3h-14.3V38.9h14.3V13.2h22.1v25.6h26.1v18.5h-26.1v42.3
			c0,11.1,5,14.9,15.5,14.9h11.1v18.8H242.4L242.4,133.3z"/>
		<path class="st0" d="M349.6,103.5c0,19.2-16.4,31.3-41.3,31.3c-24.3,0-41.6-13.3-41.6-36.4V76.1c0-23.8,17.3-38.7,41.6-38.7
			c24.5,0,41.4,14.2,41.4,39.1v16.6h-62.5v4.7c0,13.4,8.9,19.3,21.2,19.3c12.2,0,20.4-4.3,20.4-14.5h20.7L349.6,103.5L349.6,103.5z
			 M329.4,76.1c0-13.4-7.9-20.8-20.9-20.8c-13.2,0-21.2,7.3-21.2,21v2.3h42.2L329.4,76.1L329.4,76.1z"/>
	</g>
</g>
</svg>
