<?xml version="1.0" encoding="utf-8"?>
<!-- Generator: Adobe Illustrator 25.2.0, SVG Export Plug-In . SVG Version: 6.00 Build 0)  -->
<svg version="1.1" id="Logo" xmlns="http://www.w3.org/2000/svg" xmlns:xlink="http://www.w3.org/1999/xlink" x="0px" y="0px"
	 viewBox="0 0 300.5 313.2" style="enable-background:new 0 0 300.5 313.2;" xml:space="preserve">
<style type="text/css">
	.st0{fill:#222222;}
	.st1{fill:#990000;}
</style>
<path id="Element_Two" class="st0" d="M257.1,32.7c4,8.8,4,17.9-0.1,27.3c-4.1,9.4-11,16.4-20.8,20.9c-9.8,4.5-19.5,5.2-29.3,2.2
	c-9.8-3-16.7-8.9-20.7-17.7c-0.9-2-1.8-4.9-2.6-8.5c-4.2,1.5-6.8,2.5-7.8,3C162.2,66,158.1,74.7,163.2,86
	c2.7,5.8,12.6,16.9,29.7,33.3c17.2,16.4,28.4,30.3,33.6,41.6c11.2,24.3,6.1,48.7-15.2,73.2c-15.9,18.2-37.3,33.5-64.2,45.8
	c-24.6,11.3-47.9,17.9-70.1,19.8c-31.1,2.7-51.2-5.9-60.4-25.8c-13.3-28.9,4.7-54.7,53.9-77.4l50.7-23.3l19.5,16.8l-39.5,18.2
	c-9.9,4.6-17.8,10.3-23.6,17.1c-7.5,8.9-9.2,17.8-5.1,26.7c4.6,10,14.8,14.8,30.7,14.4c12.2-0.3,24.1-3.2,35.7-8.5
	c14.7-6.8,25.5-15.7,32.4-26.7c8-12.7,8.8-26,2.4-40c-4.4-9.6-14.4-21.7-29.9-36.2c-15.5-14.6-25.6-26.8-30.1-36.8
	C98.9,86,119,57.2,174.1,31.8L207,16.7c9-4.2,18.5-4.8,28.4-2C245.8,17.8,253,23.8,257.1,32.7z"/>
<path id="Element_One_1_" class="st1" d="M285.1,32.7c4,8.8,4,17.9-0.1,27.3c-4.1,9.4-11,16.4-20.8,20.9c-9.8,4.5-19.5,5.2-29.3,2.2
	c-9.8-3-16.7-8.9-20.7-17.7c-0.9-2-1.8-4.9-2.6-8.5c-4.2,1.5-6.8,2.5-7.8,3C190.2,66,186.1,74.7,191.2,86
	c2.7,5.8,12.6,16.9,29.7,33.3c17.2,16.4,28.4,30.3,33.6,41.6c11.2,24.3,6.1,48.7-15.2,73.2c-15.9,18.2-37.3,33.5-64.2,45.8
	c-24.6,11.3-47.9,17.9-70.1,19.8c-31.1,2.7-51.2-5.9-60.4-25.8c-13.3-28.9,4.7-54.7,53.9-77.4l50.7-23.3l19.5,16.8l-39.5,18.2
	c-9.9,4.6-17.8,10.3-23.6,17.1c-7.5,8.9-9.2,17.8-5.1,26.7c4.6,10,14.8,14.8,30.7,14.4c12.2-0.3,24.1-3.2,35.7-8.5
	c14.7-6.8,25.5-15.7,32.4-26.7c8-12.7,8.8-26,2.4-40c-4.4-9.6-14.4-21.7-29.9-36.2c-15.5-14.6-25.6-26.8-30.1-36.8
	C126.9,86,147,57.2,202.1,31.8L235,16.7c9-4.2,18.5-4.8,28.4-2C273.8,17.8,281,23.8,285.1,32.7z"/>
<g>
</g>
<g>
</g>
<g>
</g>
<g>
</g>
<g>
</g>
<g>
</g>
<g>
</g>
<g>
</g>
<g>
</g>
<g>
</g>
<g>
</g>
<g>
</g>
<g>
</g>
<g>
</g>
<g>
</g>
</svg>
