<?xml version="1.0" encoding="utf-8"?>
<!-- Generator: Adobe Illustrator 25.2.0, SVG Export Plug-In . SVG Version: 6.00 Build 0)  -->
<svg version="1.1" id="Layer_1" xmlns="http://www.w3.org/2000/svg" xmlns:xlink="http://www.w3.org/1999/xlink" x="0px" y="0px"
	 viewBox="0 0 71 71" style="enable-background:new 0 0 71 71;" xml:space="preserve">
<style type="text/css">
	.st0{opacity:0.5;fill:#FF9572;}
	.st1{fill:#FF3E00;}
</style>
<circle class="st0" cx="35.5" cy="35.5" r="35"/>
<path class="st1" d="M35.5,18C25.9,18,18,25.9,18,35.7c0,8.8,6.5,15.9,14.7,17.3V40.8h-4.4v-5.1h4.4v-3.9c0-4.4,2.6-6.8,6.6-6.8
	c1.9,0,3.8,0.3,3.8,0.3v4.4h-2.3c-2.1,0-2.8,1.4-2.8,2.8v3.3H43l-0.7,4.9h-4V53c8.6-1.4,14.9-8.8,14.7-17.3C53,25.9,45.1,18,35.5,18
	z"/>
</svg>
