<?xml version="1.0" encoding="utf-8"?>
<!-- Generator: Adobe Illustrator 25.2.0, SVG Export Plug-In . SVG Version: 6.00 Build 0)  -->
<svg version="1.1" id="Layer_1" xmlns="http://www.w3.org/2000/svg" xmlns:xlink="http://www.w3.org/1999/xlink" x="0px" y="0px"
	 viewBox="0 0 71 71" style="enable-background:new 0 0 71 71;" xml:space="preserve">
<style type="text/css">
	.st0{opacity:0.5;fill:#FF9572;}
	.st1{fill:#FF3E00;}
</style>
<circle class="st0" cx="35.5" cy="35.5" r="35"/>
<path class="st1" d="M28.1,18h14.7C48.5,18,53,22.5,53,28.1v14.7C53,48.5,48.5,53,42.9,53H28.1C22.5,53,18,48.5,18,42.9V28.1
	C18,22.5,22.5,18,28.1,18 M27.8,21.5c-3.5,0-6.3,2.8-6.3,6.3l0,0v15.4c0,3.5,2.8,6.3,6.3,6.3h15.4c3.5,0,6.3-2.8,6.3-6.3l0,0V27.8
	c0-3.5-2.8-6.3-6.3-6.3H27.8 M44.6,24.1c1.2,0,2.1,1,2.1,2.1c0,1-0.9,2.3-2.1,2.3s-2.1-1-2.1-2.1C42.5,25.4,43.5,24.1,44.6,24.1
	 M35.5,26.8c4.9,0,8.8,3.9,8.8,8.8s-3.8,8.8-8.8,8.8s-8.8-3.8-8.8-8.8S30.6,26.8,35.5,26.8 M35.5,30.2c-3,0-5.2,2.3-5.2,5.2
	s2.3,5.2,5.2,5.2s5.2-2.3,5.2-5.2S38.5,30.2,35.5,30.2z"/>
</svg>
