<?xml version="1.0" encoding="utf-8"?>
<!-- Generator: Adobe Illustrator 25.2.0, SVG Export Plug-In . SVG Version: 6.00 Build 0)  -->
<svg version="1.1" id="Layer_1" xmlns="http://www.w3.org/2000/svg" xmlns:xlink="http://www.w3.org/1999/xlink" x="0px" y="0px"
	 viewBox="0 0 71 71" style="enable-background:new 0 0 71 71;" xml:space="preserve">
<style type="text/css">
	.st0{opacity:0.5;fill:#FF9572;}
	.st1{fill:#FF3E00;}
</style>
<circle class="st0" cx="35.5" cy="35.5" r="35"/>
<path class="st1" d="M49.1,18c2.1,0,3.9,1.8,3.9,3.9v27.2c0,2.1-1.8,3.9-3.9,3.9H21.9c-2.1,0-3.9-1.8-3.9-3.9V21.9
	c0-2.1,1.8-3.9,3.9-3.9H49.1 M48.1,48.1V37.8c0-3.5-2.9-6.4-6.4-6.4l0,0c-1.6,0-3.5,1-4.5,2.5v-2.1h-5.4v16.3h5.4v-9.5
	c0-1.6,1.2-2.7,2.7-2.7s2.7,1.2,2.7,2.7v9.5H48.1 M25.6,28.9c1.8,0,3.3-1.6,3.3-3.3l0,0c0-1.8-1.6-3.3-3.3-3.3s-3.3,1.6-3.3,3.3l0,0
	C22.3,27.3,23.6,28.9,25.6,28.9 M28.3,48.1V31.8h-5.4v16.3H28.3z"/>
</svg>
