<?xml version="1.0" encoding="utf-8"?>
<!-- Generator: Adobe Illustrator 25.2.0, SVG Export Plug-In . SVG Version: 6.00 Build 0)  -->
<svg version="1.1" id="Layer_1" xmlns="http://www.w3.org/2000/svg" xmlns:xlink="http://www.w3.org/1999/xlink" x="0px" y="0px"
	 viewBox="0 0 100 100" style="enable-background:new 0 0 100 100;" xml:space="preserve">
<style type="text/css">
	.st0{fill:#FFFFFF;}
</style>
<path class="st0" d="M59.8,50.9c-1.9-0.6-4.6-0.5-8.1-0.5H37.6v18.4h15.1c2.4,0,4-0.3,5-0.4c1.7-0.3,3.1-0.9,4.2-1.6
	c1.1-0.7,2.1-1.8,2.8-3.1c0.7-1.3,1.1-2.9,1.1-4.7c0-2.1-0.5-3.6-1.6-5.1C63.1,52.4,61.6,51.5,59.8,50.9z M57.8,42.5
	c1.9-0.6,3.3-1.5,4.2-2.8c0.9-1.3,1.4-2.9,1.4-4.8c0-1.8-0.4-3.5-1.3-4.8c-0.9-1.4-2.1-1.9-3.8-2.4c-1.6-0.5-4.4-0.4-8.4-0.4H37.6
	v16h13.3C54.1,43.2,56.4,42.9,57.8,42.5z M100,13.3C100,6,94,0,86.7,0H13.3C6,0,0,6,0,13.3v73.4C0,94,6,100,13.3,100h73.4
	c7.3,0,13.3-6,13.3-13.3V13.3z M71.6,66.2c-1.1,2.2-2.4,3.9-4,5.1c-1.6,1.2-3.6,2.2-6,2.8c-2.4,0.6-5.4,1-8.9,1H30.4V20h21.9
	c4.2,0,7.6,0.5,10.1,1.6c2.5,1.1,4.5,2.8,6,5.1c1.4,2.3,2.2,4.7,2.2,7.3c0,2.4-0.6,4.6-1.9,6.6c-1.3,2.1-3.2,3.8-5.8,5
	c3.3,1,5.9,2.6,7.7,5c1.8,2.4,2.7,5.1,2.7,8.3C73.3,61.6,72.7,64,71.6,66.2z"/>
</svg>
