<?xml version="1.0" encoding="utf-8"?>
<!-- Generator: Adobe Illustrator 25.2.0, SVG Export Plug-In . SVG Version: 6.00 Build 0)  -->
<svg version="1.1" id="Layer_1" xmlns="http://www.w3.org/2000/svg" xmlns:xlink="http://www.w3.org/1999/xlink" x="0px" y="0px"
	 viewBox="0 0 100 113.6" style="enable-background:new 0 0 100 113.6;" xml:space="preserve">
<style type="text/css">
	.st0{fill:#FFFFFF;}
</style>
<path class="st0" d="M0,0l9.1,102.2l40.8,11.4l41-11.4L100,0H0z M81.1,23.4l-3,34l0,0.2l0,0.4v0l-2.2,23.8L75.7,84L50,91.1v0l0,0
	l-25.6-7.1l-1.7-19.7h12.6l0.9,10L50,78l0,0v0l14-3.8l1.5-16.3H36.2L36,55.2l-0.6-6.5l-0.3-3.5h31.5l1.1-12.7H19.8l-0.3-2.8L19,23.4
	l-0.3-3.5h62.7C81.4,19.9,81.1,23.4,81.1,23.4z"/>
</svg>
