<?xml version="1.0" encoding="utf-8"?>
<!-- Generator: Adobe Illustrator 25.2.0, SVG Export Plug-In . SVG Version: 6.00 Build 0)  -->
<svg version="1.1" id="Layer_1" xmlns="http://www.w3.org/2000/svg" xmlns:xlink="http://www.w3.org/1999/xlink" x="0px" y="0px"
	 viewBox="0 0 100 113.2" style="enable-background:new 0 0 100 113.2;" xml:space="preserve">
<style type="text/css">
	.st0{fill:#FFFFFF;}
</style>
<path class="st0" d="M0,0l9.1,102l40.8,11.3l41-11.3L100,0H0z M81.1,24.1l-0.6,6.5l-0.3,3H32.3l1.1,12.7h45.6l-0.3,3.2l-2.9,32.9
	l-0.2,2.1l-25.6,7v0l0,0l-25.6-6.8l-1.7-19.3h12.6l0.9,9.9L50,79.1h0v-0.5l14-3.5l1.5-16H22L19,24.5l-0.3-3.5h62.7
	C81.4,20.9,81.1,24.1,81.1,24.1z"/>
</svg>
