<?xml version="1.0" encoding="utf-8"?>
<!-- Generator: Adobe Illustrator 25.2.0, SVG Export Plug-In . SVG Version: 6.00 Build 0)  -->
<svg version="1.1" id="Layer_1" xmlns="http://www.w3.org/2000/svg" xmlns:xlink="http://www.w3.org/1999/xlink" x="0px" y="0px"
	 viewBox="0 0 100 100" style="enable-background:new 0 0 100 100;" xml:space="preserve">
<style type="text/css">
	.st0{fill:#FFFFFF;}
</style>
<path class="st0" d="M0,0v100h100V0H0z M52.9,85.2c-1.5,3-4.3,5-7.6,5.9c-5,1.2-9.8,0.5-13.4-1.6c-2.4-1.5-4.3-3.7-5.5-6.3l7.6-4.7
	c0.1,0,0.3,0.4,0.5,0.9c1,1.6,1.8,2.8,3.5,3.6c1.6,0.6,5.2,0.9,6.5-1.9c0.8-1.4,0.6-6.1,0.6-11.3c0-8.1,0-16.2,0-24.2h9.4
	c0,8.8,0,17.1,0,25.7C54.6,76.6,55,81.3,52.9,85.2z M91.8,82.6c-3.3,11.1-21.4,11.5-28.7,4.1c-1.5-1.7-2.5-2.6-3.4-4.6
	c3.9-2.2,3.9-2.2,7.6-4.4c2,3.1,3.9,4.9,7.3,5.6c4.6,0.6,9.2-1,8.2-5.9c-1.1-4-9.4-5-15.1-9.2c-5.8-3.9-7.1-13.3-2.4-18.7
	c1.6-2,4.3-3.5,7.1-4.2l3-0.4c5.7-0.1,9.2,1.4,11.8,4.3c0.7,0.7,1.3,1.5,2.4,3.2c-3,1.9-3,1.9-7.3,4.7c-0.9-2-2.5-3.2-4.1-3.8
	c-2.5-0.8-5.7,0.1-6.3,2.7c-0.2,0.8-0.2,1.6,0.2,2.9c1,2.3,4.4,3.3,7.5,4.7c8.8,3.6,11.8,7.4,12.5,12C92.8,79.6,91.9,82.2,91.8,82.6
	z"/>
</svg>
