<?xml version="1.0" encoding="utf-8"?>
<!-- Generator: Adobe Illustrator 25.2.0, SVG Export Plug-In . SVG Version: 6.00 Build 0)  -->
<svg version="1.1" id="jquery" xmlns="http://www.w3.org/2000/svg" xmlns:xlink="http://www.w3.org/1999/xlink" x="0px" y="0px"
	 viewBox="0 0 100 96.3" style="enable-background:new 0 0 100 96.3;" xml:space="preserve">
<style type="text/css">
	.st0{fill:#FFFFFF;}
</style>
<g id="original">
	<path class="st0" d="M6.4,22.6c-8.9,12.7-7.8,29.3-1,42.8c0.2,0.3,0.3,0.6,0.5,1C6,66.6,6.1,66.8,6.2,67c0.1,0.1,0.1,0.2,0.2,0.4
		c0.1,0.2,0.2,0.4,0.4,0.6c0.2,0.4,0.4,0.7,0.6,1.1c0.1,0.2,0.2,0.4,0.4,0.6c0.2,0.4,0.5,0.8,0.7,1.2c0.1,0.2,0.2,0.3,0.3,0.5
		c0.4,0.5,0.7,1.1,1.1,1.6c0,0,0,0,0,0c0.1,0.1,0.1,0.2,0.2,0.2c0.3,0.4,0.7,0.9,1,1.3c0.1,0.2,0.2,0.3,0.4,0.5
		c0.3,0.4,0.6,0.8,0.9,1.1c0.1,0.1,0.2,0.3,0.3,0.4c0.4,0.5,0.8,1,1.3,1.5c0,0,0,0,0,0c0,0,0,0,0,0.1c0.4,0.5,0.9,0.9,1.3,1.4
		c0.1,0.1,0.3,0.3,0.4,0.4c0.3,0.3,0.7,0.7,1,1c0.1,0.1,0.3,0.3,0.4,0.4c0.5,0.4,0.9,0.9,1.4,1.3c0,0,0,0,0,0
		c0.1,0.1,0.2,0.1,0.2,0.2c0.4,0.4,0.9,0.7,1.3,1.1c0.2,0.1,0.4,0.3,0.5,0.4c0.4,0.3,0.7,0.6,1.1,0.8c0.2,0.1,0.4,0.3,0.6,0.4
		c0.4,0.3,0.8,0.6,1.2,0.9c0.1,0.1,0.3,0.2,0.4,0.3c0,0,0.1,0.1,0.1,0.1c0.4,0.3,0.8,0.5,1.2,0.8c0.2,0.1,0.3,0.2,0.5,0.3
		c0.6,0.4,1.2,0.8,1.8,1.1c0.2,0.1,0.3,0.2,0.5,0.3c0.5,0.3,0.9,0.5,1.4,0.8c0.3,0.1,0.5,0.3,0.8,0.4c0.3,0.2,0.7,0.3,1,0.5
		c0.1,0,0.2,0.1,0.2,0.1c0.1,0.1,0.3,0.1,0.4,0.2c0.5,0.2,1,0.5,1.6,0.7c0.1,0.1,0.2,0.1,0.3,0.1c0.6,0.3,1.2,0.5,1.8,0.8
		c0.1,0.1,0.3,0.1,0.4,0.2c0.6,0.2,1.1,0.4,1.7,0.6c0.1,0,0.1,0,0.2,0.1c0.6,0.2,1.3,0.4,1.9,0.6c0.2,0,0.3,0.1,0.5,0.1
		c0.7,0.2,1.3,0.4,2,0.6c42.8,7.8,55.3-25.7,55.3-25.7C87.1,83,68.6,86.6,51,82.6c-0.7-0.1-1.3-0.4-2-0.5c-0.2,0-0.3-0.1-0.5-0.1
		c-0.6-0.2-1.3-0.4-1.9-0.6c-0.1,0-0.2-0.1-0.3-0.1c-0.6-0.2-1.1-0.4-1.7-0.6c-0.2-0.1-0.3-0.1-0.5-0.2c-0.6-0.2-1.2-0.5-1.8-0.7
		c-0.1-0.1-0.2-0.1-0.4-0.2c-0.5-0.2-1-0.5-1.5-0.7c-0.1-0.1-0.3-0.1-0.4-0.2c-0.4-0.2-0.8-0.4-1.2-0.6c-0.3-0.1-0.5-0.3-0.8-0.4
		c-0.5-0.3-0.9-0.5-1.4-0.8c-0.2-0.1-0.3-0.2-0.5-0.3c-0.6-0.4-1.2-0.7-1.8-1.1c-0.2-0.1-0.3-0.2-0.5-0.3c-0.4-0.3-0.9-0.6-1.3-0.9
		c-0.1-0.1-0.3-0.2-0.4-0.3c-0.4-0.3-0.8-0.6-1.2-0.9c-0.2-0.1-0.4-0.3-0.5-0.4c-0.4-0.3-0.7-0.6-1.1-0.9c-0.2-0.1-0.3-0.3-0.5-0.4
		c-0.5-0.4-0.9-0.8-1.4-1.2c0,0-0.1-0.1-0.2-0.1c-0.5-0.4-1-0.9-1.5-1.3c-0.1-0.1-0.3-0.3-0.4-0.4c-0.4-0.3-0.7-0.7-1-1
		c-0.1-0.1-0.3-0.3-0.4-0.4c-0.4-0.4-0.9-0.9-1.3-1.4c0,0,0,0-0.1-0.1c-0.4-0.5-0.9-1-1.3-1.5c-0.1-0.1-0.2-0.3-0.3-0.4
		c-0.3-0.4-0.6-0.8-0.9-1.2c-0.1-0.1-0.2-0.3-0.3-0.4c-0.4-0.5-0.7-1-1.1-1.4C9,47.3,5.5,28.9,13.3,13.9"/>
	<path class="st0" d="M33.8,11.9c-6.4,9.2-6.1,21.5-1.1,31.3c0.8,1.6,1.8,3.2,2.8,4.7c1,1.4,2,3,3.3,4.1c0.5,0.5,0.9,1,1.4,1.5
		c0.1,0.1,0.3,0.2,0.4,0.4c0.5,0.5,1,0.9,1.5,1.4c0,0,0,0,0.1,0.1c0,0,0,0,0,0c0.6,0.5,1.1,1,1.7,1.4c0.1,0.1,0.3,0.2,0.4,0.3
		c0.6,0.4,1.2,0.9,1.8,1.3c0,0,0,0,0.1,0c0.3,0.2,0.5,0.4,0.8,0.5c0.1,0.1,0.3,0.2,0.4,0.3c0.4,0.3,0.9,0.6,1.3,0.8
		c0.1,0,0.1,0.1,0.2,0.1c0.4,0.2,0.8,0.4,1.2,0.7c0.1,0.1,0.3,0.1,0.4,0.2c0.3,0.1,0.5,0.3,0.8,0.4c0,0,0.1,0,0.1,0.1
		c0.6,0.3,1.1,0.5,1.7,0.8c0.1,0.1,0.3,0.1,0.4,0.2c0.5,0.2,0.9,0.4,1.4,0.6c0.2,0.1,0.4,0.1,0.6,0.2c0.4,0.2,0.9,0.3,1.3,0.4
		c0.2,0.1,0.4,0.1,0.6,0.2c0.6,0.2,1.2,0.4,1.9,0.5c33.1,5.5,40.7-20,40.7-20c-6.9,9.9-20.2,14.6-34.4,10.9
		c-0.6-0.2-1.3-0.3-1.9-0.5c-0.2-0.1-0.4-0.1-0.6-0.2c-0.4-0.1-0.9-0.3-1.3-0.5c-0.2-0.1-0.4-0.1-0.6-0.2c-0.5-0.2-0.9-0.4-1.4-0.6
		c-0.1-0.1-0.3-0.1-0.4-0.2c-0.6-0.3-1.2-0.5-1.7-0.8c-0.3-0.1-0.6-0.3-0.9-0.4c-0.2-0.1-0.3-0.2-0.5-0.3c-0.4-0.2-0.7-0.4-1.1-0.6
		c-0.1,0-0.2-0.1-0.3-0.1c-0.4-0.3-0.9-0.5-1.3-0.8c-0.1-0.1-0.3-0.2-0.4-0.3c-0.3-0.2-0.6-0.4-0.9-0.6c-0.6-0.4-1.2-0.9-1.8-1.3
		c-0.1-0.1-0.3-0.2-0.4-0.3C44,42.8,39.1,36.1,36.7,28.5c-2.5-7.9-1.9-16.8,2.3-24"/>
	<path class="st0" d="M56.9,3.9c-3.8,5.6-4.1,12.5-1.5,18.6c2.8,6.5,8.4,11.6,15,14c0.3,0.1,0.5,0.2,0.8,0.3c0.1,0,0.2,0.1,0.4,0.1
		c0.4,0.1,0.8,0.3,1.2,0.3C91.1,40.8,96,27.9,97.3,26c-4.3,6.2-11.6,7.7-20.6,5.6c-0.7-0.2-1.5-0.4-2.2-0.7
		c-0.9-0.3-1.7-0.7-2.6-1.1c-1.6-0.8-3.1-1.7-4.5-2.7c-8-6.1-13-17.7-7.8-27.1"/>
</g>
<g>
</g>
<g>
</g>
<g>
</g>
<g>
</g>
<g>
</g>
<g>
</g>
<g>
</g>
<g>
</g>
<g>
</g>
<g>
</g>
<g>
</g>
<g>
</g>
<g>
</g>
<g>
</g>
<g>
</g>
</svg>
