<?xml version="1.0" encoding="utf-8"?>
<!-- Generator: Adobe Illustrator 25.2.0, SVG Export Plug-In . SVG Version: 6.00 Build 0)  -->
<svg version="1.1" id="less" xmlns="http://www.w3.org/2000/svg" xmlns:xlink="http://www.w3.org/1999/xlink" x="0px" y="0px"
	 viewBox="0 0 100 47.2" style="enable-background:new 0 0 100 47.2;" xml:space="preserve">
<style type="text/css">
	.st0{fill-rule:evenodd;clip-rule:evenodd;fill:#FFFFFF;}
</style>
<g id="plain-wordmark">
	<path class="st0" d="M96.3,19.3c-0.5-1-0.7-2.3-0.8-3.4c-0.1-2.8,0-5.7-0.1-8.5c-0.1-2.5-1-4.8-3.4-6.1c-2.1-1.1-4.6-1.3-7-1.3
		c0,1.6,0,3,0,4.5c0.8,0,0.6,0.1,0.8,0.1C88.9,4.8,90,5.8,90,8.9c0,2.4,0,4.7,0,7.1c0,2.9,0.5,5.6,3.1,7.4c0,0,0,0.1,0.1,0.3
		c-1.3,0.9-2.4,2.2-2.7,3.8c-0.2,1.3-0.4,2.7-0.4,4.1c-0.1,2.5,0,5-0.1,7.4c-0.1,1.9-1,2.8-2.9,3.3c-0.7,0.2-1.5,0.2-2.3,0.3
		c0,1.5,0,3,0,4.5c1.6-0.1,2.4-0.2,3.5-0.3c4.1-0.4,6.4-2.6,6.9-6.5c0.1-1.2,0.1-2.5,0.2-3.8c0.1-2.4,0-4.7,0.2-7.1
		c0.2-2.4,2-3.7,4.3-3.6c0-1.6,0-3.1,0-4.7C98.4,21.5,97,20.8,96.3,19.3z"/>
	<path class="st0" d="M21.7,28.9c0-9.2-0.2-18.3-0.2-27.5c0-0.5,0-0.9,0-1.4C19,0,16.5,0,14,0c-1,0-1.9,0.1-2.9,0.2
		C7.2,0.8,5.3,2.6,4.6,6.5C4.4,7.6,4.5,8.7,4.4,9.9c0,2.2,0,4.3,0,6.5c0,2.7-1.3,4.8-4.1,5c-0.1,0,0.5,0.1-0.3,0.2
		c0,1.4,0,2.8,0,4.2c3.2,0.5,4.2,1.8,4.4,4.7c0,0.5,0,0.9,0,1.4c0,2.6,0,5.3,0.1,7.9c0.1,2.5,0.7,4.6,3,5.9c2.2,1.2,5.2,1.3,6.7,1.4
		c0-1.6,0-3,0-4.5c0,0-0.2-0.1-0.3-0.1c-3.4-0.2-4.2-1.1-4.2-4.6c0-2.3,0.1-4.6,0-6.8c0-2.9-0.5-5.6-3.1-7.4c0,0,0-0.1,0-0.3
		c1.7-1.1,2.7-2.8,2.9-4.8c0.1-1.1,0.2-2.3,0.2-3.4c0-2.4,0-4.7,0.1-7.1c0-1.7,1.1-2.9,2.5-3.1c1.3-0.3,1.9-0.2,4.3-0.4
		c0,0.7,0,1.2,0,1.6c0,8.2-0.3,16.4-0.2,24.5c0,2.8,0.3,5.6,3.3,6.8c1.6,0.7,3.4,0.9,5.3,1.3c0.3-1.8,0.4-3.4,0.7-4.9
		C22.2,32.9,21.7,32.4,21.7,28.9z"/>
	<path class="st0" d="M42.8,13.2C37,10.4,30,12.8,27.2,18.7c-2,4.4-2,8.9-0.2,13.4c1,2.4,2.7,4.2,5.1,5.3c4.7,2.1,9.4,1.6,14.2,0.1
		c0.3-0.1,0.6-0.6,0.5-0.8c-0.2-1.3-0.4-2.6-0.7-4c-1.1,0.3-2.1,0.6-3,0.8c-2.5,0.5-5.1,0.5-7.5-0.5c-2.4-1-4.1-3.8-3.7-6.1
		c5.5,0,11,0,16.6,0c0.2-2.4,0.1-5.7-0.9-8.4C46.8,16,45.2,14.3,42.8,13.2z M42.8,22.8c-3.7,0-7.3,0-10.9,0c0-3.2,2.6-6,6-6
		C40.9,16.9,42.9,19.6,42.8,22.8z"/>
	<path class="st0" d="M87.3,32.5c0.4-4-0.8-6.3-4.4-8c-1.3-0.6-2.6-1.1-3.9-1.6c-1-0.4-1.9-0.9-2.8-1.4c-0.9-0.5-1.2-1.4-1.1-2.4
		c0.1-1,0.8-1.7,1.7-1.9c1.1-0.2,2.3-0.4,3.5-0.3c1.6,0.1,3.2,0.5,4.9,0.9c0.3-1.4,0.6-2.8,1.1-4.6c-2.3-0.3-4.4-0.8-6.5-1
		c-2.4-0.2-4.7,0.2-6.8,1.3c-4.6,2.4-4.7,9.6-0.5,12c1.3,0.7,2.6,1.3,3.9,1.9c1.4,0.7,2.8,1.2,4.1,2c1,0.6,1.4,1.6,1.1,2.8
		c-0.2,1.1-1.1,1.6-2,1.7c-1.5,0.1-3,0.3-4.5,0.1c-1.8-0.2-3.5-0.7-5.3-1.2c-0.3,1.5-0.6,3.1-0.9,4.6c4.2,1.6,8.4,1.8,12.6,0.9
		C85.1,37.4,87.1,35.3,87.3,32.5z"/>
	<path class="st0" d="M64.8,25c-1.6-0.8-3.2-1.4-4.8-2.2c-1-0.5-2.1-0.9-2.9-1.5c-1.7-1.2-1.4-3.5,0.6-4.2c1.1-0.4,2.4-0.5,3.6-0.4
		c1.6,0.1,3.2,0.5,4.9,0.8c0.3-1.4,0.6-2.8,1-4.4c-0.9-0.2-1.6-0.5-2.4-0.7c-3.2-0.7-6.3-0.9-9.4,0.2c-2.7,0.9-4.5,2.7-4.9,5.6
		c-0.4,3.3,0.7,5.9,3.7,7.5c1.2,0.6,2.5,1.1,3.8,1.7c1.2,0.6,2.5,1.1,3.7,1.9c0.9,0.6,1.2,1.5,1,2.6c-0.2,1.1-1,1.6-2,1.7
		c-1.5,0.2-3,0.3-4.5,0.1c-1.8-0.2-3.5-0.7-5.3-1.2c-0.3,1.3-0.6,2.6-0.8,3.9c0,0.3,0.3,0.8,0.5,0.9c4.3,1.5,8.6,1.7,13,0.4
		c2.6-0.8,4.4-2.4,4.8-5.3C68.6,29.4,67.9,26.7,64.8,25z"/>
</g>
<g>
</g>
<g>
</g>
<g>
</g>
<g>
</g>
<g>
</g>
<g>
</g>
<g>
</g>
<g>
</g>
<g>
</g>
<g>
</g>
<g>
</g>
<g>
</g>
<g>
</g>
<g>
</g>
<g>
</g>
</svg>
