<?xml version="1.0" encoding="utf-8"?>
<!-- Generator: Adobe Illustrator 25.2.0, SVG Export Plug-In . SVG Version: 6.00 Build 0)  -->
<svg version="1.1" id="Layer_1" xmlns="http://www.w3.org/2000/svg" xmlns:xlink="http://www.w3.org/1999/xlink" x="0px" y="0px"
	 viewBox="0 0 102.1 76.7" style="enable-background:new 0 0 102.1 76.7;" xml:space="preserve">
<style type="text/css">
	.st0{fill:#FFFFFF;}
	.st1{fill:#C0BEBE;}
	.st2{fill:#8C8C8C;}
</style>
<g>
	<path class="st0" d="M31.8,73.3c-0.6-1-0.8-2.2-0.6-3.4H7.3L42.8,7.5l15,26.6l4.7-3.5L47.7,4.1c-1-1.8-2.9-3.1-4.9-3.3
		c-2.1,0.1-4,1.4-4.8,3.3L2,67.4c-1.1,1.8-1.2,4-0.3,6c1.1,1.8,3.1,2.8,5.2,2.5H37C34.9,76.1,32.9,75.1,31.8,73.3L31.8,73.3z"/>
	<path class="st1" d="M100,67.5L71.1,16.1c-1-1.8-2.8-3.1-4.9-3.3c-2.1,0.1-3.9,1.4-4.7,3.3l-3.8,6.1v11.9l8.5-14.6L94.8,70H84
		c0.2,1,0,2.1-0.4,3l-0.1,0.2c-1.2,1.7-3.2,2.7-5.2,2.6h17c2.1,0.1,4-0.9,5.2-2.6C101.4,71.4,101.2,69.2,100,67.5L100,67.5z"/>
	<path class="st2" d="M84.2,73.2l0.1-0.2l0.3-0.5c0.3-0.8,0.4-1.7,0.2-2.5c-0.2-0.9-0.5-1.8-1-2.6L61.2,28.2l-3.4-6h-0.1l-3.4,5.9
		L31.7,67.4c-0.4,0.8-0.7,1.7-0.9,2.6c-0.2,1.2,0,2.4,0.5,3.4c1.2,1.8,3.2,2.8,5.3,2.5h42.1C80.9,75.9,83,74.9,84.2,73.2L84.2,73.2z
		 M57.7,34.1L78.4,70H37L57.7,34.1z"/>
</g>
</svg>
