<?xml version="1.0" encoding="utf-8"?>
<!-- Generator: Adobe Illustrator 25.2.0, SVG Export Plug-In . SVG Version: 6.00 Build 0)  -->
<svg version="1.1" id="Layer_1" xmlns="http://www.w3.org/2000/svg" xmlns:xlink="http://www.w3.org/1999/xlink" x="0px" y="0px"
	 viewBox="0 0 125.2 111.8" style="enable-background:new 0 0 125.2 111.8;" xml:space="preserve">
<style type="text/css">
	.st0{fill:#FFFFFF;}
</style>
<g>
	<circle class="st0" cx="62.6" cy="55.9" r="11.4"/>
	<path class="st0" d="M105.9,37.1c-2.2-0.8-4.5-1.6-6.9-2.3c0.6-2.4,1.1-4.8,1.5-7.1c2.1-13.2-0.2-22.5-6.6-26.1
		C92,0.5,89.9,0,87.5,0c-7,0-15.9,5.2-24.9,13.9C53.6,5.2,44.7,0,37.7,0c-2.4,0-4.5,0.5-6.4,1.6c-6.4,3.7-8.7,13-6.6,26.1
		c0.4,2.3,0.9,4.7,1.5,7.1c-2.4,0.7-4.7,1.4-6.9,2.3C6.8,41.9,0,48.5,0,55.9s6.9,14,19.3,18.8c2.2,0.8,4.5,1.6,6.9,2.3
		c-0.6,2.4-1.1,4.8-1.5,7.1c-2.1,13.2,0.2,22.5,6.6,26.1c1.9,1.1,4,1.6,6.4,1.6c7.1,0,16-5.2,24.9-13.9c9,8.7,17.9,13.9,24.9,13.9
		c2.4,0,4.5-0.5,6.4-1.6c6.4-3.7,8.7-13,6.6-26.1c-0.4-2.3-0.9-4.7-1.5-7.1c2.4-0.7,4.7-1.4,6.9-2.3c12.5-4.8,19.3-11.4,19.3-18.8
		S118.4,41.9,105.9,37.1z M91.1,6.6c4.1,2.4,5.5,9.8,3.8,20.3c-0.3,2.1-0.8,4.3-1.4,6.6c-5.2-1.2-10.7-2-16.5-2.5
		c-3.4-4.8-6.9-9.1-10.4-13c7.4-7.3,14.9-12.3,21-12.3C88.9,5.7,90.1,6,91.1,6.6z M79.9,65.9c-1.8,3.2-3.9,6.4-6.1,9.6
		c-3.7,0.3-7.4,0.4-11.2,0.4c-3.9,0-7.6-0.1-11.2-0.4c-2.2-3.2-4.2-6.4-6-9.6c-1.9-3.3-3.7-6.7-5.3-10c1.6-3.3,3.4-6.7,5.3-10
		c1.8-3.2,3.9-6.4,6.1-9.6c3.7-0.3,7.4-0.4,11.2-0.4c3.9,0,7.6,0.1,11.2,0.4c2.2,3.2,4.2,6.4,6,9.6c1.9,3.3,3.7,6.7,5.3,10
		C83.5,59.2,81.8,62.5,79.9,65.9z M88.2,62.6c1.5,3.5,2.7,6.9,3.8,10.3c-3.4,0.8-7,1.4-10.8,1.9c1.2-1.9,2.5-3.9,3.6-6
		C86,66.7,87.1,64.6,88.2,62.6z M62.6,89.7c-2.4-2.6-4.7-5.4-6.9-8.3c2.3,0.1,4.6,0.2,6.9,0.2s4.6-0.1,6.9-0.2
		C67.3,84.3,65,87.1,62.6,89.7z M44,74.7c-3.8-0.5-7.4-1.1-10.8-1.9c1.1-3.3,2.3-6.8,3.8-10.3c1.1,2,2.2,4.1,3.4,6.1
		C41.6,70.8,42.8,72.7,44,74.7z M37,49.2c-1.5-3.5-2.7-6.9-3.8-10.3c3.4-0.8,7-1.4,10.8-1.9c-1.2,1.9-2.5,3.9-3.6,6
		C39.2,45.1,38.1,47.2,37,49.2z M62.6,22.1c2.4,2.6,4.7,5.4,6.9,8.3c-2.3-0.1-4.6-0.2-6.9-0.2c-2.3,0-4.6,0.1-6.9,0.2
		C57.9,27.5,60.2,24.7,62.6,22.1z M84.8,43.1l-3.6-6C85,37.6,88.6,38.2,92,39c-1.1,3.3-2.3,6.8-3.8,10.3
		C87.1,47.2,86,45.1,84.8,43.1z M30.3,26.9C28.6,16.4,30,9,34.1,6.6c1-0.6,2.2-0.9,3.5-0.9c6,0,13.5,4.9,21,12.3
		c-3.5,3.8-7,8.2-10.4,13c-5.8,0.5-11.3,1.4-16.5,2.5C31.1,31.2,30.7,29,30.3,26.9z M5.6,55.9c0-4.7,5.7-9.7,15.7-13.4
		c2-0.8,4.2-1.5,6.4-2.1c1.6,5,3.6,10.3,6,15.6c-2.4,5.3-4.5,10.5-6,15.5C13.9,67.5,5.6,61.5,5.6,55.9z M34.1,105.2
		c-4.1-2.4-5.5-9.8-3.8-20.3c0.3-2.1,0.8-4.3,1.4-6.6c5.2,1.2,10.7,2,16.5,2.5c3.4,4.8,6.9,9.1,10.4,13c-7.4,7.3-14.9,12.3-21,12.3
		C36.3,106.1,35.1,105.8,34.1,105.2z M94.9,84.9c1.7,10.5,0.3,17.9-3.8,20.3c-1,0.6-2.2,0.9-3.5,0.9c-6,0-13.5-4.9-21-12.3
		c3.5-3.8,7-8.2,10.4-13c5.8-0.5,11.3-1.4,16.5-2.5C94.1,80.6,94.5,82.8,94.9,84.9z M103.9,69.3c-2,0.8-4.2,1.5-6.4,2.1
		c-1.6-5-3.6-10.3-6-15.6c2.4-5.3,4.5-10.5,6-15.5c13.8,4,22.1,10,22.1,15.6C119.6,60.6,113.8,65.6,103.9,69.3z"/>
</g>
</svg>
