<?xml version="1.0" encoding="utf-8"?>
<!-- Generator: Adobe Illustrator 25.2.0, SVG Export Plug-In . SVG Version: 6.00 Build 0)  -->
<svg version="1.1" id="Layer_1" xmlns="http://www.w3.org/2000/svg" xmlns:xlink="http://www.w3.org/1999/xlink" x="0px" y="0px"
	 viewBox="0 0 100 60" style="enable-background:new 0 0 100 60;" xml:space="preserve">
<style type="text/css">
	.st0{fill:#FFFFFF;}
</style>
<path class="st0" d="M50,0C36.7,0,28.3,6.7,25,20c5-6.7,10.8-9.2,17.5-7.5c3.8,0.9,6.5,3.7,9.5,6.8c4.9,5,10.6,10.7,23,10.7
	c13.3,0,21.7-6.7,25-20c-5,6.7-10.8,9.2-17.5,7.5c-3.8-0.9-6.5-3.7-9.5-6.8C68.1,5.8,62.4,0,50,0z M25,30C11.7,30,3.3,36.7,0,50
	c5-6.7,10.8-9.2,17.5-7.5c3.8,0.9,6.5,3.7,9.5,6.8c4.9,5,10.6,10.7,23,10.7c13.3,0,21.7-6.7,25-20c-5,6.7-10.8,9.2-17.5,7.5
	c-3.8-0.9-6.5-3.7-9.5-6.8C43.1,35.8,37.4,30,25,30z"/>
</svg>
