<?xml version="1.0" encoding="utf-8"?>
<!-- Generator: Adobe Illustrator 25.2.0, SVG Export Plug-In . SVG Version: 6.00 Build 0)  -->
<svg version="1.1" id="Layer_1" xmlns="http://www.w3.org/2000/svg" xmlns:xlink="http://www.w3.org/1999/xlink" x="0px" y="0px"
	 viewBox="0 0 128 110.1" style="enable-background:new 0 0 128 110.1;" xml:space="preserve">
<style type="text/css">
	.st0{fill:none;}
	.st1{fill:#C0BEBE;}
	.st2{fill:#FFFFFF;}
</style>
<path class="st0" d="M0,0l49.9,0.2L64,24.6L78.5,0.2L128,0L64.2,110.1L0,0z M127,0.6l-24.4,0L64.1,66.7L25.7,0.7l-24.7,0l63.2,107.9
	L127,0.6z M101.8,0.6L79.1,0.8L64,25.4L49.2,0.8L26.4,0.6l37.7,64.5L101.8,0.6z M26,0.5l23,0 M26,0.5l23,0"/>
<path class="st1" d="M26,0.5l23,0l15,25l15-25l23,0L64.2,66.1L26,0.5z"/>
<path class="st2" d="M0.9,0.6L26,0.5l38.2,65.7L102,0.5l25.1,0l-63,108.1L0.9,0.6z"/>
</svg>
