<?xml version="1.0" encoding="utf-8"?>
<!-- Generator: Adobe Illustrator 25.2.0, SVG Export Plug-In . SVG Version: 6.00 Build 0)  -->
<svg version="1.1" id="Layer_1" xmlns="http://www.w3.org/2000/svg" xmlns:xlink="http://www.w3.org/1999/xlink" x="0px" y="0px"
	 viewBox="0 0 24.7 18.5" style="enable-background:new 0 0 24.7 18.5;" xml:space="preserve">
<style type="text/css">
	.st0{fill:#FFFFFF;}
</style>
<path class="st0" d="M5.3,0.3h2v2h-2v5c0,1.1-0.9,2-2,2c1.1,0,2,0.9,2,2v5h2v2h-2c-1.1-0.3-2-0.9-2-2v-4c0-1.1-0.9-2-2-2h-1v-2h1
	c1.1,0,2-0.9,2-2v-4C3.3,1.2,4.2,0.3,5.3,0.3 M19.3,0.3c1.1,0,2,0.9,2,2v4c0,1.1,0.9,2,2,2h1v2h-1c-1.1,0-2,0.9-2,2v4
	c0,1.1-0.9,2-2,2h-2v-2h2v-5c0-1.1,0.9-2,2-2c-1.1,0-2-0.9-2-2v-5h-2v-2H19.3 M12.3,12.3c0.6,0,1,0.4,1,1c0,0.6-0.4,1-1,1
	s-1-0.4-1-1C11.3,12.7,11.8,12.3,12.3,12.3 M8.3,12.3c0.6,0,1,0.4,1,1c0,0.6-0.4,1-1,1c-0.6,0-1-0.4-1-1C7.3,12.7,7.8,12.3,8.3,12.3
	 M16.3,12.3c0.6,0,1,0.4,1,1c0,0.6-0.4,1-1,1c-0.6,0-1-0.4-1-1C15.3,12.7,15.8,12.3,16.3,12.3z"/>
</svg>
