<?xml version="1.0" encoding="utf-8"?>
<!-- Generator: Adobe Illustrator 25.2.0, SVG Export Plug-In . SVG Version: 6.00 Build 0)  -->
<svg version="1.1" id="Layer_1" xmlns="http://www.w3.org/2000/svg" xmlns:xlink="http://www.w3.org/1999/xlink" x="0px" y="0px"
	 viewBox="0 0 21.2 21.2" style="enable-background:new 0 0 21.2 21.2;" xml:space="preserve">
<style type="text/css">
	.st0{fill:#FFFFFF;}
</style>
<path class="st0" d="M1.6,15.9v3.8h3.8L16.4,8.5l-3.8-3.8L1.6,15.9 M21.2,17L17,21.2L11.8,16l1.8-1.8l1,1l2.5-2.5l1.4,1.4L17,15.6
	l1.1,1l1.4-1.4L21.2,17 M5.2,9.4L0,4.2L4.2,0L6,1.8L3.5,4.2l1.1,1.1l2.5-2.5l1.4,1.4L7.1,5.7l1,1L5.2,9.4 M19.3,5.6
	c0.4-0.4,0.4-1,0-1.4L17,1.9c-0.4-0.4-1-0.4-1.4,0l-1.8,1.8l3.8,3.8L19.3,5.6z"/>
</svg>
