<?xml version="1.0" encoding="utf-8"?>
<!-- Generator: Adobe Illustrator 25.2.0, SVG Export Plug-In . SVG Version: 6.00 Build 0)  -->
<svg version="1.1" id="Layer_1" xmlns="http://www.w3.org/2000/svg" xmlns:xlink="http://www.w3.org/1999/xlink" x="0px" y="0px"
	 viewBox="0 0 20 10" style="enable-background:new 0 0 20 10;" xml:space="preserve">
<style type="text/css">
	.st0{fill:#FFFFFF;}
</style>
<path class="st0" d="M4,4c1.1,0,2,0.9,2,2v4H2c-1.1,0-2-0.9-2-2V6c0-1.1,0.9-2,2-2H4 M2,6v2h2V6H2 M18,6v2h2v2h-2c-1.1,0-2-0.9-2-2
	V6c0-1.1,0.9-2,2-2h2v2H18 M10,0v4h2c1.1,0,2,0.9,2,2v2c0,1.1-0.9,2-2,2h-2c-1.1,0-2-0.9-2-2V0H10 M10,8h2V6h-2V8z"/>
</svg>
