<?xml version="1.0" encoding="utf-8"?>
<!-- Generator: Adobe Illustrator 25.2.0, SVG Export Plug-In . SVG Version: 6.00 Build 0)  -->
<svg version="1.1" id="Layer_1" xmlns="http://www.w3.org/2000/svg" xmlns:xlink="http://www.w3.org/1999/xlink" x="0px" y="0px"
	 viewBox="0 0 16 21" style="enable-background:new 0 0 16 21;" xml:space="preserve">
<style type="text/css">
	.st0{fill:#FFFFFF;}
</style>
<path class="st0" d="M14.4,9.7l-4.1,0.2l2.3-2.6C12.8,7,12.9,6.5,12.8,6c-0.1-0.3-0.2-0.6-0.5-0.8L6.9,2c-0.4-0.3-1-0.2-1.4,0.1
	L2.8,4.6C2.3,5.1,2.2,5.8,2.7,6.3c0.4,0.5,1.2,0.5,1.7,0.1l2-1.8l1.9,1.1L4.1,10C4,10.1,4,10.2,3.9,10.2c-0.5,0.2-1,0.4-1.4,0.7
	L4,12.4C4.5,12.2,5,12,5.5,12C7.4,12,9,13.6,9,15.5c0,0.6-0.1,1.1-0.4,1.5l1.5,1.5c0.6-0.9,0.9-1.9,0.9-3c0-1.2-0.4-2.4-1.1-3.3
	l3.3-0.3L13,16.7c-0.1,0.7,0.4,1.2,1.1,1.3h0.1c0.6,0,1.1-0.5,1.2-1.1l0.2-5.9c0-0.3-0.1-0.7-0.3-0.9C15,9.8,14.7,9.7,14.4,9.7
	 M14,4c1.1,0,2-0.9,2-2s-0.9-2-2-2s-2,0.9-2,2S12.9,4,14,4 M8.5,20.1c-0.9,0.6-1.9,0.9-3,0.9c-3,0-5.5-2.5-5.5-5.5
	c0-1.1,0.3-2.1,0.9-3L2.4,14C2.2,14.5,2,15,2,15.5C2,17.4,3.6,19,5.5,19c0.6,0,1.1-0.1,1.5-0.4L8.5,20.1z"/>
</svg>
