<?xml version="1.0" encoding="utf-8"?>
<!-- Generator: Adobe Illustrator 25.2.0, SVG Export Plug-In . SVG Version: 6.00 Build 0)  -->
<svg version="1.1" id="Icons" xmlns="http://www.w3.org/2000/svg" xmlns:xlink="http://www.w3.org/1999/xlink" x="0px" y="0px"
	 viewBox="0 0 558.6 687.5" style="enable-background:new 0 0 558.6 687.5;" xml:space="preserve">
<style type="text/css">
	.st0{opacity:0.95;}
	.st1{opacity:0.5;fill:none;stroke:#FF8F7D;stroke-width:38.7038;stroke-miterlimit:10;enable-background:new    ;}
	.st2{opacity:0.5;fill:none;stroke:#FF8F7D;stroke-width:30.4844;stroke-miterlimit:10;enable-background:new    ;}
</style>
<g id="Icon_2" class="st0">
	<path class="st1" d="M521.5,207l-37.8,219.5c-1.3,7.5-6.5,13.6-13.6,16.2l-222,79.6c-6.7,2.4-14.2,1.2-19.9-3.1L44.9,377.5
		c-6.1-4.7-9.2-12.5-7.8-20.2l37.8-219.5c1.3-7.5,6.5-13.6,13.6-16.2l222-79.6c6.7-2.4,14.2-1.2,19.9,3.1l183.3,141.7
		C519.8,191.6,522.8,199.4,521.5,207z"/>
	<path class="st2" d="M484,518.1L362.8,645.7c-4.1,4.3-10.1,6.1-15.9,4.7l-180.5-44.1c-5.5-1.3-9.9-5.4-11.7-10.8l-58-172.3
		c-2-5.8-0.5-12.2,3.7-16.6L221.6,279c4.1-4.3,10.1-6.1,15.9-4.7l180.5,44c5.5,1.3,9.9,5.4,11.7,10.8l57.9,172.3
		C489.7,507.2,488.3,513.6,484,518.1z"/>
</g>
</svg>
