<?xml version="1.0" encoding="utf-8"?>
<!-- Generator: Adobe Illustrator 25.2.0, SVG Export Plug-In . SVG Version: 6.00 Build 0)  -->
<svg version="1.1" id="Layer_1" xmlns="http://www.w3.org/2000/svg" xmlns:xlink="http://www.w3.org/1999/xlink" x="0px" y="0px"
	 viewBox="0 0 623.1 538" style="enable-background:new 0 0 623.1 538;" xml:space="preserve">
<style type="text/css">
	.st0{opacity:0.95;}
	.st1{opacity:0.5;fill:#FF8F7D;enable-background:new    ;}
</style>
<g id="Icon_3" class="st0">
	<path class="st1" d="M53.7,325.3c7.4,10.5,4.4,25.3-6.7,33.1c-11.1,7.8-26,5.5-33.4-5s-4.3-25.3,6.7-33.1
		C31.4,312.6,46.4,314.8,53.7,325.3z"/>
	<path class="st1" d="M141.5,263.8c7.4,10.5,4.4,25.3-6.7,33.1c-11.1,7.8-26,5.5-33.4-5s-4.3-25.3,6.7-33.1
		C119.2,251.1,134.2,253.3,141.5,263.8z"/>
	<path class="st1" d="M229.4,202.3c7.4,10.5,4.4,25.3-6.7,33.1c-11.1,7.8-26,5.5-33.4-5c-7.4-10.5-4.3-25.3,6.7-33.1
		C207,189.6,222,191.8,229.4,202.3z"/>
	<path class="st1" d="M317.2,140.9c7.4,10.5,4.4,25.3-6.7,33.1s-26,5.5-33.4-5s-4.3-25.3,6.7-33.1
		C294.9,128.1,309.8,130.3,317.2,140.9z"/>
	<path class="st1" d="M405,79.4c7.4,10.5,4.4,25.3-6.7,33.1s-26,5.5-33.4-5s-4.3-25.3,6.7-33.1C382.7,66.6,397.6,68.8,405,79.4z"/>
	<path class="st1" d="M492.8,17.9c7.4,10.5,4.4,25.3-6.7,33.1s-26,5.5-33.4-5s-4.3-25.3,6.7-33.1C470.5,5.1,485.4,7.4,492.8,17.9z"
		/>
	<path class="st1" d="M112.1,408.7c7.4,10.5,4.4,25.4-6.7,33.1c-11.1,7.8-26,5.5-33.4-5s-4.3-25.3,6.7-33.1
		C89.8,395.9,104.7,398.1,112.1,408.7z"/>
	<path class="st1" d="M199.9,347.2c7.4,10.5,4.4,25.4-6.7,33.1c-11.1,7.8-26,5.5-33.4-5c-7.4-10.5-4.3-25.3,6.7-33.1
		C177.6,334.4,192.5,336.7,199.9,347.2z"/>
	<path class="st1" d="M287.7,285.7c7.4,10.5,4.4,25.4-6.7,33.1c-11.1,7.8-26,5.5-33.4-5s-4.3-25.3,6.7-33.1
		C265.4,272.9,280.4,275.2,287.7,285.7z"/>
	<path class="st1" d="M375.5,224.2c7.4,10.5,4.4,25.4-6.7,33.1c-11.1,7.8-26,5.5-33.4-5s-4.3-25.3,6.7-33.1
		C353.2,211.4,368.2,213.7,375.5,224.2z"/>
	<path class="st1" d="M463.3,162.7c7.4,10.5,4.4,25.4-6.7,33.1c-11.1,7.8-26,5.5-33.4-5s-4.3-25.3,6.7-33.1
		C441,150,456,152.2,463.3,162.7z"/>
	<path class="st1" d="M551.2,101.2c7.4,10.5,4.4,25.4-6.7,33.1c-11.1,7.8-26,5.5-33.4-5s-4.3-25.3,6.7-33.1
		C528.8,88.5,543.8,90.7,551.2,101.2z"/>
	<path class="st1" d="M170.5,492c7.4,10.5,4.3,25.3-6.7,33.1c-11.1,7.8-26,5.5-33.4-5c-7.4-10.5-4.4-25.3,6.7-33.1
		C148.1,479.2,163.1,481.5,170.5,492z"/>
	<path class="st1" d="M258.3,430.5c7.4,10.5,4.3,25.3-6.7,33.1c-11.1,7.8-26,5.5-33.4-5c-7.4-10.5-4.4-25.3,6.7-33.1
		C235.9,417.8,250.9,420,258.3,430.5z"/>
	<path class="st1" d="M346.1,369c7.4,10.5,4.3,25.3-6.7,33.1c-11.1,7.8-26,5.5-33.4-5s-4.4-25.3,6.7-33.1
		C323.8,356.3,338.7,358.5,346.1,369z"/>
	<path class="st1" d="M433.9,307.5c7.4,10.5,4.3,25.3-6.7,33.1c-11.1,7.8-26,5.5-33.4-5s-4.4-25.3,6.7-33.1
		C411.6,294.8,426.5,297,433.9,307.5z"/>
	<path class="st1" d="M521.7,246.1c7.4,10.5,4.3,25.3-6.7,33.1c-11.1,7.8-26,5.5-33.4-5s-4.4-25.3,6.7-33.1
		C499.4,233.3,514.3,235.5,521.7,246.1z"/>
	<path class="st1" d="M609.5,184.6c7.4,10.5,4.3,25.3-6.7,33.1c-11.1,7.8-26,5.5-33.4-5s-4.4-25.3,6.7-33.1S602.2,174.1,609.5,184.6
		z"/>
</g>
</svg>
